<svg width="212" height="51" viewBox="0 0 212 51" fill="none" xmlns="http://www.w3.org/2000/svg">
<path d="M26.0876 29.7295C24.7788 29.7295 23.7539 30.6834 23.7539 31.9002C23.7539 32.9774 24.4941 33.7676 25.5276 33.812C25.5588 33.812 25.5892 33.812 25.6212 33.812C25.8912 33.8123 26.1575 33.7496 26.3989 33.6288C26.6404 33.508 26.8503 33.3325 27.0119 33.1163C26.9503 34.6333 25.7686 35.3174 24.9231 35.3174V37.1894C25.9245 37.1756 26.8833 36.7819 27.6055 36.088C28.4323 35.3026 28.887 34.2036 28.887 32.9922C28.887 31.1304 27.6835 29.7264 26.0876 29.7264V29.7295Z" fill="#FBC471"/>
<path d="M22.3756 17.2939C21.5278 16.4453 20.4163 15.9586 19.3266 15.9586C18.8924 15.9568 18.4621 16.04 18.0599 16.2035V10.3667C18.4376 10.8403 18.8517 11.2837 19.2985 11.6927C20.2345 12.5562 20.7103 13.5819 20.7025 14.7441V14.7457H22.5745C22.5808 13.0609 21.885 11.5282 20.5629 10.3129C18.9249 8.80597 18.0575 7.09621 18.0575 5.36774H16.1855V19.1035C16.1855 19.2398 16.1928 19.376 16.2074 19.5114C16.3142 20.4724 16.7799 21.4084 17.5186 22.1471C18.3703 22.9949 19.4818 23.4816 20.5707 23.4816C20.9855 23.4884 21.3976 23.4129 21.7832 23.2596C22.1687 23.1063 22.5201 22.8783 22.8171 22.5885C24.1548 21.2501 23.9567 18.875 22.3756 17.2939Z" fill="#FBC471"/>
<path d="M6.11188 29.7739V40.6011C5.70977 40.4372 5.27937 40.354 4.84516 40.3561C3.75317 40.3561 2.64479 40.8421 1.79615 41.6907C0.215093 43.2718 0.0169731 45.6469 1.35545 46.9853C1.65225 47.2751 2.0035 47.5032 2.38893 47.6565C2.77436 47.8098 3.18633 47.8852 3.60107 47.8784C4.69306 47.8784 5.80144 47.3925 6.65008 46.5439C7.38874 45.8052 7.8544 44.8692 7.96126 43.909C7.97625 43.7733 7.98354 43.6369 7.9831 43.5003V35.3883H11.7131V33.5163H7.98388V31.6443H15.4719V40.6011C15.0698 40.4371 14.6394 40.3539 14.2051 40.3561C13.1131 40.3561 12.0048 40.8421 11.1569 41.6907C9.57507 43.2718 9.37696 45.6469 10.7147 46.9853C11.0116 47.2751 11.363 47.5031 11.7486 47.6564C12.1341 47.8097 12.5462 47.8852 12.961 47.8784C14.053 47.8784 15.1622 47.3925 16.0101 46.5439C16.7487 45.8052 17.2144 44.8692 17.3212 43.909C17.3362 43.7733 17.3435 43.6369 17.3431 43.5003V29.7723L6.11188 29.7739Z" fill="#FBC471"/>
<path d="M6.11188 16.2035C5.70966 16.04 5.27934 15.9568 4.84516 15.9586C3.75317 15.9586 2.64479 16.4453 1.79615 17.2939C0.215093 18.875 0.0169732 21.2501 1.35545 22.5885C1.65225 22.8783 2.0035 23.1064 2.38893 23.2597C2.77436 23.413 3.18633 23.4884 3.60107 23.4816C4.69306 23.4816 5.80144 22.9949 6.65008 22.1471C7.38874 21.4084 7.8544 20.4724 7.96126 19.5114C7.97627 19.376 7.98356 19.2398 7.9831 19.1035V5.36774H6.1111L6.11188 16.2035Z" fill="#FBC471"/>
<path d="M10.4518 22.5355C10.4518 22.7206 10.3969 22.9016 10.294 23.0555C10.1912 23.2094 10.045 23.3294 9.87396 23.4002C9.70293 23.4711 9.51473 23.4896 9.33317 23.4535C9.1516 23.4174 8.98482 23.3282 8.85392 23.1973C8.72302 23.0664 8.63387 22.8997 8.59776 22.7181C8.56164 22.5365 8.58018 22.3483 8.65102 22.1773C8.72187 22.0063 8.84184 21.8601 8.99576 21.7572C9.14968 21.6544 9.33065 21.5995 9.51577 21.5995C9.76401 21.5995 10.0021 21.6981 10.1776 21.8736C10.3532 22.0492 10.4518 22.2872 10.4518 22.5355Z" fill="#FBC471"/>
<path d="M81.8084 34.7136C80.1704 33.2067 79.3022 31.4969 79.3022 29.7692H77.4302V40.6003C77.028 40.437 76.5977 40.3541 76.1635 40.3561C75.0715 40.3561 73.9631 40.8421 73.1145 41.6907C71.5335 43.2718 71.3353 45.6469 72.6738 46.9854C72.9706 47.2751 73.3219 47.5032 73.7073 47.6565C74.0927 47.8098 74.5047 47.8852 74.9194 47.8785C76.0114 47.8785 77.1198 47.3925 77.9684 46.5439C78.7071 45.8052 79.1728 44.8692 79.2796 43.909C79.2948 43.7736 79.3024 43.6374 79.3022 43.5011V34.7651C79.68 35.2387 80.0941 35.682 80.5409 36.0911C82.5236 37.9132 82.1048 40.243 81.1446 41.6845L82.7046 42.7227C84.1866 40.5043 84.4806 37.1675 81.8107 34.7129L81.8084 34.7136Z" fill="#FBC471"/>
<path d="M64.1976 6.0097C61.1556 6.0097 59.5176 8.1937 59.5176 10.2529C59.5176 11.2763 59.8382 12.1561 60.4442 12.7988C61.0682 13.4602 61.9348 13.8128 62.9496 13.8128C63.2688 13.8129 63.5827 13.7313 63.8615 13.5759C64.1403 13.4205 64.3747 13.1964 64.5425 12.9248C64.7103 12.6533 64.8059 12.3433 64.8201 12.0245C64.8344 11.7056 64.7669 11.3884 64.624 11.1029C64.4811 10.8175 64.2677 10.5733 64.0039 10.3936C63.74 10.2139 63.4347 10.1047 63.1167 10.0763C62.7988 10.0478 62.4789 10.1012 62.1874 10.2312C61.8959 10.3612 61.6425 10.5636 61.4512 10.8192C61.4093 10.6344 61.3886 10.4455 61.3896 10.256C61.3896 9.07744 62.3545 7.88482 64.1976 7.88482C66.5485 7.88482 68.2536 10.1156 68.2536 13.1888C68.2536 16.1247 66.9705 17.9608 65.8933 18.9842C64.572 20.2392 62.7733 20.9888 61.0776 20.9888V22.8608C63.2725 22.8608 65.4971 21.9427 67.1827 20.3414C69.0804 18.538 70.1256 15.9984 70.1256 13.1888C70.1256 11.1944 69.5304 9.3754 68.4486 8.06812C67.3566 6.74212 65.8426 6.01282 64.1976 6.01282V6.0097Z" fill="#FBC471"/>
<path d="M73.8696 9.75363C73.8696 9.93875 73.8147 10.1197 73.7118 10.2736C73.609 10.4276 73.4628 10.5475 73.2918 10.6184C73.1207 10.6892 72.9326 10.7078 72.751 10.6716C72.5694 10.6355 72.4026 10.5464 72.2717 10.4155C72.1408 10.2846 72.0517 10.1178 72.0156 9.93623C71.9795 9.75466 71.998 9.56647 72.0688 9.39543C72.1397 9.2244 72.2597 9.07822 72.4136 8.97537C72.5675 8.87252 72.7485 8.81763 72.9336 8.81763C73.1818 8.81763 73.4199 8.91624 73.5954 9.09177C73.771 9.26731 73.8696 9.50538 73.8696 9.75363Z" fill="#FBC471"/>
<path d="M73.8696 13.4976C73.8696 13.6828 73.8147 13.8637 73.7118 14.0177C73.609 14.1716 73.4628 14.2915 73.2918 14.3624C73.1207 14.4332 72.9326 14.4518 72.751 14.4157C72.5694 14.3795 72.4026 14.2904 72.2717 14.1595C72.1408 14.0286 72.0517 13.8618 72.0156 13.6802C71.9795 13.4987 71.998 13.3105 72.0688 13.1395C72.1397 12.9684 72.2597 12.8222 72.4136 12.7194C72.5675 12.6165 72.7485 12.5616 72.9336 12.5616C73.1818 12.5616 73.4199 12.6603 73.5954 12.8358C73.771 13.0113 73.8696 13.2494 73.8696 13.4976Z" fill="#FBC471"/>
<path d="M110.104 28.7997C109.528 28.2233 108.73 27.9066 107.857 27.9066C106.765 27.9066 105.657 28.3926 104.809 29.2412C104.07 29.9799 103.604 30.9158 103.498 31.876C103.483 32.0117 103.475 32.1482 103.475 32.2847V40.7017L95.9872 41.9497V37.0537C96.3897 37.2171 96.8203 37.3003 97.2547 37.2986C98.3467 37.2986 99.4551 36.8119 100.303 35.9632C101.885 34.3822 102.082 32.0071 100.744 30.6686C100.169 30.093 99.3709 29.7755 98.498 29.7755C97.406 29.7755 96.2977 30.2622 95.4498 31.1101C94.7111 31.8487 94.2447 32.7847 94.1386 33.7457C94.1234 33.8811 94.1158 34.0173 94.116 34.1536V47.8816L105.348 46.0143V35.1817C105.751 35.3449 106.181 35.4278 106.615 35.4258C107.707 35.4258 108.816 34.9391 109.664 34.0912C111.246 32.5102 111.443 30.1351 110.105 28.7966L110.104 28.7997ZM95.9857 45.6906V43.8233L103.474 42.5753V44.4426L95.9857 45.6906Z" fill="#FBC471"/>
<path d="M87.6225 5.37718V16.2036C87.2203 16.0401 86.79 15.9569 86.3558 15.9586C85.2638 15.9586 84.1554 16.4454 83.3068 17.2932C81.7257 18.8751 81.5276 21.2501 82.8653 22.5886C83.1623 22.8783 83.5137 23.1064 83.8992 23.2597C84.2848 23.413 84.6969 23.4884 85.1117 23.4817C86.2037 23.4817 87.3121 22.995 88.1607 22.1471C88.8994 21.4077 89.365 20.4717 89.4719 19.5115C89.4869 19.3761 89.4942 19.2399 89.4937 19.1036V10.9916H96.9817V16.202C96.5795 16.0385 96.1492 15.9553 95.715 15.9571C94.623 15.9571 93.5146 16.4438 92.666 17.2917C91.0849 18.8735 90.8868 21.2486 92.2245 22.5871C92.5215 22.8768 92.8729 23.1049 93.2584 23.2581C93.644 23.4114 94.0561 23.4869 94.4709 23.4802C95.5629 23.4802 96.6713 22.9934 97.5199 22.1456C98.2586 21.4061 98.7242 20.4701 98.8311 19.51C98.8461 19.3745 98.8534 19.2383 98.8529 19.102V10.99H106.341V16.2004C105.939 16.037 105.508 15.9538 105.074 15.9555C103.982 15.9555 102.874 16.4422 102.025 17.2901C100.444 18.8719 100.246 21.247 101.584 22.5855C101.881 22.8752 102.232 23.1033 102.618 23.2566C103.003 23.4099 103.415 23.4853 103.83 23.4786C104.922 23.4786 106.03 22.9919 106.879 22.144C107.618 21.4046 108.083 20.4686 108.19 19.5084C108.205 19.373 108.213 19.2368 108.212 19.1005V5.3725L87.6225 5.37718ZM89.4945 9.12117V7.24917H96.9825V9.12117H89.4945ZM106.342 9.12117H98.8545V7.24917H106.342V9.12117Z" fill="#FBC471"/>
<path d="M163.308 4.67517V15.5016C162.906 15.338 162.475 15.2548 162.041 15.2566C160.949 15.2566 159.84 15.7434 158.992 16.592C157.411 18.173 157.213 20.5481 158.551 21.8866C158.848 22.1764 159.199 22.4045 159.585 22.5578C159.97 22.7111 160.382 22.7865 160.797 22.7797C161.889 22.7797 162.998 22.293 163.845 21.4451C164.585 20.7065 165.051 19.7705 165.157 18.8095C165.172 18.674 165.179 18.5379 165.179 18.4016V8.10794L172.667 6.85995V13.6319C172.265 13.4684 171.835 13.3852 171.401 13.387C170.309 13.387 169.199 13.8737 168.352 14.7216C166.77 16.3026 166.572 18.6785 167.91 20.0162C168.207 20.3062 168.558 20.5345 168.944 20.688C169.329 20.8414 169.742 20.9169 170.156 20.9101C171.248 20.9101 172.357 20.4233 173.205 19.5747C173.944 18.836 174.41 17.9 174.517 16.9399C174.531 16.8044 174.539 16.6682 174.538 16.5319V2.80396L163.308 4.67517Z" fill="#FBC471"/>
<path d="M210.174 1.36482C209.877 1.07511 209.526 0.847034 209.14 0.693753C208.755 0.540472 208.343 0.465013 207.928 0.471725C206.836 0.471725 205.727 0.958444 204.879 1.8063C204.14 2.54574 203.675 3.48174 203.568 4.44192C203.552 4.57736 203.545 4.71356 203.545 4.84986V15.0764L196.057 16.5389V9.62189C196.459 9.78537 196.89 9.86857 197.324 9.86681C198.416 9.86681 199.524 9.38009 200.372 8.53223C201.954 6.95039 202.152 4.5753 200.814 3.23682C200.517 2.9471 200.166 2.71903 199.78 2.56575C199.395 2.41247 198.983 2.33701 198.568 2.34372C197.476 2.34372 196.367 2.82966 195.519 3.6783C194.78 4.41774 194.315 5.35296 194.208 6.31391C194.193 6.44936 194.185 6.58555 194.185 6.72185V16.9047L186.668 18.3727V11.4853C187.071 11.6485 187.501 11.7315 187.936 11.7294C189.028 11.7294 190.136 11.2435 190.984 10.3949C192.566 8.81381 192.763 6.43871 191.425 5.10024C190.85 4.52382 190.052 4.20714 189.179 4.20714C188.087 4.20714 186.979 4.69386 186.131 5.54172C185.392 6.28037 184.926 7.21637 184.82 8.17733C184.804 8.31277 184.797 8.44897 184.797 8.58527V22.3117L205.418 18.5763V7.74989C205.82 7.91337 206.25 7.99657 206.685 7.99481C207.777 7.99481 208.885 7.50809 209.733 6.66023C211.315 5.0784 211.513 2.7033 210.175 1.36482H210.174Z" fill="#FBC471"/>
<path d="M168.928 32.5827C168.928 31.7138 168.616 30.9096 168.036 30.3324C167.739 30.0424 167.387 29.8141 167.002 29.6607C166.616 29.5073 166.204 29.4317 165.789 29.4385C164.697 29.4385 163.589 29.9253 162.74 30.7731C161.159 32.3549 160.961 34.73 162.3 36.0685C162.596 36.3583 162.948 36.5864 163.333 36.7397C163.718 36.893 164.13 36.9684 164.545 36.9616C165.417 36.9616 166.302 36.6496 167.056 36.0904V46.3185H168.928V32.5827ZM167.045 32.7847C166.986 33.3167 166.703 33.8705 166.271 34.3034C165.778 34.7956 165.133 35.0896 164.545 35.0896C164.282 35.0896 163.909 35.0296 163.623 34.7449C163.025 34.1466 163.227 32.9345 164.065 32.0975C164.557 31.6046 165.201 31.3105 165.789 31.3105C166.053 31.3105 166.427 31.3706 166.712 31.6561C167.071 32.0156 167.075 32.5141 167.045 32.7847Z" fill="#FBC471"/>
<path d="M143.527 16.2035C143.125 16.0399 142.694 15.9567 142.26 15.9586C141.168 15.9586 140.059 16.4453 139.212 17.2939C137.631 18.875 137.432 21.2501 138.77 22.5885C139.067 22.8783 139.419 23.1063 139.804 23.2596C140.19 23.4129 140.602 23.4884 141.017 23.4816C142.109 23.4816 143.217 22.9949 144.066 22.1471C144.804 21.4084 145.27 20.4724 145.377 19.5114C145.391 19.376 145.399 19.2398 145.399 19.1035V5.36774H143.527L143.527 16.2035ZM143.516 19.3047C143.457 19.8367 143.175 20.3897 142.742 20.8234C142.249 21.3156 141.604 21.6096 141.017 21.6096C140.753 21.6096 140.379 21.5496 140.095 21.2649C139.496 20.6666 139.698 19.4545 140.535 18.6176C141.027 18.1246 141.673 17.8313 142.261 17.8313C142.523 17.8313 142.898 17.8906 143.183 18.1761C143.542 18.5349 143.546 19.0341 143.516 19.3047Z" fill="#FBC471"/>
<path d="M147.895 22.5355C147.895 22.7206 147.84 22.9016 147.738 23.0555C147.635 23.2094 147.489 23.3294 147.318 23.4002C147.146 23.4711 146.958 23.4896 146.777 23.4535C146.595 23.4174 146.428 23.3282 146.297 23.1973C146.167 23.0664 146.077 22.8997 146.041 22.7181C146.005 22.5365 146.024 22.3483 146.095 22.1773C146.165 22.0063 146.285 21.8601 146.439 21.7572C146.593 21.6544 146.774 21.5995 146.959 21.5995C147.208 21.5995 147.446 21.6981 147.621 21.8736C147.797 22.0492 147.895 22.2872 147.895 22.5355Z" fill="#FBC471"/>
<path d="M50.9813 17.2939C50.1334 16.4453 49.0219 15.9586 47.9323 15.9586C47.4981 15.9568 47.0678 16.04 46.6655 16.2035V5.36774H44.7936V19.1035C44.7934 19.2398 44.8009 19.376 44.8162 19.5114C44.9223 20.4724 45.3887 21.4084 46.1273 22.1471C46.976 22.9949 48.0875 23.4816 49.1764 23.4816C49.5912 23.4884 50.0033 23.413 50.3889 23.2597C50.7744 23.1064 51.1258 22.8783 51.4228 22.5885C52.7605 21.2501 52.5631 18.875 50.9813 17.2939Z" fill="#FBC471"/>
<path d="M38.0068 5.36774H36.1348V16.2035C35.7319 16.0396 35.3007 15.9564 34.8658 15.9586C33.7738 15.9586 32.6654 16.4453 31.8167 17.2939C30.2357 18.875 30.0376 21.2501 31.3761 22.5885C31.6731 22.8786 32.0248 23.1069 32.4106 23.2602C32.7965 23.4135 33.2089 23.4887 33.624 23.4816C34.716 23.4816 35.8244 22.9949 36.673 22.1471C37.4117 21.4084 37.8773 20.4724 37.9842 19.5114C37.9995 19.376 38.007 19.2398 38.0068 19.1035V5.36774Z" fill="#FBC471"/>
<path d="M128.795 34.1435C128.795 34.0072 128.788 33.8711 128.773 33.7356C128.666 32.7746 128.2 31.8386 127.461 31.1C126.613 30.2521 125.502 29.7654 124.413 29.7654C123.54 29.7654 122.743 30.0821 122.166 30.6585C120.829 31.997 121.026 34.3721 122.608 35.9531C123.456 36.801 124.566 37.2877 125.658 37.2877C126.092 37.2898 126.523 37.2068 126.925 37.0435V47.8785H128.797V34.1435H128.795Z" fill="#FBC471"/>
<path d="M149.105 29.8129C147.467 28.306 146.6 26.5962 146.6 24.8685H144.728V40.6783C144.325 40.5151 143.895 40.4322 143.461 40.4342C142.369 40.4342 141.26 40.9209 140.412 41.7688C138.831 43.3498 138.633 45.7249 139.971 47.0634C140.547 47.6398 141.345 47.9565 142.217 47.9565C143.309 47.9565 144.417 47.4698 145.266 46.6219C146.005 45.8832 146.47 44.9473 146.577 43.9863C146.592 43.8508 146.599 43.7146 146.599 43.5784V34.8424C146.977 35.3159 147.391 35.7593 147.838 36.1684C149.82 37.9912 149.402 40.3203 148.441 41.7617L150.001 42.7999C151.11 41.1354 151.555 38.8406 150.579 36.7612C151.502 34.6287 151.377 31.9026 149.107 29.8153L149.105 29.8129ZM146.601 29.8683C146.978 30.3419 147.392 30.7853 147.838 31.1943C149.081 32.337 149.38 33.6778 149.194 34.8744C149.165 34.8463 149.136 34.819 149.105 34.7909C147.474 33.291 146.609 31.5929 146.601 29.8714V29.8683Z" fill="#FBC471"/>
<path d="M126.786 17.3712C125.938 16.5233 124.827 16.0366 123.737 16.0366C123.303 16.0348 122.873 16.118 122.471 16.2815V10.4448C122.848 10.9184 123.262 11.3617 123.709 11.7708C124.645 12.6343 125.121 13.66 125.113 14.8222V14.8237H126.985C126.991 13.9734 126.807 13.1325 126.445 12.3628C127.369 10.2295 127.245 7.50421 124.974 5.41615C123.336 3.90919 122.468 2.19944 122.468 0.471741H120.596V19.1816C120.596 19.3178 120.603 19.454 120.618 19.5895C120.725 20.5505 121.191 21.4857 121.929 22.2251C122.778 23.073 123.889 23.5597 124.978 23.5597C125.393 23.5664 125.805 23.4909 126.191 23.3377C126.576 23.1844 126.928 22.9563 127.225 22.6666C128.562 21.3281 128.364 18.953 126.783 17.3712H126.786ZM123.708 6.79441C124.949 7.93633 125.249 9.27714 125.063 10.4744L124.974 10.3902C123.343 8.89104 122.478 7.19221 122.469 5.47075C122.847 5.94415 123.261 6.38748 123.708 6.79675V6.79441Z" fill="#FBC471"/>
<path d="M40.9061 29.7739V40.6003C40.5038 40.4371 40.0735 40.3541 39.6393 40.3561C38.5473 40.3561 37.439 40.8421 36.5903 41.6907C35.0093 43.2718 34.8111 45.6469 36.1488 46.9854C36.7253 47.5618 37.5232 47.8785 38.3952 47.8785C39.4872 47.8785 40.5956 47.3917 41.4443 46.5439C42.1829 45.8052 42.6486 44.8692 42.7554 43.9083C42.7704 43.7728 42.7777 43.6366 42.7773 43.5003V35.3883H50.2653V40.5987C49.863 40.4355 49.4327 40.3526 48.9985 40.3546C47.9065 40.3546 46.7982 40.8405 45.9495 41.6892C44.3685 43.2702 44.1703 45.6453 45.508 46.9838C46.0845 47.5602 46.8824 47.8769 47.7544 47.8769C48.8464 47.8769 49.9548 47.3902 50.8035 46.5423C51.5421 45.8037 52.0078 44.8677 52.1146 43.9067C52.1296 43.7712 52.1369 43.635 52.1365 43.4988V31.6428H59.6245V40.5972C59.2222 40.434 58.7919 40.351 58.3577 40.353C57.2657 40.353 56.1574 40.839 55.3087 41.6876C53.7277 43.2687 53.5295 45.6438 54.8672 46.9822C55.4437 47.5587 56.2416 47.8753 57.1136 47.8753C58.2056 47.8753 59.314 47.3886 60.1627 46.5408C60.9013 45.8021 61.367 44.8661 61.4738 43.9051C61.4888 43.7697 61.4961 43.6335 61.4957 43.4972V29.7692L40.9061 29.7739ZM50.266 33.5179H42.778V31.6459H50.266V33.5179Z" fill="#FBC471"/>
<path d="M189.951 41.5699C190.689 40.8304 191.156 39.8944 191.262 38.9342C191.277 38.7988 191.285 38.6626 191.284 38.5263V24.7905H189.412V35.6263C189.01 35.4627 188.579 35.3795 188.145 35.3813C187.053 35.3813 185.944 35.8681 185.097 36.7159C183.515 38.2978 183.317 40.6729 184.655 42.0113C184.952 42.3011 185.303 42.5292 185.689 42.6825C186.075 42.8358 186.487 42.9112 186.902 42.9044C187.994 42.9044 189.102 42.4177 189.95 41.5699H189.951Z" fill="#FBC471"/>
<path d="M203.141 24.7905H201.269V35.6263C200.867 35.4627 200.436 35.3795 200.002 35.3813C198.91 35.3813 197.801 35.8681 196.953 36.7159C195.372 38.2978 195.173 40.6729 196.512 42.0113C196.809 42.3011 197.16 42.5292 197.546 42.6825C197.931 42.8358 198.343 42.9112 198.758 42.9044C199.85 42.9044 200.959 42.4177 201.807 41.5699C202.545 40.8304 203.012 39.8944 203.118 38.9342C203.133 38.7988 203.141 38.6626 203.14 38.5263L203.141 24.7905Z" fill="#FBC471"/>
<path d="M196.955 47.7397C195.892 48.6362 194.547 49.128 193.157 49.128C191.766 49.128 190.421 48.6362 189.359 47.7397C188.401 46.9082 187.853 45.8224 187.853 44.7601H185.981C185.981 46.3645 186.761 47.9651 188.131 49.1522C189.534 50.3451 191.315 51 193.157 51C194.999 51 196.78 50.3451 198.183 49.1522C199.549 47.9651 200.333 46.3645 200.333 44.7601H198.461C198.461 45.8224 197.915 46.9082 196.955 47.7397Z" fill="#FBC471"/>
</svg>
