<svg width="16" height="38" viewBox="0 0 16 38" fill="none" xmlns="http://www.w3.org/2000/svg">
<path d="M13.7269 18.8452C12.6415 17.7896 11.182 17.2072 9.66812 17.2255C9.60441 17.2255 9.54179 17.2255 9.47916 17.2255C9.06993 15.5897 8.68446 14.2454 8.42208 13.374C8.31411 13.0113 8.20613 12.6593 8.11543 12.3213C9.3172 11.0061 10.3937 9.74284 10.9919 8.46873C12.6871 4.85695 11.9162 2.70716 11.3061 1.74618C10.9694 1.2062 10.4995 0.761946 9.94144 0.456165C9.38339 0.150384 8.75604 -0.00663515 8.11975 0.000214897C6.92014 0.000214897 5.92893 0.478546 5.25624 1.3823C3.9357 3.15634 3.92491 6.43771 5.24545 11.6162C2.72098 14.3609 0 17.4706 0 21.3405C0 25.4284 2.23833 27.4335 4.1171 28.3967C5.35484 29.0157 6.70573 29.3762 8.08736 29.4559H8.11975C8.38537 29.4559 8.64775 29.4451 8.90689 29.4235L8.91553 29.552C9.03106 31.2137 9.13148 32.6487 8.91553 33.9013C8.71146 35.0955 7.9038 35.4561 7.2743 35.4032C7.00868 35.3805 6.39214 35.252 6.39214 34.5523H3.80073C3.80073 36.3814 5.16878 37.8251 7.05403 37.986C7.16849 37.9957 7.28402 38 7.39847 38C8.26818 38.0007 9.1145 37.7183 9.80957 37.1956C10.6885 36.5358 11.2629 35.5479 11.4702 34.3396C11.7369 32.7794 11.6279 31.2008 11.5005 29.3728L11.4735 28.9765C11.4735 28.9214 11.4659 28.8685 11.4616 28.8113C12.0432 28.5689 12.5883 28.247 13.0812 27.8546C14.5799 26.6561 15.3714 24.9393 15.3714 22.8878C15.3798 22.1376 15.2383 21.3932 14.9552 20.6985C14.6721 20.0037 14.253 19.3725 13.7226 18.8419L13.7269 18.8452ZM7.33477 2.93067C7.46542 2.75467 7.65114 2.59162 8.11975 2.59162C8.31966 2.58646 8.51739 2.63416 8.69295 2.7299C8.86851 2.82565 9.01569 2.96604 9.1196 3.1369C9.32368 3.46083 9.89163 4.71226 8.64559 7.36846C8.37133 7.95152 7.9146 8.5875 7.35744 9.26019C6.43533 4.86559 6.98925 3.39496 7.33477 2.93067ZM8.14458 26.8645C7.12839 26.7925 6.13701 26.5171 5.22925 26.0547C3.45521 25.1164 2.59141 23.5745 2.59141 21.3405C2.59141 18.9272 4.24343 16.6489 6.07362 14.5661C6.3252 15.4245 6.65344 16.6047 7.00005 17.9954C5.8825 18.7804 5.35558 20.0599 5.35558 21.2789C5.35558 22.2604 5.75401 23.0994 6.47852 23.6393C7.01597 24.0214 7.64948 24.2458 8.30763 24.2871C8.44476 25.1272 8.56785 25.9823 8.67043 26.8407C8.49335 26.8559 8.31735 26.8634 8.14458 26.8634V26.8645ZM11.1809 26.0309C10.9044 23.8714 10.5092 21.7486 10.0925 19.8429C11.6754 20.0286 12.7843 21.253 12.7843 22.891C12.7843 24.4027 12.1192 25.4079 11.1809 26.0309Z" fill="#191525"/>
</svg>
