<svg width="204" height="60" viewBox="0 0 204 60" fill="none" xmlns="http://www.w3.org/2000/svg">
<g clip-path="url(#clip0)">
<path d="M51.4525 29.2331C51.4525 29.1898 51.4525 29.1681 51.474 29.1681C51.7542 29.1681 51.9481 29.1465 52.0775 29.1032C52.2068 29.0598 52.293 28.9949 52.3361 28.865C52.3792 28.7567 52.4007 28.5835 52.4007 28.3453V22.9105C52.4007 22.6723 52.3792 22.4991 52.3361 22.3908C52.293 22.2826 52.2068 22.1959 52.0775 22.1526C51.9481 22.1093 51.7542 22.0877 51.474 22.0877C51.4525 22.0877 51.4525 22.066 51.4525 22.0227C51.4525 21.9794 51.4525 21.9578 51.474 21.9578L52.099 21.9794C52.4654 22.0011 52.7456 22.0011 52.9611 22.0011C53.2197 22.0011 53.543 22.0011 53.9309 21.9794L54.5775 21.9578C54.599 21.9578 54.6206 21.9794 54.6206 22.0227C54.6206 22.066 54.599 22.0877 54.5775 22.0877C54.3188 22.0877 54.1249 22.1093 53.9956 22.1526C53.8662 22.1959 53.78 22.2826 53.7369 22.3908C53.6938 22.4991 53.6723 22.6723 53.6723 22.9105V28.3237C53.6723 28.5835 53.6723 28.7567 53.6938 28.8433C53.7154 28.9299 53.7585 28.9949 53.8231 29.0165C53.8878 29.0382 54.0387 29.0598 54.2542 29.0598H56.0214C56.2369 29.0598 56.3878 29.0382 56.474 29.0165C56.5602 28.9949 56.6033 28.9299 56.6249 28.8433C56.6464 28.7567 56.668 28.5835 56.668 28.3453V22.9321C56.668 22.694 56.6464 22.5207 56.6033 22.4125C56.5602 22.3042 56.474 22.2176 56.3447 22.1743C56.2154 22.131 56.0214 22.1093 55.7628 22.1093C55.7412 22.1093 55.7197 22.0877 55.7197 22.0444C55.7197 22.0011 55.7412 21.9794 55.7628 21.9794C56.1507 22.0011 56.6895 22.0227 57.3361 22.0227C57.5516 22.0227 57.8533 22.0227 58.2197 22.0011L58.8878 21.9794C58.9094 21.9794 58.9094 22.0011 58.9094 22.0444C58.9094 22.0877 58.9094 22.1093 58.8878 22.1093C58.6076 22.1093 58.4137 22.131 58.2843 22.1743C58.155 22.2176 58.0688 22.3042 58.0257 22.4125C57.9826 22.5207 57.9611 22.694 57.9611 22.9321V28.3453C57.9611 28.6051 57.9611 28.7784 57.9826 28.865C58.0042 28.9516 58.0473 29.0165 58.1119 29.0382C58.1766 29.0598 58.3275 29.0815 58.543 29.0815H60.3102C60.5257 29.0815 60.6981 29.0598 60.7628 29.0382C60.849 29.0165 60.8921 28.9516 60.9137 28.865C60.9352 28.7784 60.9568 28.6051 60.9568 28.3453V22.9321C60.9568 22.694 60.9352 22.5207 60.8921 22.4125C60.849 22.3042 60.7628 22.2176 60.6335 22.1743C60.5042 22.131 60.3102 22.1093 60.0516 22.1093C60.03 22.1093 60.03 22.0877 60.03 22.0444C60.03 22.0011 60.03 21.9794 60.0516 21.9794L60.7197 22.0011C61.1076 22.0227 61.4309 22.0227 61.6895 22.0227C61.905 22.0227 62.2068 22.0227 62.5516 22.0011L63.1766 21.9794C63.1981 21.9794 63.2197 22.0011 63.2197 22.0444C63.2197 22.0877 63.1981 22.1093 63.1766 22.1093C62.918 22.1093 62.724 22.131 62.5947 22.1743C62.4654 22.2176 62.3792 22.3042 62.3361 22.4125C62.293 22.5207 62.2714 22.694 62.2714 22.9321V28.367C62.2714 28.5835 62.293 28.7567 62.3576 28.8866C62.4007 28.9949 62.4869 29.0815 62.6162 29.1248C62.7456 29.1681 62.9395 29.1898 63.1981 29.1898C63.2197 29.1898 63.2412 29.2114 63.2412 29.2547C63.2412 29.298 63.2197 29.3197 63.1981 29.3197H51.4525C51.474 29.298 51.4525 29.2764 51.4525 29.2331Z" fill="white"/>
<path d="M72.142 29.2331C72.142 29.2764 72.1205 29.2981 72.0989 29.2981H70.3101C70.2024 29.2981 70.1162 29.2764 70.0299 29.2115C69.9437 29.1465 69.8144 28.9949 69.5989 28.7135C69.4049 28.4536 69.0601 27.9773 68.6075 27.3277L68.2843 26.873C68.0041 26.4832 67.8101 26.2017 67.6808 26.0285C67.5515 25.8769 67.4006 25.747 67.2713 25.6821C67.1205 25.6171 66.9481 25.5738 66.711 25.5738V28.3237C66.711 28.5619 66.7325 28.7351 66.7756 28.8434C66.8187 28.9516 66.9049 29.0382 67.0343 29.0815C67.1636 29.1249 67.3575 29.1465 67.6162 29.1465C67.6377 29.1465 67.6593 29.1682 67.6593 29.2115C67.6593 29.2548 67.6377 29.2764 67.6162 29.2764C67.336 29.2764 67.1205 29.2764 66.9696 29.2548L65.9998 29.2331L65.1377 29.2548C64.9868 29.2548 64.7713 29.2764 64.5127 29.2764C64.4912 29.2764 64.4696 29.2548 64.4696 29.2115C64.4696 29.1682 64.4912 29.1465 64.5127 29.1465C64.7713 29.1465 64.9653 29.1249 65.0946 29.0815C65.2239 29.0382 65.3101 28.9733 65.3532 28.8434C65.3963 28.7351 65.4179 28.5619 65.4179 28.3237V22.8889C65.4179 22.6507 65.3963 22.4775 65.3532 22.3692C65.3101 22.2609 65.2239 22.1743 65.0946 22.131C64.9653 22.0877 64.7713 22.0661 64.5127 22.0661C64.4912 22.0661 64.4696 22.0444 64.4696 22.0011C64.4696 21.9578 64.4912 21.9362 64.5127 21.9362L65.1377 21.9578C65.5041 21.9795 65.7843 21.9795 65.9998 21.9795C66.2584 21.9795 66.5817 21.9795 66.9912 21.9578L67.6377 21.9362C67.6593 21.9362 67.6808 21.9578 67.6808 22.0011C67.6808 22.0444 67.6593 22.0661 67.6377 22.0661C67.3791 22.0661 67.1851 22.0877 67.0558 22.131C66.9265 22.1743 66.8403 22.2609 66.7972 22.3692C66.7541 22.4775 66.7325 22.6507 66.7325 22.8889V25.4006C66.9481 25.4006 67.2067 25.3789 67.53 25.3789L68.7584 23.69C69.0817 23.2353 69.2325 22.8672 69.2325 22.5641C69.2325 22.4125 69.1894 22.3043 69.1032 22.2176C69.017 22.131 68.9093 22.0877 68.7584 22.0877C68.7368 22.0877 68.7368 22.0661 68.7368 22.0228C68.7368 21.9795 68.7368 21.9578 68.7584 21.9578L69.2972 21.9795C69.642 22.0011 69.9437 22.0011 70.2024 22.0011C70.5041 22.0011 70.8274 22.0011 71.1506 21.9795L71.6463 21.9578C71.6679 21.9578 71.6894 21.9795 71.6894 22.0228C71.6894 22.0661 71.6679 22.0877 71.6463 22.0877C71.3015 22.0877 70.9136 22.2176 70.4825 22.4558C70.0515 22.7157 69.6851 23.0188 69.4049 23.3869L67.8101 25.3789C68.1118 25.4006 68.3705 25.4439 68.5644 25.5522C68.7584 25.6604 68.9524 25.812 69.1463 26.0069C69.3403 26.2234 69.5989 26.5698 69.9653 27.0678L70.1808 27.371C70.5041 27.8257 70.7627 28.1721 70.9567 28.3887C71.1291 28.6052 71.3231 28.8001 71.517 28.93C71.711 29.0599 71.9265 29.1249 72.142 29.1465C72.1205 29.1465 72.142 29.1898 72.142 29.2331Z" fill="white"/>
<path d="M74.5343 28.9295C73.9739 28.583 73.5429 28.1283 73.2196 27.5437C72.9179 26.9591 72.767 26.3312 72.767 25.6383C72.767 24.8371 72.961 24.1442 73.3705 23.5596C73.78 22.975 74.2972 22.5419 74.9222 22.2604C75.5472 21.979 76.2153 21.8274 76.8619 21.8274C77.5946 21.8274 78.2412 22.0006 78.8231 22.3471C79.3834 22.6935 79.8144 23.1482 80.1162 23.7328C80.4179 24.2958 80.5688 24.9021 80.5688 25.5517C80.5688 26.2662 80.3748 26.9158 80.0084 27.522C79.642 28.1067 79.1248 28.583 78.4998 28.9295C77.8748 29.2759 77.1851 29.4491 76.4524 29.4491C75.7412 29.4275 75.0946 29.2759 74.5343 28.9295ZM78.0257 28.7563C78.3705 28.4964 78.6507 28.1283 78.8446 27.652C79.0386 27.154 79.1463 26.5693 79.1463 25.8981C79.1463 25.1836 79.0386 24.534 78.8231 23.971C78.6076 23.408 78.2843 22.9533 77.8748 22.6285C77.4653 22.3038 76.9696 22.1522 76.4308 22.1522C75.7196 22.1522 75.1808 22.412 74.7929 22.9533C74.405 23.4946 74.211 24.2308 74.211 25.2052C74.211 25.9631 74.3188 26.6343 74.5558 27.2406C74.7929 27.8468 75.0946 28.3015 75.5041 28.648C75.9136 28.9944 76.3662 29.146 76.8619 29.146C77.2929 29.146 77.6808 29.0161 78.0257 28.7563Z" fill="white"/>
<path d="M81.4739 29.2764C81.3446 29.1681 81.28 29.0165 81.28 28.8217C81.28 28.6268 81.3446 28.4969 81.4524 28.4103C81.5601 28.3237 81.711 28.2803 81.8834 28.2803H82.1205C82.5515 28.2803 82.8963 28.0205 83.1981 27.5009C83.4998 26.9812 83.7153 26.3316 83.8662 25.5521C84.017 24.7726 84.0817 23.9715 84.0817 23.192C84.0817 22.7806 83.9955 22.4991 83.8446 22.3259C83.6938 22.1526 83.392 22.0877 82.9395 22.0877C82.9179 22.0877 82.8963 22.066 82.8963 22.0227C82.8963 21.9794 82.9179 21.9578 82.9395 21.9578H88.8446C88.8662 21.9578 88.8662 21.9794 88.8662 22.0227C88.8662 22.066 88.8662 22.0877 88.8446 22.0877C88.586 22.0877 88.392 22.1093 88.2627 22.1526C88.1334 22.1959 88.0472 22.2826 88.0041 22.3908C87.961 22.4991 87.9394 22.6723 87.9394 22.9105V28.3453C87.9394 28.5835 87.961 28.7567 88.0041 28.865C88.0472 28.9732 88.1334 29.0598 88.2627 29.1032C88.392 29.1465 88.586 29.1681 88.8662 29.1681C88.8877 29.1681 88.8877 29.1898 88.8877 29.2331C88.8877 29.2764 88.8877 29.298 88.8662 29.298C88.6076 29.298 88.392 29.298 88.2412 29.2764L87.3791 29.2547L86.4308 29.2764C86.28 29.2764 86.0429 29.298 85.7627 29.298C85.7412 29.298 85.7412 29.2764 85.7412 29.2331C85.7412 29.1898 85.7412 29.1681 85.7627 29.1681C86.0429 29.1681 86.2369 29.1465 86.3446 29.1032C86.4739 29.0598 86.5386 28.9949 86.5817 28.8866C86.6248 28.7784 86.6463 28.6051 86.6463 28.367V23.0837C86.6463 22.8239 86.6463 22.6506 86.6248 22.564C86.6032 22.4774 86.5601 22.4125 86.4955 22.3908C86.4308 22.3692 86.28 22.3475 86.0645 22.3475H85.2886C85.0515 22.3475 84.8791 22.3692 84.7713 22.4125C84.6636 22.4558 84.5774 22.5424 84.5127 22.6506C84.4696 22.7806 84.4265 22.9754 84.4265 23.2353C84.4265 24.0581 84.3619 24.9458 84.2326 25.8986C84.1032 26.8513 83.8446 27.6741 83.4782 28.3886C83.1119 29.1032 82.6162 29.4712 81.9912 29.4712C81.7757 29.4279 81.6032 29.3846 81.4739 29.2764Z" fill="white"/>
<path d="M98.2628 29.233C98.2628 29.2763 98.2412 29.298 98.1981 29.298C98.0473 29.298 97.8102 29.298 97.4654 29.2763C97.1205 29.2547 96.8835 29.2547 96.7326 29.2547C96.5387 29.2547 96.3016 29.2547 96.0214 29.2763C95.7628 29.298 95.5473 29.298 95.3964 29.298C95.3749 29.298 95.3533 29.2763 95.3533 29.233C95.3533 29.1897 95.3749 29.168 95.3964 29.168C95.5904 29.168 95.7412 29.1464 95.8275 29.1031C95.9137 29.0598 95.9568 28.9732 95.9568 28.8649C95.9568 28.735 95.8706 28.5185 95.7197 28.1937L94.5128 25.7902H92.4438L91.6249 27.6307C91.5171 27.8472 91.474 28.0638 91.474 28.2586C91.474 28.5401 91.5818 28.7566 91.7757 28.9082C91.9697 29.0598 92.2499 29.1464 92.5731 29.1464C92.6163 29.1464 92.6378 29.168 92.6378 29.2114C92.6378 29.2547 92.6163 29.2763 92.5731 29.2763C92.4223 29.2763 92.2283 29.2763 91.9697 29.2547C91.668 29.233 91.4094 29.233 91.1938 29.233C90.9783 29.233 90.7197 29.233 90.4395 29.2547C90.1809 29.2763 89.9654 29.2763 89.793 29.2763C89.7714 29.2763 89.7499 29.2547 89.7499 29.2114C89.7499 29.168 89.7714 29.1464 89.793 29.1464C90.0085 29.1464 90.2025 29.1031 90.3318 29.0165C90.4826 28.9299 90.6335 28.7566 90.7844 28.5401C90.9352 28.3019 91.1076 27.9772 91.3016 27.5224L93.8447 21.9144C93.8662 21.8927 93.8878 21.8711 93.9525 21.8711C94.0171 21.8711 94.0602 21.8927 94.0602 21.9144L96.9912 27.6957C97.2714 28.2586 97.4869 28.6267 97.6593 28.8433C97.8318 29.0598 98.0257 29.168 98.2197 29.168C98.2412 29.1464 98.2628 29.1897 98.2628 29.233ZM92.5947 25.4654H94.3619L93.4352 23.6033L92.5947 25.4654Z" fill="white"/>
<path d="M108.133 21.9144C108.5 21.9794 108.802 22.0443 109.017 22.1526C109.082 22.1743 109.125 22.1959 109.146 22.2392C109.168 22.2825 109.189 22.3258 109.189 22.4124L109.34 24.0364C109.34 24.058 109.319 24.0797 109.276 24.0797C109.233 24.0797 109.211 24.0797 109.211 24.0364C108.952 23.4085 108.586 22.9321 108.155 22.6073C107.702 22.2609 107.207 22.1093 106.603 22.1093C105.827 22.1093 105.245 22.3908 104.814 22.9754C104.383 23.5384 104.189 24.3179 104.189 25.2706C104.189 25.9851 104.297 26.6564 104.534 27.241C104.771 27.8256 105.095 28.302 105.504 28.6484C105.914 28.9949 106.388 29.1681 106.927 29.1681C107.422 29.1681 107.875 28.9949 108.263 28.6701C108.651 28.3453 109.017 27.8256 109.319 27.1544C109.319 27.1327 109.362 27.1111 109.405 27.1111C109.448 27.1111 109.47 27.1327 109.47 27.1544L109.297 28.7567C109.276 28.8433 109.254 28.9083 109.254 28.9299C109.233 28.9516 109.189 28.9949 109.125 29.0165C108.435 29.2764 107.724 29.4063 106.991 29.4063C106.043 29.4063 105.245 29.2114 104.599 28.8433C103.952 28.4535 103.5 27.9772 103.198 27.3926C102.896 26.8079 102.745 26.2017 102.745 25.5737C102.745 24.8375 102.939 24.1663 103.349 23.6033C103.758 23.0404 104.276 22.5857 104.944 22.2825C105.612 21.9794 106.323 21.8062 107.077 21.8062C107.401 21.8278 107.767 21.8711 108.133 21.9144Z" fill="white"/>
<path d="M112.918 28.9295C112.358 28.583 111.927 28.1283 111.603 27.5437C111.302 26.9591 111.151 26.3312 111.151 25.6383C111.151 24.8371 111.345 24.1442 111.754 23.5596C112.164 22.975 112.681 22.5419 113.306 22.2604C113.931 21.979 114.599 21.8274 115.246 21.8274C115.978 21.8274 116.625 22.0006 117.207 22.3471C117.789 22.6935 118.198 23.1482 118.5 23.7328C118.802 24.2958 118.952 24.9021 118.952 25.5517C118.952 26.2662 118.758 26.9158 118.392 27.522C118.026 28.1067 117.508 28.583 116.883 28.9295C116.258 29.2759 115.569 29.4491 114.836 29.4491C114.125 29.4275 113.478 29.2759 112.918 28.9295ZM116.409 28.7563C116.754 28.4964 117.034 28.1283 117.228 27.652C117.422 27.154 117.53 26.5693 117.53 25.8981C117.53 25.1836 117.422 24.534 117.207 23.971C116.991 23.408 116.668 22.9533 116.258 22.6285C115.849 22.3038 115.353 22.1522 114.814 22.1522C114.103 22.1522 113.564 22.412 113.177 22.9533C112.789 23.4946 112.595 24.2308 112.595 25.2052C112.595 25.9631 112.702 26.6343 112.939 27.2406C113.177 27.8468 113.478 28.3015 113.888 28.648C114.297 28.9944 114.75 29.146 115.246 29.146C115.677 29.146 116.064 29.0161 116.409 28.7563Z" fill="white"/>
<path d="M125.892 25.8336C126.28 26.2017 126.474 26.6348 126.474 27.1761C126.474 27.5875 126.366 27.9556 126.129 28.2804C125.892 28.6052 125.569 28.865 125.159 29.0599C124.75 29.2548 124.297 29.3414 123.78 29.3414C123.565 29.3414 123.306 29.3197 123.026 29.2981C122.918 29.2981 122.789 29.2764 122.616 29.2764C122.465 29.2764 122.271 29.2548 122.078 29.2548L121.215 29.2764C121.065 29.2764 120.849 29.2981 120.59 29.2981C120.569 29.2981 120.547 29.2764 120.547 29.2331C120.547 29.1898 120.569 29.1682 120.59 29.1682C120.806 29.1682 120.978 29.1465 121.108 29.1032C121.215 29.0599 121.302 28.9733 121.366 28.865C121.409 28.7568 121.453 28.5835 121.453 28.3454V22.9105C121.453 22.5857 121.388 22.3692 121.28 22.2609C121.172 22.1527 120.957 22.1094 120.612 22.1094C120.59 22.1094 120.59 22.0877 120.59 22.0444C120.59 22.0011 120.59 21.9795 120.612 21.9795L121.237 22.0011C121.603 22.0228 121.884 22.0228 122.099 22.0228C122.315 22.0228 122.552 22.0011 122.767 21.9795C122.853 21.9795 122.961 21.9578 123.112 21.9578C123.263 21.9578 123.414 21.9362 123.521 21.9362C124.233 21.9362 124.771 22.0661 125.159 22.3259C125.547 22.5857 125.741 22.9538 125.741 23.4518C125.741 23.8199 125.612 24.1664 125.375 24.4695C125.138 24.7727 124.771 25.0108 124.319 25.1841C124.987 25.249 125.504 25.4655 125.892 25.8336ZM122.875 22.3476C122.789 22.4558 122.746 22.6507 122.746 22.9322V25.1624L123.22 25.1841C123.629 25.1841 123.931 25.0325 124.146 24.7294C124.362 24.4262 124.47 24.0365 124.47 23.5601C124.47 23.1054 124.362 22.7806 124.168 22.5424C123.974 22.3043 123.694 22.196 123.328 22.196C123.134 22.1743 122.961 22.2393 122.875 22.3476ZM125.095 27.4576C125.095 26.8513 124.944 26.375 124.664 26.0285C124.384 25.6821 123.931 25.5089 123.349 25.5089C123.134 25.5089 122.918 25.5089 122.746 25.5305V28.367C122.746 28.6268 122.789 28.8001 122.896 28.9083C123.004 29.0166 123.22 29.0599 123.565 29.0599C124.599 29.0599 125.095 28.5186 125.095 27.4576Z" fill="white"/>
<path d="M130.289 28.8433C130.353 28.9516 130.439 29.0382 130.59 29.0815C130.741 29.1248 130.978 29.1465 131.323 29.1465C131.345 29.1465 131.366 29.1681 131.366 29.2114C131.366 29.2547 131.345 29.2764 131.323 29.2764C131 29.2764 130.763 29.2764 130.569 29.2547L129.556 29.2331L128.694 29.2547C128.543 29.2547 128.327 29.2764 128.069 29.2764C128.047 29.2764 128.026 29.2547 128.026 29.2114C128.026 29.1681 128.047 29.1465 128.069 29.1465C128.327 29.1465 128.5 29.1248 128.608 29.0815C128.715 29.0382 128.801 28.9732 128.845 28.8433C128.888 28.7351 128.909 28.5618 128.909 28.3237V22.8888C128.909 22.6507 128.888 22.4774 128.845 22.3692C128.801 22.2609 128.737 22.1743 128.608 22.131C128.5 22.0877 128.306 22.066 128.069 22.066C128.047 22.066 128.026 22.0444 128.026 22.0011C128.026 21.9578 128.047 21.9361 128.069 21.9361L128.694 21.9578C129.06 21.9794 129.34 21.9794 129.556 21.9794C129.75 21.9794 129.965 21.9578 130.224 21.9361C130.332 21.9361 130.461 21.9145 130.612 21.9145C130.763 21.9145 130.957 21.8928 131.151 21.8928C131.948 21.8928 132.573 22.066 133.026 22.3908C133.478 22.7156 133.715 23.2353 133.715 23.9282C133.715 24.4045 133.586 24.8159 133.349 25.1624C133.09 25.5088 132.789 25.747 132.379 25.9202C131.991 26.0934 131.582 26.1801 131.172 26.1801C130.957 26.1801 130.784 26.1584 130.633 26.1151C130.612 26.1151 130.612 26.0934 130.612 26.0501C130.612 26.0285 130.612 26.0068 130.633 25.9852C130.655 25.9635 130.655 25.9635 130.676 25.9635C130.784 25.9852 130.935 26.0068 131.064 26.0068C131.431 26.0068 131.711 25.8336 131.948 25.5088C132.185 25.1624 132.314 24.686 132.314 24.0797C132.314 23.4518 132.185 22.9755 131.926 22.6507C131.668 22.3042 131.28 22.1527 130.784 22.1527C130.569 22.1527 130.418 22.196 130.332 22.3042C130.245 22.4125 130.224 22.6074 130.224 22.9105V28.2804C130.202 28.5402 130.245 28.7351 130.289 28.8433Z" fill="white"/>
<path d="M140.59 27.4142C140.612 27.4142 140.633 27.4142 140.655 27.4359C140.677 27.4575 140.677 27.4575 140.677 27.4575C140.59 28.0638 140.569 28.6268 140.569 29.1248C140.569 29.1898 140.547 29.2331 140.526 29.2547C140.504 29.2764 140.461 29.298 140.375 29.298H135.202C135.181 29.298 135.159 29.2764 135.159 29.2331C135.159 29.1898 135.181 29.1681 135.202 29.1681C135.461 29.1681 135.633 29.1465 135.741 29.1031C135.849 29.0598 135.935 28.9949 135.978 28.865C136.021 28.7567 136.043 28.5835 136.043 28.3453V22.9105C136.043 22.6723 136.021 22.4991 135.978 22.3908C135.935 22.2826 135.871 22.1959 135.741 22.1526C135.633 22.1093 135.439 22.0877 135.202 22.0877C135.181 22.0877 135.159 22.066 135.159 22.0227C135.159 21.9794 135.181 21.9578 135.202 21.9578H140.159C140.246 21.9578 140.267 22.0011 140.267 22.066L140.289 23.625C140.289 23.6467 140.267 23.6467 140.224 23.6683C140.181 23.6683 140.159 23.6683 140.138 23.6467C140.008 23.192 139.793 22.8672 139.513 22.629C139.211 22.4125 138.823 22.3042 138.349 22.3042H138.004C137.767 22.3042 137.595 22.3475 137.487 22.4558C137.379 22.564 137.314 22.7156 137.314 22.9321V25.3356H138.284C138.737 25.3356 139.082 25.249 139.319 25.0974C139.556 24.9458 139.685 24.7293 139.685 24.4478C139.685 24.4262 139.707 24.4045 139.75 24.4045C139.793 24.4045 139.814 24.4262 139.814 24.4478L139.793 25.5088L139.814 26.0718C139.836 26.3316 139.836 26.5481 139.836 26.6997C139.836 26.7214 139.814 26.7214 139.771 26.7214C139.728 26.7214 139.707 26.7214 139.707 26.6997C139.707 26.3749 139.577 26.1367 139.34 25.9419C139.103 25.7686 138.737 25.6604 138.284 25.6604H137.336V28.3237C137.336 28.5402 137.379 28.7134 137.465 28.8217C137.552 28.9299 137.681 28.9949 137.875 28.9949H138.263C138.866 28.9949 139.362 28.865 139.728 28.6268C140.095 28.367 140.353 27.9989 140.526 27.4575C140.547 27.4142 140.569 27.4142 140.59 27.4142Z" fill="white"/>
<path d="M151.56 29.2331C151.56 29.2764 151.56 29.298 151.539 29.298C151.28 29.298 151.064 29.298 150.914 29.2764L150.052 29.2547L149.168 29.2764C149.017 29.2764 148.823 29.298 148.565 29.298C148.543 29.298 148.521 29.2764 148.521 29.2331C148.521 29.1898 148.543 29.1681 148.565 29.1681C148.888 29.1681 149.103 29.1248 149.233 29.0599C149.34 28.9733 149.405 28.8217 149.405 28.5619L149.383 28.367L149.146 23.5601L146.733 29.2331C146.711 29.2547 146.69 29.2764 146.646 29.2764C146.603 29.2764 146.56 29.2547 146.56 29.2331L143.608 23.5817L143.521 27.8257C143.521 28.2587 143.608 28.5835 143.78 28.8217C143.952 29.0599 144.211 29.1898 144.513 29.1898C144.534 29.1898 144.556 29.2114 144.556 29.2547C144.556 29.2981 144.534 29.3197 144.513 29.3197C144.297 29.3197 144.146 29.3197 144.017 29.298L143.371 29.2764L142.638 29.298C142.508 29.298 142.336 29.3197 142.142 29.3197C142.121 29.3197 142.099 29.2981 142.099 29.2547C142.099 29.2114 142.121 29.1898 142.142 29.1898C142.465 29.1898 142.724 29.0599 142.896 28.8217C143.09 28.5835 143.177 28.2587 143.198 27.8257L143.306 22.9755L143.284 22.9538C143.133 22.6723 142.961 22.4558 142.81 22.3259C142.638 22.196 142.444 22.131 142.228 22.131C142.207 22.131 142.185 22.1094 142.185 22.0661C142.185 22.0228 142.207 22.0011 142.228 22.0011L142.767 22.0227C142.875 22.0227 143.026 22.0444 143.198 22.0444L143.823 22.0227C143.888 22.0227 143.974 22.0011 144.082 22.0011C144.19 22.0011 144.254 22.0444 144.319 22.1094C144.383 22.1743 144.47 22.3475 144.621 22.6074L147.164 27.4143L149.383 22.3042C149.427 22.196 149.47 22.1094 149.534 22.0661C149.577 22.0228 149.664 22.0011 149.728 22.0011C149.793 22.0011 149.879 22.0011 149.965 22.0227C150.052 22.0227 150.159 22.0444 150.267 22.0444L150.957 22.0227C151.064 22.0227 151.215 22.0011 151.431 22.0011C151.452 22.0011 151.474 22.0228 151.474 22.0661C151.474 22.1094 151.452 22.131 151.431 22.131C151.065 22.131 150.806 22.196 150.633 22.3475C150.461 22.4991 150.396 22.7373 150.418 23.0404L150.698 28.367C150.72 28.6052 150.741 28.7784 150.784 28.8867C150.827 28.9949 150.914 29.0599 151.021 29.1032C151.129 29.1465 151.302 29.1681 151.56 29.1681C151.56 29.1465 151.56 29.1898 151.56 29.2331Z" fill="white"/>
<path d="M158.263 27.4142C158.284 27.4142 158.306 27.4142 158.327 27.4359C158.349 27.4575 158.349 27.4575 158.349 27.4575C158.263 28.0638 158.241 28.6268 158.241 29.1248C158.241 29.1898 158.22 29.2331 158.198 29.2547C158.177 29.2764 158.133 29.298 158.047 29.298H152.875C152.853 29.298 152.832 29.2764 152.832 29.2331C152.832 29.1898 152.853 29.1681 152.875 29.1681C153.133 29.1681 153.306 29.1465 153.414 29.1031C153.521 29.0598 153.608 28.9949 153.651 28.865C153.694 28.7567 153.715 28.5835 153.715 28.3453V22.9105C153.715 22.6723 153.694 22.4991 153.651 22.3908C153.608 22.2826 153.543 22.1959 153.414 22.1526C153.306 22.1093 153.112 22.0877 152.875 22.0877C152.853 22.0877 152.832 22.066 152.832 22.0227C152.832 21.9794 152.853 21.9578 152.875 21.9578H157.832C157.918 21.9578 157.939 22.0011 157.939 22.066L157.961 23.625C157.961 23.6467 157.939 23.6467 157.896 23.6683C157.853 23.6683 157.832 23.6683 157.81 23.6467C157.681 23.192 157.465 22.8672 157.185 22.629C156.883 22.4125 156.496 22.3042 156.021 22.3042H155.677C155.439 22.3042 155.267 22.3475 155.159 22.4558C155.052 22.564 154.987 22.7156 154.987 22.9321V25.3356H155.957C156.409 25.3356 156.754 25.249 156.991 25.0974C157.228 24.9458 157.358 24.7293 157.358 24.4478C157.358 24.4262 157.379 24.4045 157.422 24.4045C157.465 24.4045 157.487 24.4262 157.487 24.4478L157.465 25.5088L157.487 26.0718C157.508 26.3316 157.508 26.5481 157.508 26.6997C157.508 26.7214 157.487 26.7214 157.444 26.7214C157.401 26.7214 157.379 26.7214 157.379 26.6997C157.379 26.3749 157.25 26.1367 157.013 25.9419C156.776 25.7686 156.409 25.6604 155.957 25.6604H155.008V28.3237C155.008 28.5402 155.052 28.7134 155.138 28.8217C155.224 28.9299 155.353 28.9949 155.547 28.9949H155.935C156.539 28.9949 157.034 28.865 157.401 28.6268C157.767 28.367 158.026 27.9989 158.198 27.4575C158.22 27.4142 158.241 27.4142 158.263 27.4142Z" fill="white"/>
<path d="M168.069 29.2329C168.069 29.2762 168.047 29.2979 168.026 29.2979C167.746 29.2979 167.53 29.2979 167.379 29.2762L166.474 29.2546L165.418 29.2762C165.267 29.2762 165.095 29.2979 164.836 29.2979C164.814 29.2979 164.793 29.2762 164.793 29.2329C164.793 29.1896 164.814 29.1679 164.836 29.1679C165.116 29.1679 165.332 29.1463 165.461 29.103C165.59 29.0597 165.677 28.9947 165.72 28.8865C165.763 28.7782 165.784 28.605 165.784 28.3668V25.6602H162.013V28.3668C162.013 28.605 162.034 28.7782 162.077 28.8865C162.121 28.9947 162.207 29.0813 162.336 29.1246C162.465 29.1679 162.681 29.1896 162.961 29.1896C162.983 29.1896 162.983 29.2112 162.983 29.2546C162.983 29.2979 162.983 29.3195 162.961 29.3195C162.681 29.3195 162.465 29.3195 162.314 29.2979L161.302 29.2762L160.418 29.2979C160.267 29.2979 160.052 29.3195 159.771 29.3195C159.75 29.3195 159.75 29.2979 159.75 29.2546C159.75 29.2112 159.75 29.1896 159.771 29.1896C160.052 29.1896 160.246 29.1679 160.375 29.1246C160.504 29.0813 160.59 29.0164 160.633 28.8865C160.677 28.7782 160.698 28.605 160.698 28.3668V22.932C160.698 22.6938 160.677 22.5206 160.633 22.4123C160.59 22.304 160.504 22.2174 160.375 22.1741C160.246 22.1308 160.052 22.1092 159.793 22.1092C159.771 22.1092 159.75 22.0875 159.75 22.0442C159.75 22.0009 159.771 21.9792 159.793 21.9792L160.418 22.0009C160.784 22.0226 161.064 22.0226 161.28 22.0226C161.582 22.0226 161.927 22.0226 162.314 22.0009L162.961 21.9792C162.983 21.9792 162.983 22.0009 162.983 22.0442C162.983 22.0875 162.983 22.1092 162.961 22.1092C162.681 22.1092 162.465 22.1308 162.336 22.1741C162.207 22.2174 162.121 22.304 162.056 22.4123C162.013 22.5206 161.97 22.6938 161.97 22.932V25.3138H165.741V22.932C165.741 22.6938 165.72 22.5206 165.677 22.4123C165.633 22.304 165.547 22.2174 165.418 22.1741C165.289 22.1308 165.073 22.1092 164.793 22.1092C164.771 22.1092 164.75 22.0875 164.75 22.0442C164.75 22.0009 164.771 21.9792 164.793 21.9792L165.375 22.0009C165.763 22.0226 166.108 22.0226 166.431 22.0226C166.646 22.0226 166.948 22.0226 167.336 22.0009L167.983 21.9792C168.004 21.9792 168.026 22.0009 168.026 22.0442C168.026 22.0875 168.004 22.1092 167.983 22.1092C167.724 22.1092 167.53 22.1308 167.401 22.1741C167.271 22.2174 167.185 22.304 167.142 22.4123C167.099 22.5206 167.077 22.6938 167.077 22.932V28.3668C167.077 28.605 167.099 28.7782 167.142 28.8865C167.185 28.9947 167.271 29.0813 167.401 29.1246C167.53 29.1679 167.724 29.1896 168.004 29.1896C168.069 29.1463 168.069 29.1896 168.069 29.2329Z" fill="white"/>
<path d="M177.595 29.2329C177.595 29.2762 177.573 29.2979 177.552 29.2979C177.271 29.2979 177.056 29.2979 176.905 29.2762L176 29.2546L174.944 29.2762C174.793 29.2762 174.621 29.2979 174.362 29.2979C174.34 29.2979 174.319 29.2762 174.319 29.2329C174.319 29.1896 174.34 29.1679 174.362 29.1679C174.642 29.1679 174.858 29.1463 174.987 29.103C175.116 29.0597 175.202 28.9947 175.246 28.8865C175.289 28.7782 175.31 28.605 175.31 28.3668V25.6602H171.539V28.3668C171.539 28.605 171.56 28.7782 171.603 28.8865C171.646 28.9947 171.733 29.0813 171.862 29.1246C171.991 29.1679 172.207 29.1896 172.487 29.1896C172.508 29.1896 172.508 29.2112 172.508 29.2546C172.508 29.2979 172.508 29.3195 172.487 29.3195C172.207 29.3195 171.991 29.3195 171.84 29.2979L170.827 29.2762L169.944 29.2979C169.793 29.2979 169.577 29.3195 169.297 29.3195C169.276 29.3195 169.276 29.2979 169.276 29.2546C169.276 29.2112 169.276 29.1896 169.297 29.1896C169.577 29.1896 169.771 29.1679 169.901 29.1246C170.03 29.0813 170.116 29.0164 170.159 28.8865C170.202 28.7782 170.224 28.605 170.224 28.3668V22.932C170.224 22.6938 170.202 22.5206 170.159 22.4123C170.116 22.304 170.03 22.2174 169.901 22.1741C169.771 22.1308 169.577 22.1092 169.319 22.1092C169.297 22.1092 169.276 22.0875 169.276 22.0442C169.276 22.0009 169.297 21.9792 169.319 21.9792L169.944 22.0009C170.31 22.0226 170.59 22.0226 170.806 22.0226C171.108 22.0226 171.452 22.0226 171.84 22.0009L172.487 21.9792C172.508 21.9792 172.508 22.0009 172.508 22.0442C172.508 22.0875 172.508 22.1092 172.487 22.1092C172.207 22.1092 171.991 22.1308 171.862 22.1741C171.733 22.2174 171.646 22.304 171.582 22.4123C171.539 22.5206 171.496 22.6938 171.496 22.932V25.3138H175.353V22.932C175.353 22.6938 175.332 22.5206 175.289 22.4123C175.246 22.304 175.159 22.2174 175.03 22.1741C174.901 22.1308 174.685 22.1092 174.405 22.1092C174.383 22.1092 174.362 22.0875 174.362 22.0442C174.362 22.0009 174.383 21.9792 174.405 21.9792L174.987 22.0009C175.375 22.0226 175.72 22.0226 176.043 22.0226C176.258 22.0226 176.56 22.0226 176.948 22.0009L177.595 21.9792C177.616 21.9792 177.638 22.0009 177.638 22.0442C177.638 22.0875 177.616 22.1092 177.595 22.1092C177.336 22.1092 177.142 22.1308 177.013 22.1741C176.883 22.2174 176.797 22.304 176.754 22.4123C176.711 22.5206 176.689 22.6938 176.689 22.932V28.3668C176.689 28.605 176.711 28.7782 176.754 28.8865C176.797 28.9947 176.883 29.0813 177.013 29.1246C177.142 29.1679 177.336 29.1896 177.616 29.1896C177.595 29.1463 177.595 29.1896 177.595 29.2329Z" fill="white"/>
<path d="M180.892 28.9295C180.332 28.583 179.901 28.1283 179.577 27.5437C179.276 26.9591 179.125 26.3312 179.125 25.6383C179.125 24.8371 179.319 24.1442 179.728 23.5596C180.138 22.975 180.655 22.5419 181.28 22.2604C181.905 21.979 182.573 21.8274 183.22 21.8274C183.952 21.8274 184.599 22.0006 185.181 22.3471C185.763 22.6935 186.172 23.1482 186.474 23.7328C186.776 24.2958 186.927 24.9021 186.927 25.5517C186.927 26.2662 186.733 26.9158 186.366 27.522C186 28.1067 185.483 28.583 184.858 28.9295C184.233 29.2759 183.543 29.4491 182.81 29.4491C182.099 29.4275 181.452 29.2759 180.892 28.9295ZM184.383 28.7563C184.728 28.4964 185.008 28.1283 185.202 27.652C185.396 27.154 185.504 26.5693 185.504 25.8981C185.504 25.1836 185.396 24.534 185.181 23.971C184.965 23.408 184.642 22.9533 184.233 22.6285C183.823 22.3038 183.327 22.1522 182.789 22.1522C182.077 22.1522 181.539 22.412 181.151 22.9533C180.763 23.4946 180.569 24.2308 180.569 25.2052C180.569 25.9631 180.677 26.6343 180.914 27.2406C181.151 27.8468 181.452 28.3015 181.862 28.648C182.271 28.9944 182.724 29.146 183.22 29.146C183.651 29.146 184.039 29.0161 184.383 28.7563Z" fill="white"/>
<path d="M188.478 29.2331C188.478 29.1898 188.5 29.1681 188.521 29.1681C188.802 29.1681 188.996 29.1465 189.125 29.1031C189.254 29.0598 189.34 28.9949 189.383 28.865C189.427 28.7567 189.448 28.5835 189.448 28.3453V22.9105C189.448 22.6723 189.427 22.4991 189.383 22.3908C189.34 22.2826 189.276 22.1959 189.146 22.1526C189.039 22.1093 188.845 22.0877 188.608 22.0877C188.586 22.0877 188.564 22.066 188.564 22.0227C188.564 21.9794 188.586 21.9578 188.608 21.9578H193.672C193.758 21.9578 193.78 22.0011 193.78 22.066L193.802 24.0364C193.802 24.0581 193.78 24.0797 193.737 24.0797C193.694 24.0797 193.672 24.0797 193.651 24.0581C193.521 23.4518 193.284 23.0187 192.983 22.7373C192.659 22.4558 192.25 22.3042 191.711 22.3042H191.366C191.129 22.3042 190.957 22.3475 190.849 22.4558C190.741 22.564 190.677 22.7156 190.677 22.9321V28.302C190.677 28.5402 190.698 28.735 190.763 28.8433C190.827 28.9516 190.935 29.0382 191.108 29.0815C191.28 29.1248 191.539 29.1465 191.905 29.1465C191.927 29.1465 191.927 29.1681 191.927 29.2114C191.927 29.2547 191.927 29.2764 191.905 29.2764C191.582 29.2764 191.345 29.2764 191.151 29.2547L189.965 29.2331L189.082 29.2547C188.931 29.2547 188.715 29.2764 188.435 29.2764C188.478 29.298 188.478 29.2764 188.478 29.2331Z" fill="white"/>
<path d="M196.991 28.9295C196.431 28.583 196 28.1283 195.677 27.5437C195.375 26.9591 195.224 26.3312 195.224 25.6383C195.224 24.8371 195.418 24.1442 195.827 23.5596C196.237 22.975 196.754 22.5419 197.379 22.2604C198.004 21.979 198.672 21.8274 199.319 21.8274C200.052 21.8274 200.698 22.0006 201.28 22.3471C201.862 22.6935 202.271 23.1482 202.573 23.7328C202.875 24.2958 203.026 24.9021 203.026 25.5517C203.026 26.2662 202.832 26.9158 202.465 27.522C202.099 28.1067 201.582 28.583 200.957 28.9295C200.332 29.2759 199.642 29.4491 198.909 29.4491C198.198 29.4275 197.552 29.2759 196.991 28.9295ZM200.483 28.7563C200.827 28.4964 201.108 28.1283 201.302 27.652C201.496 27.154 201.603 26.5693 201.603 25.8981C201.603 25.1836 201.496 24.534 201.28 23.971C201.064 23.408 200.741 22.9533 200.332 22.6285C199.922 22.3038 199.427 22.1522 198.888 22.1522C198.177 22.1522 197.638 22.412 197.25 22.9533C196.862 23.4946 196.668 24.2308 196.668 25.2052C196.668 25.9631 196.776 26.6343 197.013 27.2406C197.25 27.8468 197.552 28.3015 197.961 28.648C198.371 28.9944 198.823 29.146 199.319 29.146C199.75 29.146 200.138 29.0161 200.483 28.7563Z" fill="white"/>
<path d="M56.905 37.5692C57.293 37.9373 57.4869 38.3704 57.4869 38.9117C57.4869 39.3231 57.3792 39.6912 57.1421 40.016C56.905 40.3408 56.5817 40.6006 56.1723 40.7955C55.7628 40.9904 55.3102 41.077 54.7929 41.077C54.5774 41.077 54.3188 41.0553 54.0386 41.0337C53.9309 41.0337 53.8016 41.012 53.6292 41.012C53.4783 41.012 53.2843 40.9904 53.0904 40.9904L52.2283 41.012C52.0774 41.012 51.8619 41.0337 51.6033 41.0337C51.5817 41.0337 51.5602 41.012 51.5602 40.9687C51.5602 40.9254 51.5817 40.9038 51.6033 40.9038C51.8188 40.9038 51.9912 40.8821 52.1205 40.8388C52.2283 40.7955 52.3145 40.7089 52.3791 40.6006C52.4222 40.4924 52.4654 40.3192 52.4654 40.081V34.6461C52.4654 34.3213 52.4007 34.1048 52.2929 33.9965C52.1852 33.8883 51.9697 33.845 51.6248 33.845C51.6033 33.845 51.6033 33.8233 51.6033 33.78C51.6033 33.7367 51.6033 33.7151 51.6248 33.7151L52.2498 33.7367C52.6162 33.7584 52.8964 33.7584 53.1119 33.7584C53.3274 33.7584 53.5645 33.7367 53.78 33.7151C53.8662 33.7151 53.974 33.6934 54.1248 33.6934C54.2757 33.6934 54.4266 33.6718 54.5343 33.6718C55.2455 33.6718 55.7843 33.8017 56.1723 34.0615C56.5602 34.3213 56.7542 34.6894 56.7542 35.1874C56.7542 35.5555 56.6248 35.902 56.3878 36.2051C56.1507 36.5083 55.7843 36.7464 55.3317 36.9197C55.9998 36.9846 56.5171 37.2012 56.905 37.5692ZM53.8878 34.0832C53.8016 34.1914 53.7585 34.3863 53.7585 34.6678V36.898L54.2326 36.9197C54.6421 36.9197 54.9438 36.7681 55.1593 36.465C55.3748 36.1618 55.4826 35.7721 55.4826 35.2957C55.4826 34.841 55.3748 34.5162 55.1809 34.278C54.9869 34.0399 54.7067 33.9316 54.3404 33.9316C54.1248 33.9316 53.974 33.9749 53.8878 34.0832ZM56.1076 39.1932C56.1076 38.5869 55.9567 38.1106 55.6766 37.7641C55.3964 37.4177 54.9438 37.2445 54.3619 37.2445C54.1464 37.2445 53.9309 37.2445 53.7585 37.2661V40.1026C53.7585 40.3625 53.8016 40.5357 53.9093 40.6439C54.0171 40.7522 54.2326 40.7955 54.5774 40.7955C55.5904 40.7955 56.1076 40.2542 56.1076 39.1932Z" fill="white"/>
<path d="M60.4179 40.6656C59.8576 40.3191 59.4266 39.8644 59.1033 39.2798C58.8016 38.6952 58.6507 38.0673 58.6507 37.3744C58.6507 36.5732 58.8447 35.8803 59.2541 35.2957C59.6636 34.7111 60.1809 34.278 60.8059 33.9965C61.4309 33.715 62.099 33.5635 62.7455 33.5635C63.4783 33.5635 64.1248 33.7367 64.7067 34.0831C65.2886 34.4296 65.6981 34.8843 65.9998 35.4689C66.3016 36.0319 66.4524 36.6382 66.4524 37.2878C66.4524 38.0023 66.2585 38.6519 65.8921 39.2582C65.5257 39.8428 65.0085 40.3191 64.3835 40.6656C63.7585 41.012 63.0688 41.1852 62.336 41.1852C61.6248 41.1636 60.9998 41.012 60.4179 40.6656ZM63.9093 40.4924C64.2541 40.2325 64.5343 39.8644 64.7283 39.3881C64.9222 38.8901 65.03 38.3054 65.03 37.6342C65.03 36.9197 64.9222 36.2701 64.7067 35.7071C64.4912 35.1441 64.1679 34.6894 63.7585 34.3646C63.349 34.0398 62.8533 33.8883 62.3145 33.8883C61.6033 33.8883 61.0645 34.1481 60.6766 34.6894C60.2886 35.2307 60.0947 35.9669 60.0947 36.9413C60.0947 37.6992 60.2024 38.3704 60.4395 38.9767C60.6766 39.5829 60.9783 40.0377 61.3878 40.3841C61.7972 40.7305 62.2498 40.8821 62.7455 40.8821C63.1766 40.8821 63.5645 40.7522 63.9093 40.4924Z" fill="white"/>
<path d="M74.9654 40.969C74.9654 41.0123 74.9438 41.0339 74.9223 41.0339H73.1335C73.0257 41.0339 72.9395 41.0123 72.8533 40.9473C72.7671 40.8824 72.6378 40.7308 72.4223 40.4493C72.2283 40.1895 71.8835 39.7131 71.4309 39.0635L71.1076 38.6088C70.8274 38.2191 70.6335 37.9376 70.5042 37.7644C70.3749 37.6128 70.224 37.4829 70.0947 37.4179C69.9438 37.353 69.7714 37.3097 69.5343 37.3097V40.0596C69.5343 40.2977 69.5559 40.471 69.599 40.5792C69.6421 40.6875 69.7283 40.7741 69.8576 40.8174C69.9869 40.8607 70.1809 40.8824 70.4395 40.8824C70.4611 40.8824 70.4826 40.904 70.4826 40.9473C70.4826 40.9906 70.4611 41.0123 70.4395 41.0123C70.1593 41.0123 69.9438 41.0123 69.793 40.9906L68.8231 40.969L67.9611 40.9906C67.8102 40.9906 67.5947 41.0123 67.3361 41.0123C67.3145 41.0123 67.293 40.9906 67.293 40.9473C67.293 40.904 67.3145 40.8824 67.3361 40.8824C67.5947 40.8824 67.7887 40.8607 67.918 40.8174C68.0473 40.7741 68.1335 40.7091 68.1766 40.5792C68.2197 40.471 68.2412 40.2977 68.2412 40.0596V34.6248C68.2412 34.3866 68.2197 34.2134 68.1766 34.1051C68.1335 33.9968 68.0473 33.9102 67.918 33.8669C67.7887 33.8236 67.5947 33.802 67.3361 33.802C67.3145 33.802 67.293 33.7803 67.293 33.737C67.293 33.6937 67.3145 33.672 67.3361 33.672L67.9611 33.6937C68.3275 33.7153 68.6076 33.7153 68.8231 33.7153C69.0818 33.7153 69.405 33.7153 69.8145 33.6937L70.4611 33.672C70.4826 33.672 70.5042 33.6937 70.5042 33.737C70.5042 33.7803 70.4826 33.802 70.4611 33.802C70.2024 33.802 70.0085 33.8236 69.8792 33.8669C69.7499 33.9102 69.6637 33.9968 69.6206 34.1051C69.5774 34.2134 69.5559 34.3866 69.5559 34.6248V37.0932C69.7714 37.0932 70.03 37.0715 70.3533 37.0715L71.5818 35.3826C71.905 34.9279 72.0559 34.5598 72.0559 34.2567C72.0559 34.1051 72.0128 33.9968 71.9266 33.9102C71.8404 33.8236 71.7326 33.7803 71.5818 33.7803C71.5602 33.7803 71.5602 33.7587 71.5602 33.7153C71.5602 33.672 71.5602 33.6504 71.5818 33.6504L72.1206 33.672C72.4654 33.6937 72.7671 33.6937 73.0257 33.6937C73.3274 33.6937 73.6507 33.6937 73.974 33.672L74.4697 33.6504C74.4912 33.6504 74.5128 33.672 74.5128 33.7153C74.5128 33.7587 74.4912 33.7803 74.4697 33.7803C74.1249 33.7803 73.7369 33.9102 73.3059 34.1484C72.8749 34.4082 72.5085 34.7114 72.2283 35.0795L70.6335 37.0715C70.9352 37.0932 71.1938 37.1365 71.3878 37.2447C71.5818 37.353 71.7757 37.5046 71.9697 37.6994C72.1637 37.916 72.4223 38.2624 72.7887 38.7604L73.0042 39.0635C73.3274 39.5183 73.5861 39.8647 73.78 40.0812C73.9524 40.2977 74.1464 40.4926 74.3404 40.6225C74.5343 40.7525 74.7499 40.8174 74.9654 40.8391C74.9438 40.8824 74.9654 40.9257 74.9654 40.969Z" fill="white"/>
<path d="M83.2628 40.9688C83.2628 41.0121 83.2412 41.0338 83.1981 41.0338C83.0473 41.0338 82.8102 41.0338 82.4654 41.0121C82.1206 40.9905 81.8835 40.9905 81.7326 40.9905C81.5387 40.9905 81.3016 40.9905 81.0214 41.0121C80.7628 41.0338 80.5473 41.0338 80.3964 41.0338C80.3749 41.0338 80.3533 41.0121 80.3533 40.9688C80.3533 40.9255 80.3749 40.9039 80.3964 40.9039C80.5904 40.9039 80.7412 40.8822 80.8275 40.8389C80.9137 40.7956 80.9568 40.709 80.9568 40.6007C80.9568 40.4708 80.8706 40.2543 80.7197 39.9295L79.5128 37.5261H77.4438L76.6249 39.3665C76.5171 39.5831 76.474 39.7996 76.474 39.9945C76.474 40.2759 76.5818 40.4925 76.7757 40.644C76.9697 40.7956 77.2499 40.8822 77.5731 40.8822C77.6162 40.8822 77.6378 40.9039 77.6378 40.9472C77.6378 40.9905 77.6162 41.0121 77.5731 41.0121C77.4223 41.0121 77.2283 41.0121 76.9697 40.9905C76.668 40.9688 76.4094 40.9688 76.1938 40.9688C75.9783 40.9688 75.7197 40.9688 75.4395 40.9905C75.1809 41.0121 74.9654 41.0121 74.793 41.0121C74.7714 41.0121 74.7499 40.9905 74.7499 40.9472C74.7499 40.9039 74.7714 40.8822 74.793 40.8822C75.0085 40.8822 75.2025 40.8389 75.3318 40.7523C75.4826 40.6657 75.6335 40.4925 75.7844 40.2759C75.9352 40.0378 76.1076 39.713 76.3016 39.2583L78.8447 33.6502C78.8663 33.6286 78.8878 33.6069 78.9525 33.6069C79.0171 33.6069 79.0602 33.6286 79.0602 33.6502L81.9912 39.4315C82.2714 39.9945 82.4869 40.3626 82.6593 40.5791C82.8318 40.7956 83.0257 40.9039 83.2197 40.9039C83.2412 40.8822 83.2628 40.9255 83.2628 40.9688ZM77.5947 37.2013H79.3619L78.4352 35.3391L77.5947 37.2013Z" fill="white"/>
<path d="M83.4568 41.012C83.3275 40.9037 83.2628 40.7522 83.2628 40.5573C83.2628 40.3624 83.3275 40.2325 83.4352 40.1459C83.543 40.0593 83.6938 40.016 83.8663 40.016H84.1033C84.5344 40.016 84.8792 39.7561 85.1809 39.2365C85.4826 38.7168 85.6982 38.0672 85.849 37.2877C85.9999 36.5082 86.0645 35.7071 86.0645 34.9276C86.0645 34.5162 85.9783 34.2347 85.8275 34.0615C85.6766 33.8882 85.3749 33.8233 84.9223 33.8233C84.9007 33.8233 84.8792 33.8016 84.8792 33.7583C84.8792 33.715 84.9007 33.6934 84.9223 33.6934H90.8275C90.849 33.6934 90.849 33.715 90.849 33.7583C90.849 33.8016 90.849 33.8233 90.8275 33.8233C90.5688 33.8233 90.3749 33.8449 90.2456 33.8882C90.1163 33.9315 90.03 34.0182 89.9869 34.1264C89.9438 34.2347 89.9223 34.4079 89.9223 34.6461V40.0809C89.9223 40.3191 89.9438 40.4923 89.9869 40.6006C90.03 40.7088 90.1163 40.7955 90.2456 40.8388C90.3749 40.8821 90.5688 40.9037 90.849 40.9037C90.8706 40.9037 90.8706 40.9254 90.8706 40.9687C90.8706 41.012 90.8706 41.0336 90.849 41.0336C90.5904 41.0336 90.3749 41.0336 90.224 41.012L89.3619 40.9903L88.4137 41.012C88.2628 41.012 88.0257 41.0336 87.7456 41.0336C87.724 41.0336 87.724 41.012 87.724 40.9687C87.724 40.9254 87.724 40.9037 87.7456 40.9037C88.0257 40.9037 88.2197 40.8821 88.3275 40.8388C88.4568 40.7955 88.5214 40.7305 88.5645 40.6222C88.6076 40.514 88.6292 40.3408 88.6292 40.1026V34.8193C88.6292 34.5595 88.6292 34.3862 88.6076 34.2996C88.5861 34.213 88.543 34.1481 88.4783 34.1264C88.4137 34.1048 88.2628 34.0831 88.0473 34.0831H87.2714C87.0344 34.0831 86.8619 34.1048 86.7542 34.1481C86.6464 34.1914 86.5602 34.278 86.4956 34.3862C86.4525 34.5162 86.4094 34.711 86.4094 34.9709C86.4094 35.7937 86.3447 36.6814 86.2154 37.6342C86.0861 38.5869 85.8275 39.4097 85.4611 40.1242C85.0947 40.8388 84.599 41.2069 83.974 41.2069C83.7585 41.1636 83.5861 41.1203 83.4568 41.012Z" fill="white"/>
<path d="M96.9049 37.3745C97.336 37.6992 97.5515 38.1756 97.5515 38.8035C97.5515 39.2582 97.4437 39.648 97.2067 39.9944C96.9912 40.3409 96.6679 40.6007 96.2584 40.7956C95.8489 40.9904 95.3963 41.0771 94.9006 41.0771C94.7067 41.0771 94.4696 41.0554 94.1894 41.0338C94.0817 41.0338 93.9308 41.0338 93.6937 41.0121C93.4782 40.9904 93.2627 40.9904 93.0903 40.9904L92.336 41.0121C92.1635 41.0121 91.948 41.0338 91.6679 41.0338C91.6463 41.0338 91.6248 41.0121 91.6248 40.9688C91.6248 40.9255 91.6463 40.9038 91.6679 40.9038C91.9265 40.8822 92.1204 40.8605 92.2282 40.8389C92.336 40.8172 92.4006 40.7523 92.4437 40.644C92.4868 40.5357 92.5084 40.3625 92.5084 40.1027V34.6679C92.5084 34.408 92.4868 34.2348 92.4437 34.1266C92.4006 34.0183 92.336 33.9533 92.2282 33.9317C92.1204 33.91 91.948 33.8667 91.6679 33.8667C91.6463 33.8667 91.6463 33.8451 91.6463 33.8018C91.6463 33.7585 91.6463 33.7368 91.6679 33.7368L92.2498 33.7585C92.573 33.7801 92.8748 33.7801 93.1334 33.7801C93.392 33.7801 93.7153 33.7801 94.1032 33.7585L94.7713 33.7368C94.7929 33.7368 94.7929 33.7585 94.7929 33.8018C94.7929 33.8451 94.7929 33.8667 94.7713 33.8667C94.4696 33.8884 94.2541 33.91 94.1463 33.9317C94.0386 33.9533 93.9524 34.04 93.8877 34.1482C93.823 34.2565 93.8015 34.4514 93.8015 34.6895V37.0064C94.2325 36.9414 94.6205 36.9198 94.9653 36.9198C95.8274 36.8981 96.4739 37.0497 96.9049 37.3745ZM95.8489 40.3625C96.0644 40.081 96.1937 39.6263 96.1937 39.0201C96.1937 38.3921 96.0644 37.9374 95.8274 37.6559C95.5903 37.3745 95.1808 37.2229 94.5989 37.2229C94.4049 37.2229 94.1463 37.2445 93.823 37.2878V40.1027C93.823 40.3409 93.8877 40.5141 93.9955 40.6224C94.1032 40.7306 94.3403 40.7956 94.6851 40.7956C95.2455 40.7956 95.6334 40.644 95.8489 40.3625Z" fill="white"/>
<path d="M106.56 40.9689C106.56 41.0122 106.539 41.0338 106.517 41.0338C106.237 41.0338 106.021 41.0338 105.871 41.0122L104.965 40.9905L103.909 41.0122C103.759 41.0122 103.586 41.0338 103.327 41.0338C103.306 41.0338 103.284 41.0122 103.284 40.9689C103.284 40.9256 103.306 40.9039 103.327 40.9039C103.608 40.9039 103.823 40.8823 103.952 40.839C104.082 40.7957 104.168 40.7307 104.211 40.6224C104.254 40.5142 104.276 40.341 104.276 40.1028V37.3962H100.504V40.1028C100.504 40.341 100.526 40.5142 100.569 40.6224C100.612 40.7307 100.698 40.8173 100.827 40.8606C100.957 40.9039 101.172 40.9256 101.452 40.9256C101.474 40.9256 101.474 40.9472 101.474 40.9905C101.474 41.0338 101.474 41.0555 101.452 41.0555C101.172 41.0555 100.957 41.0555 100.806 41.0338L99.793 41.0122L98.9094 41.0338C98.7585 41.0338 98.543 41.0555 98.2628 41.0555C98.2413 41.0555 98.2413 41.0338 98.2413 40.9905C98.2413 40.9472 98.2413 40.9256 98.2628 40.9256C98.543 40.9256 98.737 40.9039 98.8663 40.8606C98.9956 40.8173 99.0818 40.7524 99.1249 40.6224C99.168 40.5142 99.1895 40.341 99.1895 40.1028V34.6679C99.1895 34.4298 99.168 34.2565 99.1249 34.1483C99.0818 34.04 98.9956 33.9534 98.8663 33.9101C98.737 33.8668 98.543 33.8451 98.2844 33.8451C98.2628 33.8451 98.2413 33.8235 98.2413 33.7802C98.2413 33.7369 98.2628 33.7152 98.2844 33.7152L98.9094 33.7369C99.2758 33.7585 99.5559 33.7585 99.7714 33.7585C100.073 33.7585 100.418 33.7585 100.806 33.7369L101.452 33.7152C101.474 33.7152 101.474 33.7369 101.474 33.7802C101.474 33.8235 101.474 33.8451 101.452 33.8451C101.172 33.8451 100.957 33.8668 100.827 33.9101C100.698 33.9534 100.612 34.04 100.547 34.1483C100.504 34.2565 100.461 34.4298 100.461 34.6679V37.0497H104.233V34.6679C104.233 34.4298 104.211 34.2565 104.168 34.1483C104.125 34.04 104.039 33.9534 103.909 33.9101C103.78 33.8668 103.565 33.8451 103.284 33.8451C103.263 33.8451 103.241 33.8235 103.241 33.7802C103.241 33.7369 103.263 33.7152 103.284 33.7152L103.866 33.7369C104.254 33.7585 104.599 33.7585 104.922 33.7585C105.138 33.7585 105.44 33.7585 105.827 33.7369L106.474 33.7152C106.496 33.7152 106.517 33.7369 106.517 33.7802C106.517 33.8235 106.496 33.8451 106.474 33.8451C106.215 33.8451 106.021 33.8668 105.892 33.9101C105.763 33.9534 105.677 34.04 105.634 34.1483C105.59 34.2565 105.569 34.4298 105.569 34.6679V40.1028C105.569 40.341 105.59 40.5142 105.634 40.6224C105.677 40.7307 105.763 40.8173 105.892 40.8606C106.021 40.9039 106.215 40.9256 106.496 40.9256C106.539 40.8823 106.56 40.9256 106.56 40.9689Z" fill="white"/>
<path d="M109.233 40.6656C108.672 40.3191 108.241 39.8644 107.918 39.2798C107.616 38.6952 107.465 38.0673 107.465 37.3744C107.465 36.5732 107.659 35.8803 108.069 35.2957C108.478 34.7111 108.996 34.278 109.621 33.9965C110.246 33.715 110.914 33.5635 111.56 33.5635C112.293 33.5635 112.939 33.7367 113.521 34.0831C114.103 34.4296 114.513 34.8843 114.814 35.4689C115.116 36.0319 115.267 36.6382 115.267 37.2878C115.267 38.0023 115.073 38.6519 114.707 39.2582C114.34 39.8428 113.823 40.3191 113.198 40.6656C112.573 41.012 111.883 41.1852 111.151 41.1852C110.439 41.1636 109.793 41.012 109.233 40.6656ZM112.724 40.4924C113.069 40.2325 113.349 39.8644 113.543 39.3881C113.737 38.9117 113.845 38.3054 113.845 37.6342C113.845 36.9197 113.737 36.2701 113.521 35.7071C113.306 35.1441 112.983 34.6894 112.573 34.3646C112.164 34.0398 111.668 33.8883 111.129 33.8883C110.418 33.8883 109.879 34.1481 109.491 34.6894C109.103 35.2307 108.909 35.9669 108.909 36.9413C108.909 37.6992 109.017 38.3704 109.254 38.9767C109.491 39.5829 109.793 40.0377 110.202 40.3841C110.612 40.7305 111.064 40.8821 111.56 40.8821C111.991 40.8821 112.379 40.7522 112.724 40.4924Z" fill="white"/>
<path d="M116.194 40.9687C116.194 40.9254 116.215 40.9037 116.237 40.9037C116.517 40.9037 116.711 40.8821 116.84 40.8388C116.97 40.7955 117.056 40.7305 117.099 40.6006C117.142 40.4923 117.164 40.3191 117.164 40.0809V34.6461C117.164 34.4079 117.142 34.2347 117.099 34.1264C117.056 34.0182 116.991 33.9315 116.862 33.8882C116.754 33.8449 116.56 33.8233 116.323 33.8233C116.301 33.8233 116.28 33.8016 116.28 33.7583C116.28 33.715 116.301 33.6934 116.323 33.6934H121.409C121.495 33.6934 121.517 33.7367 121.517 33.8016L121.539 35.772C121.539 35.7937 121.517 35.8153 121.474 35.8153C121.431 35.8153 121.409 35.8153 121.388 35.7937C121.258 35.1874 121.021 34.7543 120.72 34.4729C120.396 34.1914 119.987 34.0398 119.448 34.0398H119.103C118.866 34.0398 118.694 34.0831 118.586 34.1914C118.478 34.2996 118.414 34.4512 118.414 34.6677V40.0376C118.414 40.2758 118.435 40.4707 118.5 40.5789C118.564 40.6872 118.672 40.7738 118.845 40.8171C119.017 40.8604 119.276 40.8821 119.642 40.8821C119.664 40.8821 119.664 40.9037 119.664 40.947C119.664 40.9903 119.664 41.012 119.642 41.012C119.319 41.012 119.082 41.012 118.888 40.9903L117.702 40.9687L116.819 40.9903C116.668 40.9903 116.452 41.012 116.172 41.012C116.215 41.0336 116.194 41.012 116.194 40.9687Z" fill="white"/>
<path d="M124.125 40.6656C123.564 40.3191 123.133 39.8644 122.81 39.2798C122.508 38.6952 122.358 38.0673 122.358 37.3744C122.358 36.5732 122.552 35.8803 122.961 35.2957C123.37 34.7111 123.888 34.278 124.513 33.9965C125.138 33.715 125.806 33.5635 126.452 33.5635C127.185 33.5635 127.832 33.7367 128.414 34.0831C128.974 34.4296 129.405 34.8843 129.707 35.4689C130.008 36.0319 130.159 36.6382 130.159 37.2878C130.159 38.0023 129.965 38.6519 129.599 39.2582C129.233 39.8428 128.715 40.3191 128.09 40.6656C127.465 41.012 126.776 41.1852 126.043 41.1852C125.332 41.1636 124.685 41.012 124.125 40.6656ZM127.616 40.4924C127.961 40.2325 128.241 39.8644 128.435 39.3881C128.629 38.8901 128.737 38.3054 128.737 37.6342C128.737 36.9197 128.629 36.2701 128.414 35.7071C128.198 35.1441 127.875 34.6894 127.465 34.3646C127.056 34.0398 126.56 33.8883 126.021 33.8883C125.31 33.8883 124.771 34.1481 124.383 34.6894C123.995 35.2307 123.802 35.9669 123.802 36.9413C123.802 37.6992 123.909 38.3704 124.146 38.9767C124.383 39.5829 124.685 40.0377 125.095 40.3841C125.504 40.7305 125.957 40.8821 126.452 40.8821C126.862 40.8821 127.271 40.7522 127.616 40.4924Z" fill="white"/>
<path d="M141.905 40.9688C141.905 41.0121 141.883 41.0338 141.862 41.0338C141.582 41.0338 141.366 41.0338 141.215 41.0121L140.31 40.9904L139.254 41.0121C139.103 41.0121 138.931 41.0338 138.672 41.0338C138.651 41.0338 138.629 41.0121 138.629 40.9688C138.629 40.9255 138.651 40.9038 138.672 40.9038C138.952 40.9038 139.168 40.8822 139.297 40.8389C139.427 40.7956 139.513 40.7306 139.556 40.6224C139.599 40.5141 139.621 40.3409 139.621 40.1027V35.6639L135.978 39.583V40.1243C135.978 40.3625 136 40.5357 136.043 40.644C136.086 40.7523 136.172 40.8389 136.302 40.8822C136.431 40.9255 136.646 40.9471 136.927 40.9471C136.948 40.9471 136.948 40.9688 136.948 41.0121C136.948 41.0554 136.948 41.0771 136.927 41.0771C136.646 41.0771 136.431 41.0771 136.28 41.0554L135.267 41.0338L134.383 41.0554C134.233 41.0554 134.017 41.0771 133.737 41.0771C133.715 41.0771 133.715 41.0554 133.715 41.0121C133.715 40.9688 133.715 40.9471 133.737 40.9471C134.017 40.9471 134.211 40.9255 134.34 40.8822C134.47 40.8389 134.556 40.7739 134.599 40.644C134.642 40.5357 134.664 40.3625 134.664 40.1243V34.6895C134.664 34.4514 134.642 34.2781 134.599 34.1699C134.556 34.0616 134.47 33.975 134.34 33.9317C134.211 33.8884 134.017 33.8667 133.758 33.8667C133.737 33.8667 133.715 33.8451 133.715 33.8018C133.715 33.7585 133.737 33.7368 133.758 33.7368L134.383 33.7585C134.75 33.7801 135.03 33.7801 135.246 33.7801C135.547 33.7801 135.892 33.7801 136.28 33.7585L136.927 33.7368C136.948 33.7368 136.948 33.7585 136.948 33.8018C136.948 33.8451 136.948 33.8667 136.927 33.8667C136.646 33.8667 136.431 33.8884 136.302 33.9317C136.172 33.975 136.086 34.0616 136.021 34.1699C135.978 34.2781 135.935 34.4514 135.935 34.6895V39.085L139.577 35.1875V34.6895C139.577 34.4514 139.556 34.2781 139.513 34.1699C139.47 34.0616 139.383 33.975 139.254 33.9317C139.125 33.8884 138.909 33.8667 138.629 33.8667C138.608 33.8667 138.586 33.8451 138.586 33.8018C138.586 33.7585 138.608 33.7368 138.629 33.7368L139.211 33.7585C139.599 33.7801 139.944 33.7801 140.267 33.7801C140.483 33.7801 140.784 33.7801 141.172 33.7585L141.819 33.7368C141.84 33.7368 141.862 33.7585 141.862 33.8018C141.862 33.8451 141.84 33.8667 141.819 33.8667C141.56 33.8667 141.366 33.8884 141.237 33.9317C141.108 33.975 141.021 34.0616 140.978 34.1699C140.935 34.2781 140.914 34.4514 140.914 34.6895V40.1243C140.914 40.3625 140.935 40.5357 140.978 40.644C141.021 40.7523 141.108 40.8389 141.237 40.8822C141.366 40.9255 141.56 40.9471 141.819 40.9471C141.883 40.8822 141.905 40.9255 141.905 40.9688Z" fill="white"/>
<path d="M148.241 33.6503C148.608 33.7152 148.909 33.7802 149.125 33.8884C149.19 33.9101 149.233 33.9317 149.254 33.975C149.276 34.0183 149.297 34.0617 149.297 34.1483L149.448 35.7722C149.448 35.7939 149.427 35.8155 149.384 35.8155C149.34 35.8155 149.319 35.8155 149.319 35.7722C149.06 35.1443 148.694 34.6679 148.263 34.3431C147.81 33.9967 147.315 33.8451 146.711 33.8451C145.935 33.8451 145.353 34.1266 144.922 34.7112C144.491 35.2742 144.297 36.0537 144.297 37.0064C144.297 37.7209 144.405 38.3922 144.642 38.9768C144.879 39.5614 145.202 40.0378 145.612 40.3842C146.021 40.7307 146.496 40.9039 147.034 40.9039C147.53 40.9039 147.983 40.7307 148.371 40.4059C148.759 40.0811 149.125 39.5614 149.427 38.8902C149.427 38.8685 149.47 38.8469 149.513 38.8469C149.556 38.8469 149.577 38.8685 149.577 38.8902L149.405 40.4925C149.383 40.5791 149.362 40.644 149.362 40.6657C149.34 40.6873 149.297 40.7307 149.233 40.7523C148.543 41.0121 147.832 41.1421 147.099 41.1421C146.151 41.1421 145.353 40.9472 144.707 40.5791C144.06 40.1893 143.608 39.713 143.306 39.1284C143.004 38.5437 142.853 37.9375 142.853 37.3095C142.853 36.5734 143.047 35.9021 143.457 35.3392C143.866 34.7762 144.384 34.3215 145.052 34.0183C145.72 33.7152 146.431 33.542 147.185 33.542C147.509 33.5636 147.853 33.6069 148.241 33.6503Z" fill="white"/>
<path d="M157.983 40.969C157.983 41.0123 157.961 41.0339 157.94 41.0339H156.151C156.043 41.0339 155.957 41.0123 155.871 40.9473C155.784 40.8824 155.655 40.7308 155.44 40.4493C155.246 40.1895 154.901 39.7131 154.448 39.0635L154.125 38.6088C153.845 38.2191 153.651 37.9376 153.521 37.7644C153.392 37.6128 153.241 37.4829 153.112 37.4179C152.961 37.353 152.789 37.3097 152.552 37.3097V40.0596C152.552 40.2977 152.573 40.471 152.616 40.5792C152.659 40.6875 152.746 40.7741 152.875 40.8174C153.004 40.8607 153.198 40.8824 153.457 40.8824C153.478 40.8824 153.5 40.904 153.5 40.9473C153.5 40.9906 153.478 41.0123 153.457 41.0123C153.177 41.0123 152.961 41.0123 152.81 40.9906L151.84 40.969L150.978 40.9906C150.827 40.9906 150.612 41.0123 150.353 41.0123C150.332 41.0123 150.31 40.9906 150.31 40.9473C150.31 40.904 150.332 40.8824 150.353 40.8824C150.612 40.8824 150.806 40.8607 150.935 40.8174C151.065 40.7741 151.151 40.7091 151.194 40.5792C151.237 40.471 151.259 40.2977 151.259 40.0596V34.6248C151.259 34.3866 151.237 34.2134 151.194 34.1051C151.151 33.9968 151.065 33.9102 150.935 33.8669C150.806 33.8236 150.612 33.802 150.353 33.802C150.332 33.802 150.31 33.7803 150.31 33.737C150.31 33.6937 150.332 33.672 150.353 33.672L150.978 33.6937C151.345 33.7153 151.625 33.7153 151.84 33.7153C152.099 33.7153 152.422 33.7153 152.832 33.6937L153.478 33.672C153.5 33.672 153.521 33.6937 153.521 33.737C153.521 33.7803 153.5 33.802 153.478 33.802C153.22 33.802 153.026 33.8236 152.896 33.8669C152.767 33.9102 152.681 33.9968 152.638 34.1051C152.595 34.2134 152.573 34.3866 152.573 34.6248V37.0932C152.789 37.0932 153.047 37.0715 153.371 37.0715L154.599 35.3826C154.922 34.9279 155.073 34.5598 155.073 34.2567C155.073 34.1051 155.03 33.9968 154.944 33.9102C154.858 33.8236 154.75 33.7803 154.599 33.7803C154.577 33.7803 154.577 33.7587 154.577 33.7153C154.577 33.672 154.577 33.6504 154.599 33.6504L155.138 33.672C155.483 33.6937 155.784 33.6937 156.043 33.6937C156.345 33.6937 156.668 33.6937 156.991 33.672L157.487 33.6504C157.509 33.6504 157.53 33.672 157.53 33.7153C157.53 33.7587 157.509 33.7803 157.487 33.7803C157.142 33.7803 156.754 33.9102 156.323 34.1484C155.892 34.4082 155.526 34.7114 155.246 35.0795L153.651 37.0715C153.952 37.0932 154.211 37.1365 154.405 37.2447C154.599 37.353 154.793 37.5046 154.987 37.6994C155.181 37.916 155.44 38.2624 155.806 38.7604L156.021 39.0635C156.345 39.5183 156.603 39.8647 156.797 40.0812C156.97 40.2977 157.164 40.4926 157.358 40.6225C157.552 40.7525 157.767 40.8174 157.983 40.8391C157.983 40.8824 157.983 40.9257 157.983 40.969Z" fill="white"/>
<path d="M165.246 33.7585C165.246 33.8018 165.224 33.8235 165.202 33.8235C164.987 33.8235 164.75 33.9317 164.491 34.1266C164.254 34.3431 164.06 34.603 163.909 34.9278L161.711 40.0594C161.539 40.4708 161.366 40.7523 161.172 40.9255C160.978 41.0987 160.72 41.1637 160.396 41.1637C160.073 41.1637 159.814 41.0987 159.621 40.9472C159.427 40.7956 159.319 40.6224 159.319 40.4059C159.319 40.2326 159.383 40.1027 159.491 39.9728C159.599 39.8429 159.75 39.7996 159.944 39.7996C160.138 39.7996 160.267 39.8429 160.353 39.9512C160.439 40.0594 160.504 40.1893 160.569 40.3626C160.612 40.4708 160.655 40.5574 160.698 40.6224C160.741 40.6873 160.806 40.709 160.871 40.709C160.957 40.709 161.021 40.6657 161.108 40.5791C161.194 40.4925 161.28 40.3409 161.366 40.1027L161.539 39.6913L158.974 34.6896C158.802 34.3864 158.672 34.1699 158.543 34.04C158.414 33.9101 158.241 33.8668 158.004 33.8668C157.983 33.8668 157.983 33.8451 157.983 33.8018C157.983 33.7585 157.983 33.7369 158.004 33.7369C158.177 33.7369 158.306 33.7369 158.371 33.7585C158.608 33.7802 158.909 33.7802 159.276 33.7802C159.836 33.7802 160.289 33.7802 160.633 33.7585C160.741 33.7585 160.849 33.7369 161 33.7369C161.021 33.7369 161.021 33.7585 161.021 33.8018C161.021 33.8451 161.021 33.8668 161 33.8668C160.526 33.8668 160.267 33.9967 160.267 34.2349C160.267 34.3215 160.31 34.4514 160.375 34.5813L162.142 38.219L163.521 34.9711C163.586 34.7978 163.629 34.6463 163.629 34.5164C163.629 34.3215 163.564 34.1699 163.414 34.04C163.263 33.9101 163.069 33.8668 162.81 33.8668C162.789 33.8668 162.789 33.8451 162.789 33.8018C162.789 33.7585 162.789 33.7369 162.81 33.7369L163.327 33.7585C163.629 33.7802 163.888 33.7802 164.125 33.7802C164.297 33.7802 164.47 33.7802 164.664 33.7585L165.159 33.7369C165.224 33.6936 165.246 33.7152 165.246 33.7585Z" fill="white"/>
<path d="M170.806 33.6503C171.172 33.7152 171.474 33.7802 171.69 33.8884C171.754 33.9101 171.797 33.9317 171.819 33.975C171.84 34.0183 171.862 34.0617 171.862 34.1483L172.013 35.7722C172.013 35.7939 171.991 35.8155 171.948 35.8155C171.905 35.8155 171.883 35.8155 171.883 35.7722C171.625 35.1443 171.258 34.6679 170.827 34.3431C170.375 33.9967 169.879 33.8451 169.276 33.8451C168.5 33.8451 167.918 34.1266 167.487 34.7112C167.056 35.2742 166.862 36.0537 166.862 37.0064C166.862 37.7209 166.97 38.3922 167.207 38.9768C167.444 39.5614 167.767 40.0378 168.177 40.3842C168.586 40.7307 169.06 40.9039 169.599 40.9039C170.095 40.9039 170.547 40.7307 170.935 40.4059C171.323 40.0811 171.69 39.5614 171.991 38.8902C171.991 38.8685 172.034 38.8469 172.077 38.8469C172.121 38.8469 172.142 38.8685 172.142 38.8902L171.97 40.4925C171.948 40.5791 171.927 40.644 171.927 40.6657C171.905 40.6873 171.862 40.7307 171.797 40.7523C171.108 41.0121 170.396 41.1421 169.664 41.1421C168.715 41.1421 167.918 40.9472 167.271 40.5791C166.625 40.1893 166.172 39.713 165.871 39.1284C165.569 38.5437 165.418 37.9375 165.418 37.3095C165.418 36.5734 165.612 35.9021 166.021 35.3392C166.431 34.7762 166.948 34.3215 167.616 34.0183C168.284 33.7152 168.996 33.542 169.75 33.542C170.073 33.5636 170.44 33.6069 170.806 33.6503Z" fill="white"/>
<path d="M178.629 33.6503C178.996 33.7152 179.297 33.7802 179.513 33.8884C179.577 33.9101 179.621 33.9317 179.642 33.975C179.664 34.0183 179.685 34.0617 179.685 34.1483L179.836 35.7722C179.836 35.7939 179.814 35.8155 179.771 35.8155C179.728 35.8155 179.707 35.8155 179.707 35.7722C179.448 35.1443 179.082 34.6679 178.651 34.3431C178.198 33.9967 177.702 33.8451 177.099 33.8451C176.323 33.8451 175.741 34.1266 175.31 34.7112C174.879 35.2742 174.685 36.0537 174.685 37.0064C174.685 37.7209 174.793 38.3922 175.03 38.9768C175.267 39.5614 175.59 40.0378 176 40.3842C176.409 40.7307 176.883 40.9039 177.422 40.9039C177.918 40.9039 178.371 40.7307 178.758 40.4059C179.146 40.0811 179.513 39.5614 179.814 38.8902C179.814 38.8685 179.858 38.8469 179.901 38.8469C179.944 38.8469 179.965 38.8685 179.965 38.8902L179.793 40.4925C179.771 40.5791 179.75 40.644 179.75 40.6657C179.728 40.6873 179.685 40.7307 179.621 40.7523C178.931 41.0121 178.22 41.1421 177.487 41.1421C176.539 41.1421 175.741 40.9472 175.095 40.5791C174.448 40.1893 173.996 39.713 173.694 39.1284C173.392 38.5437 173.241 37.9375 173.241 37.3095C173.241 36.5734 173.435 35.9021 173.845 35.3392C174.254 34.7762 174.771 34.3215 175.439 34.0183C176.108 33.7152 176.819 33.542 177.573 33.542C177.896 33.5636 178.241 33.6069 178.629 33.6503Z" fill="white"/>
<path d="M181.043 35.7938C181.043 35.8155 181.021 35.8371 180.978 35.8155C180.935 35.8155 180.914 35.7938 180.914 35.7722C180.935 35.469 180.978 35.0576 181.021 34.5596C181.064 34.0616 181.086 33.6935 181.086 33.4337C181.086 33.3904 181.108 33.3687 181.151 33.3687C181.194 33.3687 181.215 33.3904 181.215 33.4337C181.215 33.6069 181.431 33.6935 181.883 33.6935C182.552 33.7151 183.327 33.7368 184.233 33.7368C184.685 33.7368 185.181 33.7368 185.698 33.7151L186.496 33.6935C186.797 33.6935 187.013 33.6718 187.142 33.6285C187.271 33.5852 187.358 33.5203 187.401 33.3904C187.401 33.3687 187.444 33.347 187.487 33.347C187.53 33.347 187.552 33.3687 187.552 33.3904C187.53 33.6285 187.508 33.9966 187.465 34.5163C187.444 35.036 187.422 35.4474 187.422 35.7505C187.422 35.7722 187.401 35.7938 187.358 35.7938C187.314 35.7938 187.293 35.7722 187.293 35.7505C187.185 35.1442 186.948 34.6895 186.646 34.3864C186.323 34.0832 185.935 33.9317 185.461 33.9317C185.246 33.9317 185.095 33.975 185.008 34.0832C184.944 34.1915 184.901 34.3647 184.901 34.6462V40.0594C184.901 40.2976 184.922 40.4708 184.965 40.5791C185.008 40.6873 185.095 40.7523 185.224 40.7956C185.353 40.8389 185.569 40.8606 185.849 40.8606C185.871 40.8606 185.892 40.8822 185.892 40.9255C185.892 40.9688 185.871 40.9905 185.849 40.9905C185.569 40.9905 185.353 40.9905 185.181 40.9688L184.211 40.9472L183.263 40.9688C183.09 40.9688 182.875 40.9905 182.595 40.9905C182.573 40.9905 182.552 40.9688 182.552 40.9255C182.552 40.8822 182.573 40.8606 182.595 40.8606C182.875 40.8606 183.09 40.8389 183.22 40.7956C183.349 40.7523 183.457 40.6873 183.5 40.5574C183.543 40.4492 183.586 40.2759 183.586 40.0378V34.6029C183.586 34.3431 183.543 34.1482 183.478 34.0616C183.414 33.975 183.263 33.91 183.047 33.91C182.099 33.975 181.452 34.5813 181.043 35.7938Z" fill="white"/>
<path d="M193.715 37.5692C194.103 37.9373 194.297 38.3704 194.297 38.9117C194.297 39.3231 194.19 39.6912 193.952 40.016C193.715 40.3408 193.392 40.6006 192.983 40.7955C192.573 40.9904 192.121 41.077 191.603 41.077C191.388 41.077 191.129 41.0553 190.849 41.0337C190.741 41.0337 190.612 41.012 190.44 41.012C190.289 41.012 190.095 40.9904 189.901 40.9904L189.039 41.012C188.888 41.012 188.672 41.0337 188.414 41.0337C188.392 41.0337 188.371 41.012 188.371 40.9687C188.371 40.9254 188.392 40.9038 188.414 40.9038C188.629 40.9038 188.802 40.8821 188.931 40.8388C189.039 40.7955 189.125 40.7089 189.19 40.6006C189.233 40.4924 189.276 40.3192 189.276 40.081V34.6461C189.276 34.3213 189.211 34.1048 189.103 33.9965C188.996 33.8883 188.78 33.845 188.435 33.845C188.414 33.845 188.414 33.8233 188.414 33.78C188.414 33.7367 188.414 33.7151 188.435 33.7151L189.06 33.7367C189.427 33.7584 189.707 33.7584 189.922 33.7584C190.138 33.7584 190.375 33.7367 190.59 33.7151C190.677 33.7151 190.784 33.6934 190.935 33.6934C191.086 33.6934 191.237 33.6718 191.345 33.6718C192.056 33.6718 192.595 33.8017 192.983 34.0615C193.371 34.3213 193.565 34.6894 193.565 35.1874C193.565 35.5555 193.435 35.902 193.198 36.2051C192.961 36.5083 192.595 36.7464 192.142 36.9197C192.81 36.9846 193.327 37.2012 193.715 37.5692ZM190.72 34.0832C190.633 34.1914 190.59 34.3863 190.59 34.6678V36.898L191.065 36.9197C191.474 36.9197 191.776 36.7681 191.991 36.465C192.207 36.1618 192.315 35.7721 192.315 35.2957C192.315 34.841 192.207 34.5162 192.013 34.278C191.819 34.0399 191.539 33.9316 191.172 33.9316C190.957 33.9316 190.806 33.9749 190.72 34.0832ZM192.94 39.1932C192.94 38.5869 192.789 38.1106 192.508 37.7641C192.228 37.4177 191.776 37.2445 191.194 37.2445C190.978 37.2445 190.763 37.2445 190.59 37.2661V40.1026C190.59 40.3625 190.633 40.5357 190.741 40.6439C190.849 40.7522 191.065 40.7955 191.409 40.7955C192.422 40.7955 192.94 40.2542 192.94 39.1932Z" fill="white"/>
<path d="M203.349 40.9688C203.349 41.0121 203.327 41.0338 203.284 41.0338C203.133 41.0338 202.896 41.0338 202.552 41.0121C202.207 40.9905 201.97 40.9905 201.819 40.9905C201.625 40.9905 201.388 40.9905 201.108 41.0121C200.849 41.0338 200.633 41.0338 200.483 41.0338C200.461 41.0338 200.439 41.0121 200.439 40.9688C200.439 40.9255 200.461 40.9039 200.483 40.9039C200.677 40.9039 200.827 40.8822 200.914 40.8389C201 40.7956 201.043 40.709 201.043 40.6007C201.043 40.4708 200.957 40.2543 200.806 39.9295L199.599 37.5261H197.53L196.711 39.3665C196.603 39.5831 196.56 39.7996 196.56 39.9945C196.56 40.2759 196.668 40.4925 196.862 40.644C197.056 40.7956 197.336 40.8822 197.659 40.8822C197.702 40.8822 197.724 40.9039 197.724 40.9472C197.724 40.9905 197.702 41.0121 197.659 41.0121C197.508 41.0121 197.314 41.0121 197.056 40.9905C196.754 40.9688 196.496 40.9688 196.28 40.9688C196.064 40.9688 195.806 40.9688 195.526 40.9905C195.267 41.0121 195.052 41.0121 194.879 41.0121C194.858 41.0121 194.836 40.9905 194.836 40.9472C194.836 40.9039 194.858 40.8822 194.879 40.8822C195.095 40.8822 195.289 40.8389 195.418 40.7523C195.569 40.6657 195.72 40.4925 195.871 40.2759C196.021 40.0378 196.194 39.713 196.388 39.2583L198.931 33.6502C198.952 33.6286 198.974 33.6069 199.039 33.6069C199.103 33.6069 199.146 33.6286 199.146 33.6502L202.077 39.4315C202.358 39.9945 202.573 40.3626 202.746 40.5791C202.918 40.7956 203.112 40.9039 203.306 40.9039C203.327 40.8822 203.349 40.9255 203.349 40.9688ZM197.681 37.2013H199.448L198.521 35.3391L197.681 37.2013Z" fill="white"/>
<path d="M56.905 49.3051C57.293 49.6732 57.4869 50.1062 57.4869 50.6475C57.4869 51.0589 57.3792 51.427 57.1421 51.7518C56.905 52.0766 56.5817 52.3365 56.1723 52.5313C55.7628 52.7262 55.3102 52.8128 54.7929 52.8128C54.5774 52.8128 54.3188 52.7912 54.0386 52.7695C53.9309 52.7695 53.8016 52.7479 53.6292 52.7479C53.4783 52.7479 53.2843 52.7262 53.0904 52.7262L52.2283 52.7479C52.0774 52.7479 51.8619 52.7695 51.6033 52.7695C51.5817 52.7695 51.5602 52.7479 51.5602 52.7045C51.5602 52.6612 51.5817 52.6396 51.6033 52.6396C51.8188 52.6396 51.9912 52.6179 52.1205 52.5746C52.2283 52.5313 52.3145 52.4447 52.3791 52.3365C52.4222 52.2282 52.4654 52.055 52.4654 51.8168V46.382C52.4654 46.0572 52.4007 45.8406 52.2929 45.7324C52.1852 45.6241 51.9697 45.5808 51.6248 45.5808C51.6033 45.5808 51.6033 45.5592 51.6033 45.5159C51.6033 45.4726 51.6033 45.4509 51.6248 45.4509L52.2498 45.4726C52.6162 45.4942 52.8964 45.4942 53.1119 45.4942C53.3274 45.4942 53.5645 45.4726 53.78 45.4509C53.8662 45.4509 53.974 45.4292 54.1248 45.4292C54.2757 45.4292 54.4266 45.4076 54.5343 45.4076C55.2455 45.4076 55.7843 45.5375 56.1723 45.7973C56.5602 46.0572 56.7542 46.4253 56.7542 46.9233C56.7542 47.2914 56.6248 47.6378 56.3878 47.941C56.1507 48.2441 55.7843 48.4823 55.3317 48.6555C55.9998 48.7205 56.5171 48.9586 56.905 49.3051ZM53.8878 45.819C53.8016 45.9273 53.7585 46.1221 53.7585 46.4036V48.6338L54.2326 48.6555C54.6421 48.6555 54.9438 48.5039 55.1593 48.2008C55.3748 47.8977 55.4826 47.5079 55.4826 47.0315C55.4826 46.5768 55.3748 46.252 55.1809 46.0139C54.9869 45.7757 54.7067 45.6674 54.3404 45.6674C54.1248 45.6674 53.974 45.7107 53.8878 45.819ZM56.1076 50.929C56.1076 50.3228 55.9567 49.8464 55.6766 49.4999C55.3964 49.1535 54.9438 48.9803 54.3619 48.9803C54.1464 48.9803 53.9309 48.9803 53.7585 49.0019V51.8168C53.7585 52.0766 53.8016 52.2498 53.9093 52.3581C54.0171 52.4664 54.2326 52.5097 54.5774 52.5097C55.5904 52.5313 56.1076 51.99 56.1076 50.929Z" fill="white"/>
<path d="M65.2671 50.8857C65.2886 50.8857 65.3102 50.8857 65.3317 50.9073C65.3533 50.929 65.3533 50.929 65.3533 50.929C65.267 51.5352 65.2455 52.0982 65.2455 52.5962C65.2455 52.6612 65.2239 52.7045 65.2024 52.7261C65.1808 52.7478 65.1377 52.7695 65.0515 52.7695H59.8791C59.8576 52.7695 59.836 52.7478 59.836 52.7045C59.836 52.6612 59.8576 52.6395 59.8791 52.6395C60.1377 52.6395 60.3101 52.6179 60.4179 52.5746C60.5257 52.5313 60.6119 52.4663 60.655 52.3364C60.6981 52.2281 60.7196 52.0549 60.7196 51.8167V46.3819C60.7196 46.1437 60.6981 45.9705 60.655 45.8623C60.6119 45.754 60.5472 45.6674 60.4179 45.6241C60.3101 45.5808 60.1162 45.5591 59.8791 45.5591C59.8576 45.5591 59.836 45.5375 59.836 45.4942C59.836 45.4509 59.8576 45.4292 59.8791 45.4292H64.836C64.9222 45.4292 64.9438 45.4725 64.9438 45.5375L64.9653 47.0965C64.9653 47.1181 64.9438 47.1181 64.9007 47.1398C64.8576 47.1398 64.836 47.1398 64.8145 47.1181C64.6852 46.6634 64.4696 46.3386 64.1895 46.1004C63.8877 45.8839 63.4998 45.7756 63.0257 45.7756H62.6808C62.4438 45.7756 62.2713 45.8189 62.1636 45.9272C62.0558 46.0355 61.9912 46.187 61.9912 46.4036V48.7854H62.961C63.4136 48.7854 63.7584 48.6987 63.9955 48.5472C64.2326 48.3956 64.3619 48.1791 64.3619 47.8976C64.3619 47.8759 64.3834 47.8543 64.4265 47.8543C64.4696 47.8543 64.4912 47.8759 64.4912 47.8976L64.4696 48.9586L64.4912 49.5216C64.5127 49.7814 64.5127 49.9979 64.5127 50.1495C64.5127 50.1711 64.4912 50.1711 64.4481 50.1711C64.405 50.1711 64.3834 50.1711 64.3834 50.1495C64.3834 49.8247 64.2541 49.5865 64.017 49.3916C63.78 49.2184 63.4136 49.1102 62.961 49.1102H62.0127V51.7734C62.0127 51.99 62.0558 52.1632 62.142 52.2714C62.2282 52.3797 62.3576 52.4447 62.5515 52.4447H62.9395C63.5429 52.4447 64.0386 52.3147 64.405 52.0766C64.7714 51.8167 65.03 51.4486 65.2024 50.9073C65.2239 50.8857 65.2455 50.8857 65.2671 50.8857Z" fill="white"/>
<path d="M69.8145 52.3147C69.8792 52.423 69.9654 52.5096 70.1162 52.5529C70.2671 52.5962 70.5042 52.6179 70.849 52.6179C70.8705 52.6179 70.8921 52.6395 70.8921 52.6828C70.8921 52.7261 70.8705 52.7478 70.849 52.7478C70.5257 52.7478 70.2886 52.7478 70.0947 52.7261L69.0817 52.7045L68.2197 52.7261C68.0688 52.7261 67.8533 52.7478 67.5947 52.7478C67.5731 52.7478 67.5516 52.7261 67.5516 52.6828C67.5516 52.6395 67.5731 52.6179 67.5947 52.6179C67.8533 52.6179 68.0257 52.5962 68.1335 52.5529C68.2412 52.5096 68.3274 52.4447 68.3705 52.3147C68.4136 52.2065 68.4352 52.0333 68.4352 51.7951V46.3603C68.4352 46.1221 68.4136 45.9489 68.3705 45.8406C68.3274 45.7324 68.2628 45.6457 68.1335 45.6024C68.0257 45.5591 67.8317 45.5375 67.5947 45.5375C67.5731 45.5375 67.5516 45.5158 67.5516 45.4725C67.5516 45.4292 67.5731 45.4076 67.5947 45.4076L68.2197 45.4292C68.5861 45.4509 68.8662 45.4509 69.0817 45.4509C69.2757 45.4509 69.4912 45.4292 69.7499 45.4076C69.8576 45.4076 69.9869 45.3859 70.1378 45.3859C70.2886 45.3859 70.4826 45.3643 70.6766 45.3643C71.474 45.3643 72.099 45.5375 72.5516 45.8623C73.0042 46.1871 73.2412 46.7067 73.2412 47.3996C73.2412 47.876 73.1119 48.2874 72.8748 48.6338C72.6162 48.9802 72.3145 49.2184 71.905 49.3916C71.5171 49.5649 71.1076 49.6515 70.6981 49.6515C70.4826 49.6515 70.3102 49.6298 70.1593 49.5865C70.1378 49.5865 70.1378 49.5649 70.1378 49.5216C70.1378 49.4999 70.1378 49.4783 70.1593 49.4566C70.1809 49.4349 70.1809 49.4349 70.2024 49.4349C70.3102 49.4566 70.4611 49.4783 70.5904 49.4783C70.9567 49.4783 71.2369 49.305 71.474 48.9802C71.7111 48.6338 71.8404 48.1574 71.8404 47.5512C71.8404 46.9232 71.7111 46.4469 71.4524 46.1221C71.1938 45.7757 70.8059 45.6241 70.3102 45.6241C70.0947 45.6241 69.9438 45.6674 69.8576 45.7757C69.7714 45.8839 69.7499 46.0788 69.7499 46.3819V51.7518C69.7499 52.0333 69.7714 52.2065 69.8145 52.3147Z" fill="white"/>
<path d="M77.3576 52.4014C76.7973 52.055 76.3663 51.6002 76.043 51.0156C75.7413 50.431 75.5904 49.8031 75.5904 49.1102C75.5904 48.309 75.7844 47.6162 76.1938 47.0315C76.6033 46.4469 77.1206 46.0139 77.7456 45.7324C78.3706 45.4509 79.0387 45.2993 79.6852 45.2993C80.418 45.2993 81.0645 45.4725 81.6464 45.819C82.2068 46.1654 82.6378 46.6201 82.9395 47.2048C83.2413 47.7677 83.3921 48.374 83.3921 49.0236C83.3921 49.7381 83.1982 50.3877 82.8318 50.994C82.4654 51.5786 81.9482 52.055 81.3232 52.4014C80.6982 52.7478 80.0085 52.9211 79.2757 52.9211C78.5645 52.9211 77.9395 52.7478 77.3576 52.4014ZM80.849 52.2282C81.1938 51.9683 81.474 51.6002 81.668 51.1239C81.8619 50.6259 81.9697 50.0413 81.9697 49.37C81.9697 48.6555 81.862 48.0059 81.6464 47.4429C81.4309 46.88 81.1076 46.4253 80.6982 46.1005C80.2887 45.7757 79.793 45.6241 79.2542 45.6241C78.543 45.6241 78.0042 45.8839 77.6163 46.4253C77.2283 46.9666 77.0344 47.7028 77.0344 48.6771C77.0344 49.435 77.1421 50.1062 77.3792 50.7125C77.6163 51.3188 77.918 51.7735 78.3275 52.1199C78.7369 52.4664 79.1895 52.6179 79.6852 52.6179C80.1163 52.6179 80.5042 52.488 80.849 52.2282Z" fill="white"/>
<path d="M93.9092 52.7045C93.9092 52.7478 93.8877 52.7695 93.8661 52.7695C93.586 52.7695 93.3704 52.7694 93.2196 52.7478L92.3144 52.7261L91.2584 52.7478C91.1075 52.7478 90.9351 52.7695 90.6765 52.7695C90.6549 52.7695 90.6334 52.7478 90.6334 52.7045C90.6334 52.6612 90.6549 52.6395 90.6765 52.6395C90.9567 52.6395 91.1722 52.6179 91.3015 52.5746C91.4308 52.5313 91.517 52.4663 91.5601 52.3581C91.6032 52.2498 91.6248 52.0766 91.6248 51.8384V49.1318H87.8532V51.8167C87.8532 52.0549 87.8748 52.2281 87.9179 52.3364C87.961 52.4447 88.0472 52.5313 88.1765 52.5746C88.3058 52.6179 88.5213 52.6395 88.8015 52.6395C88.823 52.6395 88.823 52.6612 88.823 52.7045C88.823 52.7478 88.823 52.7695 88.8015 52.7695C88.5213 52.7695 88.3058 52.7694 88.1549 52.7478L87.142 52.7261L86.2584 52.7478C86.1075 52.7478 85.892 52.7695 85.6118 52.7695C85.5903 52.7695 85.5903 52.7478 85.5903 52.7045C85.5903 52.6612 85.5903 52.6395 85.6118 52.6395C85.892 52.6395 86.086 52.6179 86.2153 52.5746C86.3446 52.5313 86.4308 52.4663 86.4739 52.3364C86.517 52.2281 86.5385 52.0549 86.5385 51.8167V46.3819C86.5385 46.1437 86.517 45.9705 86.4739 45.8623C86.4308 45.754 86.3446 45.6674 86.2153 45.6241C86.086 45.5808 85.892 45.5591 85.6334 45.5591C85.6118 45.5591 85.5903 45.5375 85.5903 45.4942C85.5903 45.4509 85.6118 45.4292 85.6334 45.4292L86.2584 45.4509C86.6248 45.4725 86.9049 45.4725 87.1204 45.4725C87.4222 45.4725 87.767 45.4725 88.1549 45.4509L88.8015 45.4292C88.823 45.4292 88.823 45.4509 88.823 45.4942C88.823 45.5375 88.823 45.5591 88.8015 45.5591C88.5213 45.5591 88.3058 45.5808 88.1765 45.6241C88.0472 45.6674 87.961 45.754 87.8963 45.8623C87.8532 45.9705 87.8101 46.1437 87.8101 46.3819V48.7637H91.5817V46.3819C91.5817 46.1437 91.5601 45.9705 91.517 45.8623C91.4739 45.754 91.3877 45.6674 91.2584 45.6241C91.1291 45.5808 90.9135 45.5591 90.6334 45.5591C90.6118 45.5591 90.5903 45.5375 90.5903 45.4942C90.5903 45.4509 90.6118 45.4292 90.6334 45.4292L91.2153 45.4509C91.6032 45.4725 91.948 45.4725 92.2713 45.4725C92.4868 45.4725 92.7886 45.4725 93.1765 45.4509L93.823 45.4292C93.8446 45.4292 93.8661 45.4509 93.8661 45.4942C93.8661 45.5375 93.8446 45.5591 93.823 45.5591C93.5644 45.5591 93.3704 45.5808 93.2411 45.6241C93.1118 45.6674 93.0256 45.754 92.9825 45.8623C92.9394 45.9705 92.9179 46.1437 92.9179 46.3819V51.8167C92.9179 52.0549 92.9394 52.2281 92.9825 52.3364C93.0256 52.4447 93.1118 52.5313 93.2411 52.5746C93.3704 52.6179 93.5644 52.6395 93.8446 52.6395C93.8877 52.6395 93.9092 52.6612 93.9092 52.7045Z" fill="white"/>
<path d="M104.039 52.7047C104.039 52.748 104.017 52.7697 103.995 52.7697C103.715 52.7697 103.5 52.7697 103.349 52.748L102.444 52.7264L101.388 52.748C101.237 52.748 101.064 52.7697 100.806 52.7697C100.784 52.7697 100.763 52.748 100.763 52.7047C100.763 52.6614 100.784 52.6397 100.806 52.6397C101.086 52.6397 101.302 52.6181 101.431 52.5748C101.56 52.5315 101.646 52.4665 101.689 52.3583C101.733 52.25 101.754 52.0768 101.754 51.8386V47.3998L98.1119 51.3189V51.8602C98.1119 52.0984 98.1334 52.2716 98.1765 52.3799C98.2196 52.4882 98.3058 52.5748 98.4351 52.6181C98.5644 52.6614 98.78 52.683 99.0601 52.683C99.0817 52.683 99.0817 52.7047 99.0817 52.748C99.0817 52.7913 99.0817 52.813 99.0601 52.813C98.78 52.813 98.5645 52.813 98.4136 52.7913L97.4007 52.7697L96.517 52.7913C96.3662 52.7913 96.1507 52.813 95.8705 52.813C95.8489 52.813 95.8489 52.7913 95.8489 52.748C95.8489 52.7047 95.8489 52.683 95.8705 52.683C96.1507 52.683 96.3446 52.6614 96.4739 52.6181C96.6033 52.5748 96.6895 52.5098 96.7326 52.3799C96.7757 52.2716 96.7972 52.0984 96.7972 51.8602V46.4254C96.7972 46.1872 96.7757 46.014 96.7326 45.9058C96.6895 45.7975 96.6033 45.7109 96.4739 45.6676C96.3446 45.6243 96.1507 45.6026 95.892 45.6026C95.8705 45.6026 95.8489 45.581 95.8489 45.5377C95.8489 45.4944 95.8705 45.4727 95.892 45.4727L96.517 45.4944C96.8834 45.516 97.1636 45.516 97.3791 45.516C97.6808 45.516 98.0257 45.516 98.4136 45.4944L99.0601 45.4727C99.0817 45.4727 99.0817 45.4944 99.0817 45.5377C99.0817 45.581 99.0817 45.6026 99.0601 45.6026C98.78 45.6026 98.5644 45.6243 98.4351 45.6676C98.3058 45.7109 98.2196 45.7975 98.155 45.9058C98.1119 46.014 98.0688 46.1872 98.0688 46.4254V50.8209L101.711 46.9234V46.4038C101.711 46.1656 101.689 45.9924 101.646 45.8841C101.603 45.7758 101.517 45.6892 101.388 45.6459C101.258 45.6026 101.043 45.581 100.763 45.581C100.741 45.581 100.72 45.5593 100.72 45.516C100.72 45.4727 100.741 45.451 100.763 45.451L101.345 45.4727C101.733 45.4944 102.077 45.4944 102.401 45.4944C102.616 45.4944 102.918 45.4944 103.306 45.4727L103.952 45.451C103.974 45.451 103.995 45.4727 103.995 45.516C103.995 45.5593 103.974 45.581 103.952 45.581C103.694 45.581 103.5 45.6026 103.37 45.6459C103.241 45.6892 103.155 45.7758 103.112 45.8841C103.069 45.9924 103.047 46.1656 103.047 46.4038V51.8169C103.047 52.0551 103.069 52.2283 103.112 52.3366C103.155 52.4449 103.241 52.5315 103.37 52.5748C103.5 52.6181 103.694 52.6397 103.952 52.6397C104.017 52.6397 104.039 52.6614 104.039 52.7047Z" fill="white"/>
<path d="M113.651 52.7045C113.651 52.7478 113.629 52.7695 113.608 52.7695H111.819C111.711 52.7695 111.625 52.7478 111.539 52.6829C111.452 52.6179 111.323 52.4664 111.108 52.1849C110.914 51.925 110.569 51.4487 110.116 50.7991L109.793 50.3444C109.513 49.9547 109.319 49.6732 109.189 49.4999C109.06 49.3484 108.909 49.2185 108.78 49.1535C108.629 49.0885 108.457 49.0452 108.22 49.0452V51.8168C108.22 52.055 108.241 52.2282 108.284 52.3364C108.327 52.4447 108.414 52.5313 108.543 52.5746C108.672 52.6179 108.866 52.6396 109.125 52.6396C109.146 52.6396 109.168 52.6612 109.168 52.7045C109.168 52.7478 109.146 52.7695 109.125 52.7695C108.845 52.7695 108.629 52.7695 108.478 52.7478L107.508 52.7262L106.646 52.7478C106.495 52.7478 106.28 52.7695 106.021 52.7695C106 52.7695 105.978 52.7478 105.978 52.7045C105.978 52.6612 106 52.6396 106.021 52.6396C106.28 52.6396 106.474 52.6179 106.603 52.5746C106.733 52.5313 106.819 52.4664 106.862 52.3364C106.905 52.2282 106.926 52.055 106.926 51.8168V46.382C106.926 46.1438 106.905 45.9706 106.862 45.8623C106.819 45.754 106.733 45.6674 106.603 45.6241C106.474 45.5808 106.28 45.5592 106.021 45.5592C106 45.5592 105.978 45.5375 105.978 45.4942C105.978 45.4509 106 45.4292 106.021 45.4292L106.646 45.4509C107.013 45.4726 107.293 45.4726 107.508 45.4726C107.767 45.4726 108.09 45.4726 108.5 45.4509L109.146 45.4292C109.168 45.4292 109.189 45.4509 109.189 45.4942C109.189 45.5375 109.168 45.5592 109.146 45.5592C108.888 45.5592 108.694 45.5808 108.564 45.6241C108.435 45.6674 108.349 45.754 108.306 45.8623C108.263 45.9706 108.241 46.1438 108.241 46.382V48.8504C108.457 48.8504 108.715 48.8287 109.039 48.8287L110.267 47.1398C110.59 46.6851 110.741 46.317 110.741 46.0139C110.741 45.8623 110.698 45.754 110.612 45.6674C110.526 45.5808 110.418 45.5375 110.267 45.5375C110.245 45.5375 110.245 45.5159 110.245 45.4726C110.245 45.4292 110.245 45.4076 110.267 45.4076L110.806 45.4292C111.151 45.4509 111.452 45.4509 111.711 45.4509C112.013 45.4509 112.336 45.4509 112.659 45.4292L113.155 45.4076C113.176 45.4076 113.198 45.4292 113.198 45.4726C113.198 45.5159 113.176 45.5375 113.155 45.5375C112.81 45.5375 112.422 45.6674 111.991 45.9056C111.56 46.1654 111.194 46.4686 110.914 46.8367L109.319 48.8287C109.62 48.8504 109.879 48.8937 110.073 49.0019C110.267 49.1102 110.461 49.2618 110.655 49.4566C110.849 49.6732 111.108 50.0196 111.474 50.5176L111.689 50.8208C112.013 51.2755 112.271 51.6219 112.465 51.8384C112.638 52.055 112.832 52.2498 113.026 52.3798C113.22 52.5097 113.435 52.5746 113.651 52.5963C113.629 52.6396 113.651 52.6612 113.651 52.7045Z" fill="white"/>
<path d="M123.284 52.7047C123.284 52.748 123.263 52.7697 123.241 52.7697C122.961 52.7697 122.746 52.7697 122.595 52.748L121.689 52.7264L120.633 52.748C120.483 52.748 120.31 52.7697 120.052 52.7697C120.03 52.7697 120.008 52.748 120.008 52.7047C120.008 52.6614 120.03 52.6397 120.052 52.6397C120.332 52.6397 120.547 52.6181 120.677 52.5748C120.806 52.5315 120.892 52.4665 120.935 52.3583C120.978 52.25 121 52.0768 121 51.8386V47.3998L117.358 51.3189V51.8602C117.358 52.0984 117.379 52.2716 117.422 52.3799C117.465 52.4882 117.552 52.5748 117.681 52.6181C117.81 52.6614 118.026 52.683 118.306 52.683C118.327 52.683 118.327 52.7047 118.327 52.748C118.327 52.7913 118.327 52.813 118.306 52.813C118.026 52.813 117.81 52.813 117.659 52.7913L116.646 52.7697L115.763 52.7913C115.612 52.7913 115.396 52.813 115.116 52.813C115.095 52.813 115.095 52.7913 115.095 52.748C115.095 52.7047 115.095 52.683 115.116 52.683C115.396 52.683 115.59 52.6614 115.72 52.6181C115.849 52.5748 115.935 52.5098 115.978 52.3799C116.021 52.2716 116.043 52.0984 116.043 51.8602V46.4254C116.043 46.1872 116.021 46.014 115.978 45.9058C115.935 45.7975 115.849 45.7109 115.72 45.6676C115.59 45.6243 115.396 45.6026 115.138 45.6026C115.116 45.6026 115.095 45.581 115.095 45.5377C115.095 45.4944 115.116 45.4727 115.138 45.4727L115.763 45.4944C116.129 45.516 116.409 45.516 116.625 45.516C116.927 45.516 117.271 45.516 117.659 45.4944L118.306 45.4727C118.327 45.4727 118.327 45.4944 118.327 45.5377C118.327 45.581 118.327 45.6026 118.306 45.6026C118.026 45.6026 117.81 45.6243 117.681 45.6676C117.552 45.7109 117.465 45.7975 117.401 45.9058C117.358 46.014 117.314 46.1872 117.314 46.4254V50.8209L120.957 46.9234V46.4038C120.957 46.1656 120.935 45.9924 120.892 45.8841C120.849 45.7758 120.763 45.6892 120.633 45.6459C120.504 45.6026 120.289 45.581 120.008 45.581C119.987 45.581 119.965 45.5593 119.965 45.516C119.965 45.4727 119.987 45.451 120.008 45.451L120.59 45.4727C120.978 45.4944 121.323 45.4944 121.646 45.4944C121.862 45.4944 122.164 45.4944 122.552 45.4727L123.198 45.451C123.22 45.451 123.241 45.4727 123.241 45.516C123.241 45.5593 123.22 45.581 123.198 45.581C122.939 45.581 122.746 45.6026 122.616 45.6459C122.487 45.6892 122.401 45.7758 122.358 45.8841C122.314 45.9924 122.293 46.1656 122.293 46.4038V51.8169C122.293 52.0551 122.314 52.2283 122.358 52.3366C122.401 52.4449 122.487 52.5315 122.616 52.5748C122.746 52.6181 122.939 52.6397 123.198 52.6397C123.284 52.6397 123.284 52.6614 123.284 52.7047Z" fill="white"/>
<path d="M135.978 52.7047C135.978 52.748 135.978 52.7697 135.957 52.7697C135.677 52.7697 135.461 52.7697 135.289 52.748L134.384 52.7264L133.5 52.748C133.349 52.748 133.155 52.7697 132.896 52.7697C132.875 52.7697 132.853 52.748 132.853 52.7047C132.853 52.6614 132.875 52.6397 132.896 52.6397C133.155 52.6397 133.327 52.6181 133.435 52.5748C133.543 52.5315 133.629 52.4665 133.672 52.3583C133.715 52.25 133.737 52.0768 133.737 51.8386V49.0237C133.457 49.0887 133.177 49.2403 132.918 49.5001C132.659 49.7599 132.358 50.193 132.034 50.8209C131.646 51.5138 131.366 51.9902 131.194 52.25C131.043 52.5098 130.914 52.6614 130.871 52.7047C130.806 52.748 130.72 52.7913 130.612 52.7913H129.082C129.06 52.7913 129.06 52.7697 129.06 52.7264C129.06 52.6831 129.06 52.6614 129.082 52.6614C129.319 52.6614 129.513 52.5748 129.664 52.4232C129.815 52.2716 130.009 51.9685 130.267 51.5138L130.827 50.6044C131.129 50.0847 131.452 49.695 131.776 49.4785C132.099 49.2403 132.465 49.0887 132.918 49.0237C132.164 48.9588 131.582 48.7639 131.194 48.4608C130.806 48.1576 130.59 47.7462 130.59 47.2699C130.59 46.9234 130.698 46.5986 130.914 46.3388C131.129 46.0573 131.431 45.8624 131.797 45.6892C132.164 45.5377 132.595 45.451 133.069 45.451C133.241 45.451 133.435 45.4727 133.672 45.4944C133.759 45.4944 133.866 45.516 133.996 45.516C134.125 45.516 134.254 45.5377 134.405 45.5377C134.642 45.5377 134.944 45.5377 135.31 45.516L135.978 45.4944C136 45.4944 136 45.516 136 45.5593C136 45.6026 136 45.6243 135.978 45.6243C135.698 45.6243 135.483 45.6459 135.353 45.6892C135.224 45.7325 135.138 45.7975 135.116 45.9058C135.073 46.014 135.052 46.1872 135.052 46.4254V51.8169C135.052 52.0551 135.073 52.2283 135.116 52.3366C135.159 52.4449 135.246 52.5098 135.353 52.5531C135.483 52.5964 135.677 52.6181 135.978 52.6181C135.978 52.6397 135.978 52.6614 135.978 52.7047ZM132.336 48.2442C132.616 48.569 133.026 48.7423 133.565 48.7423H133.737V46.4038C133.737 45.8408 133.5 45.5377 133.026 45.5377C132.293 45.5377 131.927 45.9924 131.927 46.9018C131.927 47.4864 132.056 47.9195 132.336 48.2442Z" fill="white"/>
<path d="M146.258 52.7045C146.258 52.7478 146.237 52.7695 146.215 52.7695C145.935 52.7695 145.72 52.7694 145.569 52.7478L144.664 52.7261L143.608 52.7478C143.457 52.7478 143.284 52.7695 143.026 52.7695C143.004 52.7695 142.983 52.7478 142.983 52.7045C142.983 52.6612 143.004 52.6395 143.026 52.6395C143.306 52.6395 143.521 52.6179 143.651 52.5746C143.78 52.5313 143.866 52.4663 143.909 52.3581C143.952 52.2498 143.974 52.0766 143.974 51.8384V49.1318H140.224V51.8167C140.224 52.0549 140.246 52.2281 140.289 52.3364C140.332 52.4447 140.418 52.5313 140.547 52.5746C140.677 52.6179 140.892 52.6395 141.172 52.6395C141.194 52.6395 141.194 52.6612 141.194 52.7045C141.194 52.7478 141.194 52.7695 141.172 52.7695C140.892 52.7695 140.677 52.7694 140.526 52.7478L139.513 52.7261L138.629 52.7478C138.478 52.7478 138.263 52.7695 137.983 52.7695C137.961 52.7695 137.961 52.7478 137.961 52.7045C137.961 52.6612 137.961 52.6395 137.983 52.6395C138.263 52.6395 138.457 52.6179 138.586 52.5746C138.715 52.5313 138.802 52.4663 138.845 52.3364C138.888 52.2281 138.909 52.0549 138.909 51.8167V46.3819C138.909 46.1437 138.888 45.9705 138.845 45.8623C138.802 45.754 138.715 45.6674 138.586 45.6241C138.457 45.5808 138.263 45.5591 138.004 45.5591C137.983 45.5591 137.961 45.5375 137.961 45.4942C137.961 45.4509 137.983 45.4292 138.004 45.4292L138.629 45.4509C138.996 45.4725 139.276 45.4725 139.491 45.4725C139.793 45.4725 140.138 45.4725 140.526 45.4509L141.172 45.4292C141.194 45.4292 141.194 45.4509 141.194 45.4942C141.194 45.5375 141.194 45.5591 141.172 45.5591C140.892 45.5591 140.677 45.5808 140.547 45.6241C140.418 45.6674 140.332 45.754 140.267 45.8623C140.224 45.9705 140.181 46.1437 140.181 46.3819V48.7637H143.952V46.3819C143.952 46.1437 143.931 45.9705 143.888 45.8623C143.845 45.754 143.758 45.6674 143.629 45.6241C143.5 45.5808 143.284 45.5591 143.004 45.5591C142.983 45.5591 142.961 45.5375 142.961 45.4942C142.961 45.4509 142.983 45.4292 143.004 45.4292L143.586 45.4509C143.974 45.4725 144.319 45.4725 144.642 45.4725C144.858 45.4725 145.159 45.4725 145.547 45.4509L146.194 45.4292C146.215 45.4292 146.237 45.4509 146.237 45.4942C146.237 45.5375 146.215 45.5591 146.194 45.5591C145.935 45.5591 145.741 45.5808 145.612 45.6241C145.483 45.6674 145.396 45.754 145.353 45.8623C145.31 45.9705 145.289 46.1437 145.289 46.3819V51.8167C145.289 52.0549 145.31 52.2281 145.353 52.3364C145.396 52.4447 145.483 52.5313 145.612 52.5746C145.741 52.6179 145.935 52.6395 146.215 52.6395C146.237 52.6395 146.258 52.6612 146.258 52.7045Z" fill="white"/>
<path d="M150.267 52.4014C149.707 52.055 149.276 51.6002 148.952 51.0156C148.651 50.431 148.5 49.8031 148.5 49.1102C148.5 48.309 148.694 47.6162 149.103 47.0315C149.513 46.4469 150.03 46.0139 150.655 45.7324C151.28 45.4509 151.948 45.2993 152.595 45.2993C153.327 45.2993 153.974 45.4725 154.556 45.819C155.138 46.1654 155.547 46.6201 155.849 47.2048C156.151 47.7677 156.302 48.374 156.302 49.0236C156.302 49.7381 156.108 50.3877 155.741 50.994C155.375 51.5786 154.858 52.055 154.233 52.4014C153.608 52.7478 152.918 52.9211 152.185 52.9211C151.474 52.9211 150.827 52.7478 150.267 52.4014ZM153.758 52.2282C154.103 51.9683 154.383 51.6002 154.577 51.1239C154.771 50.6259 154.879 50.0413 154.879 49.37C154.879 48.6555 154.771 48.0059 154.556 47.4429C154.34 46.88 154.017 46.4253 153.608 46.1005C153.198 45.7757 152.702 45.6241 152.164 45.6241C151.452 45.6241 150.914 45.8839 150.526 46.4253C150.138 46.9666 149.944 47.7028 149.944 48.6771C149.944 49.435 150.052 50.1062 150.289 50.7125C150.526 51.3188 150.827 51.7735 151.237 52.1199C151.646 52.4664 152.099 52.6179 152.595 52.6179C153.026 52.6179 153.414 52.488 153.758 52.2282Z" fill="white"/>
<path d="M163.995 49.3051C164.383 49.6732 164.577 50.1062 164.577 50.6475C164.577 51.0589 164.47 51.427 164.233 51.7518C163.995 52.0766 163.672 52.3365 163.263 52.5313C162.853 52.7262 162.401 52.8128 161.883 52.8128C161.668 52.8128 161.409 52.7912 161.129 52.7695C161.021 52.7695 160.892 52.7479 160.72 52.7479C160.569 52.7479 160.375 52.7262 160.181 52.7262L159.319 52.7479C159.168 52.7479 158.952 52.7695 158.694 52.7695C158.672 52.7695 158.651 52.7479 158.651 52.7045C158.651 52.6612 158.672 52.6396 158.694 52.6396C158.909 52.6396 159.082 52.6179 159.211 52.5746C159.319 52.5313 159.405 52.4447 159.47 52.3365C159.513 52.2282 159.556 52.055 159.556 51.8168V46.382C159.556 46.0572 159.491 45.8406 159.383 45.7324C159.276 45.6241 159.06 45.5808 158.715 45.5808C158.694 45.5808 158.694 45.5592 158.694 45.5159C158.694 45.4726 158.694 45.4509 158.715 45.4509L159.34 45.4726C159.707 45.4942 159.987 45.4942 160.202 45.4942C160.418 45.4942 160.655 45.4726 160.87 45.4509C160.957 45.4509 161.064 45.4292 161.215 45.4292C161.366 45.4292 161.517 45.4076 161.625 45.4076C162.336 45.4076 162.875 45.5375 163.263 45.7973C163.651 46.0572 163.845 46.4253 163.845 46.9233C163.845 47.2914 163.715 47.6378 163.478 47.941C163.241 48.2441 162.875 48.4823 162.422 48.6555C163.09 48.7205 163.608 48.9586 163.995 49.3051ZM160.978 45.819C160.892 45.9273 160.849 46.1221 160.849 46.4036V48.6338L161.323 48.6555C161.733 48.6555 162.034 48.5039 162.25 48.2008C162.465 47.8977 162.573 47.5079 162.573 47.0315C162.573 46.5768 162.465 46.252 162.271 46.0139C162.077 45.7757 161.797 45.6674 161.431 45.6674C161.215 45.6674 161.064 45.7107 160.978 45.819ZM163.198 50.929C163.198 50.3228 163.047 49.8464 162.767 49.4999C162.487 49.1535 162.034 48.9803 161.452 48.9803C161.237 48.9803 161.021 48.9803 160.849 49.0019V51.8168C160.849 52.0766 160.892 52.2498 161 52.3581C161.108 52.4664 161.323 52.5097 161.668 52.5097C162.681 52.5313 163.198 51.99 163.198 50.929Z" fill="white"/>
<path d="M172.508 45.386C172.875 45.4509 173.177 45.5159 173.392 45.6242C173.457 45.6458 173.5 45.6675 173.521 45.7108C173.543 45.7541 173.564 45.7974 173.564 45.884L173.715 47.5079C173.715 47.5296 173.694 47.5512 173.651 47.5512C173.608 47.5512 173.586 47.5512 173.586 47.5079C173.327 46.88 172.961 46.4036 172.53 46.0789C172.077 45.7324 171.582 45.5808 170.978 45.5808C170.202 45.5808 169.62 45.8623 169.189 46.447C168.758 47.0099 168.564 47.7894 168.564 48.7421C168.564 49.4567 168.672 50.1279 168.909 50.7125C169.146 51.2971 169.47 51.7735 169.879 52.1199C170.289 52.4664 170.763 52.6396 171.302 52.6396C171.797 52.6396 172.25 52.4664 172.638 52.1416C173.026 51.8168 173.392 51.2971 173.694 50.6259C173.694 50.6043 173.737 50.5826 173.78 50.5826C173.823 50.5826 173.845 50.6043 173.845 50.6259L173.672 52.2282C173.651 52.3148 173.629 52.3798 173.629 52.4014C173.608 52.4231 173.564 52.4664 173.5 52.488C172.81 52.7479 172.099 52.8778 171.366 52.8778C170.418 52.8778 169.62 52.6829 168.974 52.3148C168.327 51.9251 167.875 51.4487 167.573 50.8641C167.271 50.2795 167.12 49.6732 167.12 49.0453C167.12 48.3091 167.314 47.6378 167.724 47.0749C168.133 46.5119 168.651 46.0572 169.319 45.7541C169.987 45.4509 170.698 45.2777 171.452 45.2777C171.776 45.2994 172.142 45.3427 172.508 45.386Z" fill="white"/>
<path d="M183.608 52.7045C183.608 52.7478 183.586 52.7695 183.565 52.7695H181.776C181.668 52.7695 181.582 52.7478 181.496 52.6829C181.409 52.6179 181.28 52.4664 181.065 52.1849C180.871 51.925 180.526 51.4487 180.073 50.7991L179.75 50.3444C179.47 49.9547 179.276 49.6732 179.146 49.4999C179.017 49.3484 178.866 49.2185 178.737 49.1535C178.586 49.0885 178.414 49.0452 178.177 49.0452V51.8168C178.177 52.055 178.198 52.2282 178.241 52.3364C178.284 52.4447 178.371 52.5313 178.5 52.5746C178.629 52.6179 178.823 52.6396 179.082 52.6396C179.103 52.6396 179.125 52.6612 179.125 52.7045C179.125 52.7478 179.103 52.7695 179.082 52.7695C178.802 52.7695 178.586 52.7695 178.435 52.7478L177.465 52.7262L176.603 52.7478C176.452 52.7478 176.237 52.7695 175.978 52.7695C175.957 52.7695 175.935 52.7478 175.935 52.7045C175.935 52.6612 175.957 52.6396 175.978 52.6396C176.237 52.6396 176.431 52.6179 176.56 52.5746C176.689 52.5313 176.776 52.4664 176.819 52.3364C176.862 52.2282 176.883 52.055 176.883 51.8168V46.382C176.883 46.1438 176.862 45.9706 176.819 45.8623C176.776 45.754 176.689 45.6674 176.56 45.6241C176.431 45.5808 176.237 45.5592 175.978 45.5592C175.957 45.5592 175.935 45.5375 175.935 45.4942C175.935 45.4509 175.957 45.4292 175.978 45.4292L176.603 45.4509C176.97 45.4726 177.25 45.4726 177.465 45.4726C177.724 45.4726 178.047 45.4726 178.457 45.4509L179.103 45.4292C179.125 45.4292 179.146 45.4509 179.146 45.4942C179.146 45.5375 179.125 45.5592 179.103 45.5592C178.845 45.5592 178.651 45.5808 178.521 45.6241C178.392 45.6674 178.306 45.754 178.263 45.8623C178.22 45.9706 178.198 46.1438 178.198 46.382V48.8504C178.414 48.8504 178.672 48.8287 178.996 48.8287L180.224 47.1398C180.547 46.6851 180.698 46.317 180.698 46.0139C180.698 45.8623 180.655 45.754 180.569 45.6674C180.483 45.5808 180.375 45.5375 180.224 45.5375C180.202 45.5375 180.202 45.5159 180.202 45.4726C180.202 45.4292 180.202 45.4076 180.224 45.4076L180.763 45.4292C181.108 45.4509 181.409 45.4509 181.668 45.4509C181.97 45.4509 182.293 45.4509 182.616 45.4292L183.112 45.4076C183.133 45.4076 183.155 45.4292 183.155 45.4726C183.155 45.5159 183.133 45.5375 183.112 45.5375C182.767 45.5375 182.379 45.6674 181.948 45.9056C181.517 46.1654 181.151 46.4686 180.871 46.8367L179.276 48.8287C179.577 48.8504 179.836 48.8937 180.03 49.0019C180.224 49.1102 180.418 49.2618 180.612 49.4566C180.806 49.6732 181.065 50.0196 181.431 50.5176L181.646 50.8208C181.97 51.2755 182.228 51.6219 182.422 51.8384C182.595 52.055 182.789 52.2498 182.983 52.3798C183.177 52.5097 183.392 52.5746 183.608 52.5963C183.586 52.6396 183.608 52.6612 183.608 52.7045Z" fill="white"/>
<path d="M186.754 52.4014C186.194 52.055 185.763 51.6002 185.439 51.0156C185.138 50.431 184.987 49.8031 184.987 49.1102C184.987 48.309 185.181 47.6162 185.59 47.0315C186 46.4469 186.517 46.0139 187.142 45.7324C187.767 45.4509 188.435 45.2993 189.082 45.2993C189.814 45.2993 190.461 45.4725 191.043 45.819C191.625 46.1654 192.034 46.6201 192.336 47.2048C192.638 47.7677 192.789 48.374 192.789 49.0236C192.789 49.7381 192.595 50.3877 192.228 50.994C191.862 51.5786 191.345 52.055 190.72 52.4014C190.095 52.7478 189.405 52.9211 188.672 52.9211C187.961 52.9211 187.314 52.7478 186.754 52.4014ZM190.246 52.2282C190.59 51.9683 190.871 51.6002 191.064 51.1239C191.258 50.6259 191.366 50.0413 191.366 49.37C191.366 48.6555 191.258 48.0059 191.043 47.4429C190.827 46.88 190.504 46.4253 190.095 46.1005C189.685 45.7757 189.189 45.6241 188.651 45.6241C187.939 45.6241 187.401 45.8839 187.013 46.4253C186.625 46.9666 186.431 47.7028 186.431 48.6771C186.431 49.435 186.539 50.1062 186.776 50.7125C187.013 51.3188 187.314 51.7735 187.724 52.1199C188.133 52.4664 188.586 52.6179 189.082 52.6179C189.491 52.6179 189.901 52.488 190.246 52.2282Z" fill="white"/>
<path d="M203.133 52.7047C203.133 52.748 203.112 52.7696 203.09 52.7696C202.81 52.7696 202.595 52.7696 202.444 52.748L201.539 52.7263L200.483 52.748C200.332 52.748 200.159 52.7696 199.901 52.7696C199.879 52.7696 199.858 52.748 199.858 52.7047C199.858 52.6614 199.879 52.6397 199.901 52.6397C200.181 52.6397 200.396 52.6181 200.526 52.5747C200.655 52.5314 200.741 52.4665 200.784 52.3582C200.827 52.25 200.849 52.0767 200.849 51.8386V47.3998L197.207 51.3189V51.8602C197.207 52.0984 197.228 52.2716 197.271 52.3799C197.315 52.4881 197.401 52.5748 197.53 52.6181C197.659 52.6614 197.875 52.683 198.155 52.683C198.177 52.683 198.177 52.7047 198.177 52.748C198.177 52.7913 198.177 52.8129 198.155 52.8129C197.875 52.8129 197.659 52.8129 197.508 52.7913L196.496 52.7696L195.612 52.7913C195.461 52.7913 195.246 52.8129 194.965 52.8129C194.944 52.8129 194.944 52.7913 194.944 52.748C194.944 52.7047 194.944 52.683 194.965 52.683C195.246 52.683 195.44 52.6614 195.569 52.6181C195.698 52.5748 195.784 52.5098 195.827 52.3799C195.871 52.2716 195.892 52.0984 195.892 51.8602V46.4254C195.892 46.1872 195.871 46.014 195.827 45.9057C195.784 45.7975 195.698 45.7109 195.569 45.6675C195.44 45.6242 195.246 45.6026 194.987 45.6026C194.965 45.6026 194.944 45.5809 194.944 45.5376C194.944 45.4943 194.965 45.4727 194.987 45.4727L195.612 45.4943C195.978 45.516 196.258 45.516 196.474 45.516C196.776 45.516 197.121 45.516 197.508 45.4943L198.155 45.4727C198.177 45.4727 198.177 45.4943 198.177 45.5376C198.177 45.5809 198.177 45.6026 198.155 45.6026C197.875 45.6026 197.659 45.6242 197.53 45.6675C197.401 45.7109 197.315 45.7975 197.25 45.9057C197.207 46.014 197.164 46.1872 197.164 46.4254V50.8209L200.806 46.9234V46.4037C200.806 46.1656 200.784 45.9923 200.741 45.8841C200.698 45.7758 200.612 45.6892 200.483 45.6459C200.353 45.6026 200.138 45.5809 199.858 45.5809C199.836 45.5809 199.815 45.5593 199.815 45.516C199.815 45.4727 199.836 45.451 199.858 45.451L200.44 45.4727C200.827 45.4943 201.172 45.4943 201.496 45.4943C201.711 45.4943 202.013 45.4943 202.401 45.4727L203.047 45.451C203.069 45.451 203.09 45.4727 203.09 45.516C203.09 45.5593 203.069 45.5809 203.047 45.5809C202.789 45.5809 202.595 45.6026 202.465 45.6459C202.336 45.6892 202.25 45.7758 202.207 45.8841C202.164 45.9923 202.142 46.1656 202.142 46.4037V51.8169C202.142 52.0551 202.164 52.2283 202.207 52.3366C202.25 52.4448 202.336 52.5314 202.465 52.5747C202.595 52.6181 202.789 52.6397 203.047 52.6397C203.133 52.6397 203.133 52.6614 203.133 52.7047ZM198.263 44.7798C198.004 44.6715 197.789 44.5416 197.616 44.3684C197.444 44.1952 197.379 44.0219 197.379 43.8271C197.379 43.6755 197.422 43.5672 197.508 43.4806C197.595 43.394 197.724 43.3507 197.896 43.3507C198.069 43.3507 198.198 43.394 198.263 43.5023C198.327 43.6105 198.392 43.7838 198.457 44.0003C198.521 44.2385 198.608 44.4117 198.694 44.5416C198.78 44.6499 198.909 44.7148 199.103 44.7148C199.297 44.7148 199.448 44.6499 199.534 44.5416C199.621 44.4117 199.707 44.2385 199.793 44.0003C199.858 43.7838 199.944 43.6105 200.008 43.5239C200.073 43.4157 200.202 43.3724 200.375 43.3724C200.547 43.3724 200.655 43.4157 200.741 43.5023C200.827 43.5889 200.871 43.6972 200.871 43.8487C200.871 44.0436 200.784 44.2168 200.633 44.39C200.461 44.5633 200.246 44.6932 199.987 44.7798C199.728 44.888 199.448 44.9314 199.125 44.9314C198.802 44.9314 198.521 44.888 198.263 44.7798Z" fill="white"/>
<path d="M204 59H51V60H204V59Z" fill="#FBC471"/>
<path d="M204 16H51V17H204V16Z" fill="#FBC471"/>
<path fill-rule="evenodd" clip-rule="evenodd" d="M34.1898 18.5014C37.2224 17.0868 40.5078 21.6027 38.0167 27.9685C34.8757 36.0572 21.5176 50.0401 11.4628 49.1696C6.71528 48.7706 4.87402 44.2547 5.92101 39.7025C6.94995 35.2411 8.6829 32.6476 10.9755 28.8209C12.3654 26.5176 17.0408 21.2037 15.7591 18.5195C13.6471 14.0762 4.76571 18.7916 7.79837 21.784C9.06198 22.8722 10.0007 21.6389 12.1127 21.385C11.9502 27.3881 -3.80879 42.8582 0.866566 55.0276C3.24937 61.2301 10.47 60.9218 16.7881 57.9475C30.5073 51.4548 47.3494 24.7584 38.1431 16.7059C32.529 11.791 24.2975 16.452 27.0053 23.1261C29.3159 28.839 36.8975 27.6239 36.4823 22.4369C36.2838 19.2812 34.6591 21.0949 34.1898 18.5014Z" fill="#FBC471"/>
<path fill-rule="evenodd" clip-rule="evenodd" d="M9.802 45.7963C11.0656 44.7444 11.7155 43.366 12.3834 41.9152C15.3438 35.5494 20.7413 24.976 23.792 20.0974C37.5292 -1.82923 38.4679 12.3351 43.1613 0.0750666C35.4533 -1.19446 26.1567 13.9855 23.0338 19.3719C20.0192 24.5407 10.7226 41.9152 9.802 45.7963Z" fill="#FBC471"/>
<path fill-rule="evenodd" clip-rule="evenodd" d="M17.4561 43.1667C19.0085 42.2417 24.0449 32.3575 25.9583 29.1474C26.536 28.1862 26.9512 27.5877 27.3483 26.8804L26.3735 25.9192C24.9836 27.9504 17.6907 41.607 17.4561 43.1667Z" fill="#FBC471"/>
<path fill-rule="evenodd" clip-rule="evenodd" d="M21.8605 40.9357C22.6006 40.4461 25.4889 36.0571 26.1749 34.969L29.5505 29.1472C29.388 28.9478 29.1714 28.7664 28.6479 28.4399C27.8898 29.4737 27.4746 30.2536 26.8608 31.3599C25.7236 33.3548 22.0049 39.6481 21.8605 40.9357Z" fill="#FBC471"/>
<path fill-rule="evenodd" clip-rule="evenodd" d="M13.4666 44.3817C14.2789 43.7106 24.1712 26.1367 25.3084 23.8878L24.2253 22.9991C22.8354 24.9941 13.6832 42.822 13.4666 44.3817Z" fill="#FBC471"/>
</g>
<defs>
<clipPath id="clip0">
<rect width="204" height="60" fill="white"/>
</clipPath>
</defs>
</svg>
