<svg width="50" height="50" viewBox="0 0 50 50" fill="none" xmlns="http://www.w3.org/2000/svg">
<path d="M16.7243 4.68362V31.7818C15.5317 31.3725 14.2559 31.1642 12.9687 31.1688C9.7331 31.1688 6.44898 32.3871 3.93678 34.5112C-0.750204 38.4685 -1.33493 44.4134 2.62867 47.7635C3.50851 48.4889 4.54967 49.0598 5.69208 49.4435C6.83449 49.8272 8.05553 50.016 9.28475 49.9989C12.5203 49.9989 15.8045 48.7807 18.3167 46.6585C20.5076 44.8097 21.8873 42.4669 22.204 40.0616C22.2473 39.7225 22.2689 39.3817 22.2687 39.0406V13.2758L44.4556 10.1521V27.1021C43.2638 26.6929 41.9888 26.4847 40.7023 26.4891C37.4667 26.4891 34.1803 27.7073 31.6681 29.8295C26.9811 33.7869 26.3964 39.7336 30.36 43.0819C31.2394 43.8078 32.2804 44.3793 33.4229 44.7634C34.5654 45.1474 35.7866 45.3363 37.0161 45.3192C40.2516 45.3192 43.5358 44.101 46.048 41.9769C48.2389 40.128 49.6187 37.7852 49.9353 35.3819C49.9785 35.0428 50.0001 34.7019 50 34.3609V0L16.7243 4.68362Z" fill="#FBC471"/>
</svg>
