<svg width="55" height="15" viewBox="0 0 55 15" fill="none" xmlns="http://www.w3.org/2000/svg">
<path d="M7.092 14.18C5.724 14.18 4.59 13.904 3.69 13.352C2.79 12.8 2.112 12.026 1.656 11.03C1.212 10.034 0.99 8.87 0.99 7.538C0.99 6.206 1.212 5.048 1.656 4.064C2.112 3.08 2.79 2.318 3.69 1.778C4.602 1.226 5.742 0.95 7.11 0.95C8.406 0.95 9.504 1.226 10.404 1.778C11.316 2.318 12.006 3.086 12.474 4.082C12.942 5.066 13.176 6.224 13.176 7.556C13.176 8.888 12.936 10.052 12.456 11.048C11.988 12.032 11.304 12.8 10.404 13.352C9.504 13.904 8.4 14.18 7.092 14.18ZM7.092 13.01C8.22 13.01 9.012 12.53 9.468 11.57C9.924 10.61 10.152 9.272 10.152 7.556C10.152 5.84 9.924 4.508 9.468 3.56C9.012 2.6 8.226 2.12 7.11 2.12C5.982 2.12 5.184 2.6 4.716 3.56C4.248 4.508 4.014 5.84 4.014 7.556C4.014 9.272 4.248 10.61 4.716 11.57C5.184 12.53 5.976 13.01 7.092 13.01ZM14.528 14V13.046H14.582C14.99 13.046 15.32 12.974 15.572 12.83C15.836 12.674 15.968 12.314 15.968 11.75V6.53C15.968 6.002 15.848 5.666 15.608 5.522C15.38 5.378 15.068 5.306 14.672 5.306H14.618V4.352H18.254L18.614 5.756H18.704C18.944 5.216 19.244 4.814 19.604 4.55C19.964 4.274 20.51 4.136 21.242 4.136C22.622 4.136 23.312 4.622 23.312 5.594C23.312 6.146 23.108 6.578 22.7 6.89C22.304 7.19 21.746 7.34 21.026 7.34C21.026 6.848 20.966 6.476 20.846 6.224C20.726 5.972 20.492 5.846 20.144 5.846C19.832 5.846 19.58 5.954 19.388 6.17C19.196 6.386 19.052 6.656 18.956 6.98C18.86 7.292 18.794 7.61 18.758 7.934C18.722 8.258 18.704 8.522 18.704 8.726V11.84C18.704 12.368 18.824 12.704 19.064 12.848C19.304 12.98 19.604 13.046 19.964 13.046H20.54V14H14.528ZM30.7358 14.18C30.0398 14.18 29.4698 14.036 29.0258 13.748C28.5938 13.448 28.2458 13.064 27.9818 12.596H27.8198L27.3158 14H23.8958V13.046H24.0218C24.2498 13.046 24.4658 13.016 24.6698 12.956C24.8858 12.896 25.0598 12.776 25.1918 12.596C25.3238 12.416 25.3898 12.146 25.3898 11.786V2.48C25.3898 1.964 25.2458 1.634 24.9578 1.49C24.6818 1.346 24.3518 1.274 23.9678 1.274H23.8958V0.319999H28.1258V3.398C28.1258 3.578 28.1198 3.806 28.1078 4.082C28.0958 4.346 28.0778 4.616 28.0538 4.892C28.0298 5.168 28.0058 5.396 27.9818 5.576H28.1078C28.3718 5.132 28.7138 4.784 29.1338 4.532C29.5658 4.268 30.1238 4.136 30.8078 4.136C31.9838 4.136 32.8778 4.538 33.4898 5.342C34.1138 6.134 34.4258 7.4 34.4258 9.14C34.4258 10.88 34.1078 12.158 33.4718 12.974C32.8478 13.778 31.9358 14.18 30.7358 14.18ZM29.9798 12.83C30.5798 12.83 31.0058 12.512 31.2578 11.876C31.5218 11.24 31.6538 10.322 31.6538 9.122C31.6538 7.898 31.5218 6.986 31.2578 6.386C30.9938 5.774 30.5618 5.468 29.9618 5.468C29.2538 5.468 28.7678 5.768 28.5038 6.368C28.2518 6.968 28.1258 7.892 28.1258 9.14C28.1258 10.328 28.2518 11.24 28.5038 11.876C28.7678 12.512 29.2598 12.83 29.9798 12.83ZM40.7693 14.18C39.3293 14.18 38.1953 13.766 37.3673 12.938C36.5393 12.098 36.1253 10.832 36.1253 9.14C36.1253 7.448 36.5213 6.188 37.3133 5.36C38.1053 4.532 39.2753 4.118 40.8233 4.118C42.2633 4.118 43.3973 4.532 44.2253 5.36C45.0533 6.188 45.4673 7.448 45.4673 9.14C45.4673 10.832 45.0653 12.098 44.2613 12.938C43.4693 13.766 42.3053 14.18 40.7693 14.18ZM40.8053 13.046C41.5013 13.046 41.9873 12.716 42.2633 12.056C42.5393 11.384 42.6773 10.412 42.6773 9.14C42.6773 7.856 42.5333 6.89 42.2453 6.242C41.9693 5.594 41.4833 5.27 40.7873 5.27C40.0913 5.27 39.6053 5.594 39.3293 6.242C39.0533 6.89 38.9153 7.856 38.9153 9.14C38.9153 10.412 39.0533 11.384 39.3293 12.056C39.6173 12.716 40.1093 13.046 40.8053 13.046ZM50.4764 14.18C49.1684 14.18 48.2384 13.982 47.6864 13.586C47.1344 13.178 46.8584 12.674 46.8584 12.074C46.8584 11.678 46.9544 11.384 47.1464 11.192C47.3384 11 47.5664 10.874 47.8304 10.814C48.0944 10.742 48.3284 10.706 48.5324 10.706C48.5324 11.45 48.7064 12.038 49.0544 12.47C49.4144 12.902 49.8884 13.118 50.4764 13.118C51.1004 13.118 51.5504 12.998 51.8264 12.758C52.1144 12.518 52.2584 12.23 52.2584 11.894C52.2584 11.498 52.1024 11.174 51.7904 10.922C51.4784 10.67 50.8964 10.394 50.0444 10.094C49.0724 9.758 48.3284 9.362 47.8124 8.906C47.2964 8.438 47.0384 7.802 47.0384 6.998C47.0384 6.038 47.3924 5.324 48.1004 4.856C48.8084 4.376 49.7444 4.136 50.9084 4.136C51.6644 4.136 52.2704 4.22 52.7264 4.388C53.1944 4.544 53.5304 4.754 53.7344 5.018C53.9504 5.27 54.0584 5.534 54.0584 5.81C54.0584 6.218 53.9144 6.53 53.6264 6.746C53.3504 6.95 52.8824 7.052 52.2224 7.052C52.2224 6.452 52.0904 5.99 51.8264 5.666C51.5624 5.33 51.1664 5.162 50.6384 5.162C50.2544 5.162 49.9124 5.258 49.6124 5.45C49.3244 5.63 49.1804 5.906 49.1804 6.278C49.1804 6.53 49.2464 6.752 49.3784 6.944C49.5224 7.136 49.7744 7.322 50.1344 7.502C50.4944 7.682 50.9984 7.886 51.6464 8.114C52.4504 8.39 53.1044 8.756 53.6084 9.212C54.1244 9.656 54.3824 10.256 54.3824 11.012C54.3824 12.008 54.0404 12.788 53.3564 13.352C52.6844 13.904 51.7244 14.18 50.4764 14.18Z" fill="white"/>
</svg>
