<svg width="198" height="27" viewBox="0 0 198 27" fill="none" xmlns="http://www.w3.org/2000/svg">
<path d="M24.919 19.1341C23.9546 18.1688 22.6903 17.6151 21.4509 17.6151C20.957 17.6131 20.4675 17.7078 20.01 17.8937V11.2547C20.4397 11.7934 20.9107 12.2977 21.4189 12.763C22.4836 13.7451 23.0248 14.9118 23.0159 16.2338V16.2355H25.1452C25.1523 14.3192 24.3609 12.5758 22.8571 11.1935C20.9939 9.47943 20.0074 7.53466 20.0074 5.5686H17.8781V21.1924C17.878 21.3474 17.8863 21.5023 17.9029 21.6564C18.0244 22.7494 18.5541 23.8141 19.3943 24.6543C20.3631 25.6187 21.6274 26.1723 22.866 26.1723C23.3378 26.1799 23.8065 26.0941 24.2451 25.9197C24.6836 25.7454 25.0833 25.486 25.4211 25.1564C26.9427 23.634 26.7173 20.9324 24.919 19.1341Z" fill="#FBC471"/>
<path d="M6.41976 17.8937C5.96225 17.7078 5.47278 17.6131 4.97893 17.6151C3.73684 17.6151 2.47611 18.1688 1.51083 19.1341C-0.287551 20.9324 -0.512902 23.634 1.00955 25.1564C1.34714 25.486 1.74668 25.7455 2.18508 25.9198C2.62349 26.0942 3.09209 26.18 3.56383 26.1723C4.80593 26.1723 6.06665 25.6187 7.03194 24.6543C7.87213 23.8141 8.40179 22.7494 8.52334 21.6564C8.54041 21.5023 8.54871 21.3474 8.54818 21.1924V5.5686H6.41887L6.41976 17.8937Z" fill="#FBC471"/>
<path d="M11.3562 25.0964C11.3562 25.307 11.2938 25.5128 11.1768 25.6879C11.0598 25.863 10.8935 25.9994 10.699 26.08C10.5045 26.1606 10.2904 26.1817 10.0839 26.1406C9.87736 26.0995 9.68765 25.9981 9.53876 25.8492C9.38986 25.7003 9.28847 25.5106 9.24739 25.3041C9.20631 25.0976 9.22739 24.8835 9.30797 24.689C9.38855 24.4944 9.52501 24.3282 9.70009 24.2112C9.87517 24.0942 10.081 24.0317 10.2916 24.0317C10.5739 24.0317 10.8447 24.1439 11.0444 24.3436C11.2441 24.5432 11.3562 24.814 11.3562 25.0964Z" fill="#FBC471"/>
<path d="M72.4906 6.29907C69.0305 6.29907 67.1674 8.78326 67.1674 11.1255C67.1674 12.2895 67.532 13.2903 68.2214 14.0214C68.9311 14.7737 69.9168 15.1747 71.0711 15.1747C71.4342 15.1748 71.7912 15.082 72.1083 14.9053C72.4254 14.7285 72.6921 14.4735 72.8829 14.1647C73.0738 13.8558 73.1825 13.5033 73.1987 13.1406C73.2149 12.7779 73.1381 12.417 72.9756 12.0924C72.8131 11.7677 72.5703 11.49 72.2702 11.2856C71.9702 11.0812 71.6228 10.9569 71.2612 10.9246C70.8996 10.8922 70.5357 10.9529 70.2041 11.1008C69.8725 11.2487 69.5843 11.4789 69.3668 11.7696C69.3191 11.5595 69.2956 11.3445 69.2967 11.129C69.2967 9.78847 70.3941 8.43193 72.4906 8.43193C75.1647 8.43193 77.1041 10.9693 77.1041 14.465C77.1041 17.8044 75.6447 19.8929 74.4194 21.0569C72.9165 22.4845 70.8706 23.3371 68.9418 23.3371V25.4664C71.4384 25.4664 73.9687 24.4221 75.886 22.6007C78.0446 20.5495 79.2334 17.6607 79.2334 14.465C79.2334 12.1964 78.5565 10.1274 77.3259 8.64042C76.0838 7.13216 74.3617 6.30262 72.4906 6.30262V6.29907Z" fill="#FBC471"/>
<path d="M83.492 10.5578C83.492 10.7684 83.4295 10.9742 83.3126 11.1493C83.1956 11.3244 83.0293 11.4608 82.8347 11.5414C82.6402 11.622 82.4261 11.6431 82.2196 11.602C82.0131 11.5609 81.8234 11.4595 81.6745 11.3106C81.5256 11.1617 81.4242 10.972 81.3831 10.7655C81.342 10.559 81.3631 10.3449 81.4437 10.1504C81.5243 9.95585 81.6608 9.78958 81.8358 9.67259C82.0109 9.5556 82.2168 9.49316 82.4273 9.49316C82.7097 9.49316 82.9805 9.60533 83.1801 9.80499C83.3798 10.0047 83.492 10.2755 83.492 10.5578Z" fill="#FBC471"/>
<path d="M83.492 14.8166C83.492 15.0272 83.4295 15.233 83.3126 15.4081C83.1956 15.5832 83.0293 15.7196 82.8347 15.8002C82.6402 15.8808 82.4261 15.9019 82.2196 15.8608C82.0131 15.8197 81.8234 15.7183 81.6745 15.5694C81.5256 15.4205 81.4242 15.2308 81.3831 15.0243C81.342 14.8178 81.3631 14.6037 81.4437 14.4092C81.5243 14.2146 81.6608 14.0484 81.8358 13.9314C82.0109 13.8144 82.2168 13.752 82.4273 13.752C82.7097 13.752 82.9805 13.8641 83.1801 14.0638C83.3798 14.2634 83.492 14.5342 83.492 14.8166Z" fill="#FBC471"/>
<path d="M99.1359 5.57979V17.8943C98.6783 17.7083 98.1889 17.6137 97.695 17.6157C96.4529 17.6157 95.1922 18.1693 94.2269 19.1337C92.4285 20.933 92.2032 23.6345 93.7248 25.157C94.0626 25.4865 94.4623 25.7459 94.9008 25.9203C95.3393 26.0946 95.8081 26.1805 96.2799 26.1728C97.522 26.1728 98.7827 25.6192 99.748 24.6548C100.588 23.8137 101.118 22.7491 101.239 21.6569C101.256 21.5029 101.265 21.3479 101.264 21.1929V11.9659H109.781V17.8925C109.324 17.7065 108.835 17.6119 108.341 17.6139C107.099 17.6139 105.838 18.1675 104.873 19.1319C103.074 20.9312 102.849 23.6327 104.37 25.1552C104.708 25.4847 105.108 25.7442 105.546 25.9185C105.985 26.0929 106.454 26.1787 106.926 26.1711C108.168 26.1711 109.428 25.6174 110.394 24.653C111.234 23.812 111.764 22.7473 111.885 21.6552C111.902 21.5011 111.91 21.3462 111.91 21.1911V11.9642H120.427V17.8907C119.97 17.7048 119.48 17.6101 118.986 17.6121C117.744 17.6121 116.483 18.1658 115.518 19.1302C113.72 20.9294 113.494 23.631 115.016 25.1534C115.354 25.483 115.754 25.7424 116.192 25.9167C116.631 26.0911 117.099 26.1769 117.571 26.1693C118.813 26.1693 120.074 25.6157 121.039 24.6513C121.879 23.8102 122.409 22.7455 122.531 21.6534C122.548 21.4993 122.556 21.3444 122.556 21.1894V5.57446L99.1359 5.57979ZM101.265 9.8384V7.70909H109.782V9.8384H101.265ZM120.429 9.8384H111.912V7.70909H120.429V9.8384Z" fill="#FBC471"/>
<path d="M185.226 4.78125V17.0957C184.768 16.9097 184.278 16.8151 183.784 16.8172C182.542 16.8172 181.281 17.3708 180.317 18.3361C178.518 20.1344 178.293 22.836 179.815 24.3584C180.153 24.6881 180.552 24.9475 180.991 25.1219C181.429 25.2962 181.898 25.382 182.37 25.3743C183.612 25.3743 184.873 24.8207 185.837 23.8563C186.678 23.0161 187.208 21.9514 187.33 20.8584C187.346 20.7043 187.354 20.5494 187.354 20.3944V8.68586L195.872 7.26633V14.9691C195.414 14.7831 194.925 14.6885 194.431 14.6905C193.189 14.6905 191.927 15.2441 190.963 16.2085C189.163 18.0069 188.939 20.7093 190.46 22.2309C190.798 22.5608 191.198 22.8205 191.636 22.995C192.075 23.1696 192.544 23.2554 193.016 23.2477C194.258 23.2477 195.518 22.694 196.483 21.7287C197.324 20.8886 197.854 19.8239 197.975 18.7318C197.992 18.5776 198 18.4227 198 18.2677V2.65283L185.226 4.78125Z" fill="#FBC471"/>
<path d="M162.726 17.894C162.268 17.708 161.778 17.6133 161.284 17.6154C160.042 17.6154 158.781 18.169 157.817 19.1343C156.019 20.9327 155.793 23.6342 157.315 25.1567C157.653 25.4862 158.052 25.7456 158.491 25.92C158.929 26.0943 159.398 26.1802 159.87 26.1725C161.112 26.1725 162.373 25.6189 163.338 24.6545C164.178 23.8143 164.708 22.7497 164.829 21.6566C164.846 21.5025 164.854 21.3476 164.854 21.1926V5.56885H162.725L162.726 17.894ZM162.713 21.4215C162.646 22.0266 162.325 22.6556 161.832 23.1489C161.272 23.7088 160.538 24.0432 159.87 24.0432C159.57 24.0432 159.145 23.9749 158.821 23.6511C158.141 22.9706 158.371 21.5919 159.322 20.6399C159.882 20.0792 160.616 19.7456 161.285 19.7456C161.584 19.7456 162.01 19.813 162.334 20.1377C162.743 20.5458 162.747 21.1137 162.713 21.4215Z" fill="#FBC471"/>
<path d="M167.694 25.0964C167.694 25.307 167.632 25.5128 167.515 25.6879C167.398 25.863 167.232 25.9994 167.037 26.08C166.842 26.1606 166.628 26.1817 166.422 26.1406C166.215 26.0995 166.026 25.9981 165.877 25.8492C165.728 25.7003 165.626 25.5106 165.585 25.3041C165.544 25.0976 165.565 24.8835 165.646 24.689C165.727 24.4944 165.863 24.3282 166.038 24.2112C166.213 24.0942 166.419 24.0317 166.63 24.0317C166.912 24.0317 167.183 24.1439 167.382 24.3436C167.582 24.5432 167.694 24.814 167.694 25.0964Z" fill="#FBC471"/>
<path d="M57.4574 19.1343C56.493 18.169 55.2288 17.6154 53.9893 17.6154C53.4955 17.6134 53.006 17.708 52.5485 17.894V5.56885H50.4192V21.1926C50.419 21.3477 50.4276 21.5026 50.4449 21.6566C50.5656 22.7497 51.0961 23.8143 51.9363 24.6545C52.9016 25.6189 54.1659 26.1725 55.4044 26.1725C55.8763 26.1803 56.345 26.0945 56.7836 25.9201C57.2222 25.7458 57.6218 25.4863 57.9596 25.1567C59.4812 23.6342 59.2567 20.9327 57.4574 19.1343Z" fill="#FBC471"/>
<path d="M42.6986 5.5686H40.5693V17.8937C40.111 17.7074 39.6205 17.6127 39.1258 17.6151C37.8837 17.6151 36.623 18.1688 35.6577 19.1341C33.8593 20.9324 33.6339 23.634 35.1564 25.1564C35.4943 25.4864 35.8943 25.746 36.3332 25.9204C36.7721 26.0947 37.2412 26.1804 37.7133 26.1723C38.9554 26.1723 40.2162 25.6187 41.1814 24.6543C42.0216 23.8141 42.5513 22.7494 42.6728 21.6564C42.6902 21.5023 42.6988 21.3474 42.6986 21.1924V5.5686Z" fill="#FBC471"/>
<path d="M143.683 19.2223C142.719 18.2579 141.455 17.7043 140.215 17.7043C139.721 17.7023 139.232 17.7969 138.774 17.9829V11.3439C139.204 11.8826 139.675 12.3868 140.183 12.8521C141.248 13.8343 141.789 15.001 141.78 16.3229V16.3247H143.909C143.916 15.3575 143.707 14.401 143.296 13.5255C144.346 11.099 144.205 7.99909 141.621 5.62403C139.758 3.90994 138.772 1.96517 138.772 0H136.642V21.2815C136.642 21.4365 136.651 21.5914 136.667 21.7455C136.789 22.8386 137.318 23.9023 138.159 24.7434C139.124 25.7078 140.388 26.2614 141.627 26.2614C142.099 26.2691 142.567 26.1832 143.006 26.0089C143.444 25.8345 143.844 25.5751 144.182 25.2456C145.703 23.7231 145.478 21.0216 143.68 19.2223H143.683ZM140.181 7.19173C141.594 8.49061 141.935 10.0157 141.723 11.3776L141.622 11.2818C139.767 9.57655 138.783 7.64421 138.773 5.68613C139.202 6.2246 139.673 6.72887 140.181 7.19439V7.19173Z" fill="#FBC471"/>
</svg>
