<svg width="154" height="154" viewBox="0 0 154 154" fill="none" xmlns="http://www.w3.org/2000/svg">
<path d="M124.842 51.9046L117.036 48.572L110.688 40.1059V7.21875C110.688 6.58057 110.434 5.96853 109.983 5.51727C109.531 5.06601 108.919 4.8125 108.281 4.8125H62.5625C61.9243 4.8125 61.3123 5.06601 60.861 5.51727C60.4098 5.96853 60.1563 6.58057 60.1563 7.21875V15.5805C58.3555 13.9381 56.1745 12.7693 53.8098 12.1792L43.8969 9.7002C43.4786 9.59552 43.0399 9.60517 42.6266 9.72814C42.2133 9.8511 41.8407 10.0829 41.5476 10.3992C41.2546 10.7155 41.0519 11.1047 40.9608 11.5262C40.8698 11.9476 40.8936 12.3858 41.0299 12.7949L43.0334 18.8036C44.0946 21.9619 46.1989 24.6651 49.0003 26.4688C46.1975 28.2734 44.0925 30.9784 43.0316 34.1387L41.0281 40.1474C40.9079 40.5091 40.8753 40.8942 40.9331 41.271C40.9909 41.6477 41.1373 42.0054 41.3604 42.3145C41.5835 42.6236 41.8768 42.8752 42.2162 43.0487C42.5556 43.2223 42.9313 43.3127 43.3125 43.3125C43.5095 43.3126 43.7057 43.2882 43.8966 43.2397L53.8095 40.7607C56.1742 40.1711 58.3553 39.0027 60.1563 37.3606V57.1821L56.6149 64.2649C55.7752 65.9317 55.3397 67.7727 55.3438 69.639V108.306C55.3509 110.047 55.5197 111.784 55.8479 113.494L61.8406 143.385C62.1727 145.018 63.0574 146.486 64.3457 147.543C65.6341 148.6 67.2474 149.181 68.9138 149.188H82.4141C83.902 149.182 85.3517 148.716 86.5648 147.855C87.778 146.993 88.6953 145.778 89.1913 144.375H99.8359C102.097 144.374 104.317 143.776 106.273 142.641C108.229 141.507 109.85 139.877 110.974 137.915C115.51 129.948 117.899 120.94 117.906 111.772C117.908 99.2411 122.461 87.1376 130.72 77.7132C132.414 75.7682 133.626 73.4503 134.255 70.9485C134.884 68.4467 134.914 65.8316 134.341 63.3161C133.769 60.8007 132.61 58.4562 130.959 56.4734C129.309 54.4906 127.214 52.9257 124.844 51.9061L124.842 51.9046ZM112.818 50.9662L105.938 71.6061L90.5249 57.6014L107.817 44.2997L112.818 50.9662ZM105.875 39.723L89.0312 52.6776V46.7185L105.875 33.7636V39.723ZM89.0312 68.2879V62.7586L104.275 76.597L102.855 80.8437L89.0312 68.2879ZM81.3012 69.1397L84.2188 66.8937V71.7854L81.3012 69.1397ZM84.2188 54.8652V60.8249L60.1563 79.3344V73.3729L84.2188 54.8652ZM84.2188 33.6875V48.7909L77.6798 53.8206L64.9688 42.251V33.6875H84.2188ZM64.9688 48.7566L73.8075 56.7986L70.5149 59.3315L64.9688 54.2826V48.7566ZM84.2188 28.875H74.1489C74.74 27.3253 74.74 25.6122 74.1489 24.0625H84.2188V28.875ZM69.7813 26.4688C69.7813 26.9447 69.6401 27.4099 69.3757 27.8056C69.1113 28.2013 68.7355 28.5097 68.2958 28.6918C67.8561 28.874 67.3723 28.9216 66.9056 28.8288C66.4388 28.7359 66.01 28.5067 65.6735 28.1702C65.337 27.8337 65.1078 27.405 65.015 26.9382C64.9221 26.4714 64.9698 25.9876 65.1519 25.5479C65.334 25.1082 65.6425 24.7324 66.0382 24.468C66.4339 24.2036 66.8991 24.0625 67.375 24.0625C68.013 24.0631 68.6247 24.3168 69.0759 24.7679C69.527 25.219 69.7807 25.8307 69.7813 26.4688ZM66.639 62.3132L60.7656 66.8309C60.8219 66.7006 60.8471 66.5575 60.9115 66.4314L64.1184 60.0176L66.639 62.3132ZM60.1563 85.4056L77.4262 72.1204L84.3899 78.4368L87.0599 97.1304L81.9996 108.959C81.4781 110.175 80.6145 111.213 79.5137 111.948C78.413 112.682 77.1226 113.08 75.7996 113.094C74.4765 113.109 73.1779 112.738 72.0617 112.028C70.9455 111.317 70.0598 110.298 69.5124 109.093L60.1563 88.5115V85.4056ZM92.539 101.455L89.0312 77.2172V74.7866L101.186 85.8282C99.2639 91.5139 96.3345 96.8072 92.5375 101.455H92.539ZM105.875 9.625V27.6899L89.0312 40.6464V9.625H105.875ZM84.2188 9.625V19.25H64.9688V9.625H84.2188ZM47.5971 17.2793L46.9802 15.4301L52.64 16.8438C52.64 16.8438 52.64 16.8438 52.64 16.8462C54.3854 17.2795 55.9798 18.1803 57.2516 19.4518C58.5235 20.7232 59.4248 22.3172 59.8588 24.0625H57.0059C54.9237 24.064 52.894 23.4095 51.205 22.1918C49.516 20.9741 48.2536 19.2552 47.5971 17.2793ZM52.6412 36.0938C52.6412 36.0962 52.6412 36.0962 52.6412 36.0962L46.9814 37.5098L47.5983 35.6606C48.2546 33.6841 49.517 31.9646 51.2062 30.7465C52.8955 29.5283 54.9256 28.8735 57.0083 28.875H59.8612C59.4275 30.6209 58.5262 32.2155 57.2541 33.4874C55.9819 34.7593 54.3872 35.6604 52.6412 36.0938ZM84.8576 141.698L84.7908 142.288C84.7137 142.864 84.4305 143.393 83.9936 143.777C83.5566 144.161 82.9955 144.373 82.4141 144.375H68.9138C68.3577 144.372 67.8198 144.177 67.3905 143.823C66.9612 143.47 66.6669 142.979 66.5569 142.434L60.5713 112.577C60.3012 111.169 60.1619 109.739 60.1553 108.306V100.14L65.13 111.083C66.0632 113.138 67.5735 114.876 69.4769 116.088C71.3804 117.299 73.595 117.931 75.8511 117.907C78.1072 117.882 80.3076 117.203 82.1845 115.95C84.0613 114.698 85.5336 112.927 86.4223 110.853L88.3692 106.303L88.5735 107.733C88.8589 109.699 88.8738 111.695 88.618 113.666L84.8576 141.698ZM127.091 74.5477C118.068 84.8494 113.094 98.0775 113.094 111.772C113.087 120.104 110.915 128.292 106.792 135.534C106.09 136.758 105.077 137.776 103.855 138.483C102.633 139.19 101.246 139.563 99.8344 139.562H90.01L93.3878 114.299C93.6597 112.12 93.6597 109.916 93.3878 107.737C98.9868 101.901 103.223 94.8971 105.793 87.2287L116.955 53.7698L122.942 56.3264C124.615 57.0464 126.095 58.1514 127.26 59.5513C128.425 60.9513 129.243 62.6067 129.647 64.3826C130.051 66.1586 130.03 68.0049 129.586 69.7712C129.142 71.5375 128.286 73.1739 127.09 74.5471L127.091 74.5477Z" fill="#EAEAEA"/>
</svg>
