<svg width="150" height="150" viewBox="0 0 150 150" fill="none" xmlns="http://www.w3.org/2000/svg">
<g clip-path="url(#clip0)">
<path d="M37.9215 76.4763C32.5932 78.045 28.2956 79.8666 26.4255 81.35C25.866 81.7938 25.1982 82.009 24.5355 82.009C23.638 82.009 22.7494 81.6142 22.1482 80.8565C21.1032 79.5388 21.3242 77.6238 22.6414 76.5788C26.0477 73.8776 32.5996 71.695 36.2017 70.6348C37.8146 70.1588 39.5071 71.0823 39.9821 72.6956C40.457 74.3089 39.5345 76.0014 37.9215 76.4763ZM79.1517 96.5252C80.7146 104.551 79.196 111.877 74.7604 117.712C70.8514 122.853 64.9673 126.411 58.1914 127.731C56.3152 128.096 54.4367 128.277 52.5849 128.277C47.7495 128.277 43.0889 127.046 39.0741 124.661C32.7735 120.917 28.6173 114.696 27.0544 106.67L27.024 106.513C26.755 105.115 27.4894 103.718 28.7929 103.148C31.0151 102.175 33.5428 101.224 36.3049 100.324C37.177 100.039 38.1309 100.163 38.9019 100.661C49.3946 107.445 58.7353 105.626 65.9155 95.4011C66.4429 94.6501 67.2805 94.1772 68.1959 94.1133C71.093 93.912 73.7929 93.8447 76.2201 93.9127C77.6439 93.9526 78.8499 94.9745 79.1229 96.3727L79.1523 96.5232L79.1517 96.5252ZM73.5199 99.9812C72.4038 99.9944 71.2357 100.034 70.022 100.101C64.6314 107.203 58.0266 110.816 50.8428 110.816C46.3554 110.817 41.6437 109.408 36.8576 106.559C35.7078 106.953 34.6097 107.355 33.5708 107.761C37.0322 119.817 47.9068 123.529 57.0273 121.754C66.1489 119.978 74.8334 112.458 73.5199 99.9812ZM57.7479 72.6154C63.2762 72.0701 67.9439 72.1466 70.2327 72.8194C70.5196 72.904 70.8085 72.9439 71.093 72.9439C72.4089 72.9439 73.6224 72.084 74.0124 70.7579C74.4867 69.1446 73.5638 67.4525 71.9505 66.9775C67.9899 65.8128 61.7153 66.1051 57.1495 66.556C55.476 66.7208 54.2534 68.2116 54.4185 69.8848C54.5839 71.5583 56.0771 72.7809 57.7479 72.6154ZM93.5813 33.7706C93.6787 33.7797 93.7752 33.7844 93.8706 33.7844C95.423 33.7844 96.7494 32.6021 96.8982 31.0254C97.0559 29.3512 95.8269 27.8661 94.1527 27.7085C88.6224 27.1872 84.0555 26.2203 81.9368 25.1219C80.4433 24.3476 78.606 24.9308 77.8327 26.424C77.0587 27.9165 77.6416 29.7541 79.1344 30.5281C82.9936 32.5284 89.8426 33.4184 93.5813 33.7706ZM114.633 33.7844C114.729 33.7844 114.825 33.7797 114.923 33.7706C119.491 33.3403 125.706 32.4279 129.37 30.5274C130.863 29.7534 131.445 27.9155 130.671 26.423C129.897 24.9308 128.06 24.3486 126.567 25.1219C124.45 26.22 119.883 27.1868 114.351 27.7085C112.677 27.8661 111.448 29.3509 111.606 31.0254C111.754 32.6021 113.081 33.7844 114.633 33.7844ZM98.0707 93.1826C102.215 114.465 87.138 136.615 62.2214 145.849C61.9112 145.964 61.5844 146.028 61.2539 146.038C60.581 146.058 59.9065 146.068 59.2394 146.068C33.5705 146.068 12.3014 131.414 8.26254 110.671L0.100341 68.7549C-0.71121 64.5879 3.37158 60.7527 12.9495 56.6848C20.7291 53.3808 31.2904 50.3389 42.6887 48.1197C54.0869 45.9002 65.0173 44.7514 73.4688 44.9002C83.8728 45.0765 89.0966 47.0998 89.9082 51.2665L98.0707 93.1826ZM92.0939 94.3463L83.9872 52.7167C83.225 52.1342 79.8858 50.9387 71.4786 50.9789C63.7207 51.0307 53.9093 52.1379 43.8527 54.0962C33.7961 56.0546 24.2862 58.7098 17.0756 61.5727C9.26488 64.6741 6.62117 67.0503 6.13302 67.877L14.2394 109.507C17.785 127.718 37.2331 140.468 60.5733 139.964C82.4013 131.674 95.6398 112.558 92.0939 94.3463ZM135.08 6.65583C126.813 4.89978 115.865 3.93262 104.253 3.93262C92.6399 3.93262 81.6915 4.89944 73.4245 6.65583C63.2457 8.81782 58.505 11.8022 58.505 16.0477V34.7245C58.505 36.4062 59.8679 37.7691 61.5496 37.7691C63.2312 37.7691 64.5942 36.4062 64.5942 34.7245V16.3393C65.2308 15.6211 68.2798 13.794 76.5397 12.2426C84.1644 10.8107 94.0065 10.0221 104.253 10.0221C114.499 10.0221 124.34 10.8107 131.965 12.2426C140.225 13.794 143.274 15.6211 143.911 16.3393V58.7501C143.911 75.8468 130.009 90.9787 109.317 96.4041C107.69 96.8307 106.717 98.4951 107.144 100.121C107.503 101.489 108.736 102.395 110.087 102.395C110.342 102.395 110.602 102.362 110.861 102.294C122.032 99.3652 131.68 93.7645 138.762 86.0979C146.114 78.1383 150.001 68.6818 150.001 58.7501V16.0477C150 11.8022 145.259 8.81782 135.08 6.65583ZM118.494 77.4814C118.619 77.4814 118.743 77.4739 118.868 77.4584C121.751 77.1018 124.414 76.6522 126.782 76.1218C128.172 75.8102 129.161 74.5758 129.161 73.1509V72.9977C129.161 65.0074 126.379 58.2101 121.117 53.3415C115.726 48.3541 108.149 45.8413 100.333 46.452C98.6563 46.5825 97.4033 48.0473 97.5339 49.7235C97.6644 51.4001 99.1272 52.6575 100.805 52.5225C106.939 52.0445 112.833 53.9728 116.982 57.8113C120.463 61.0321 122.511 65.4492 122.972 70.6818C121.875 70.8824 120.721 71.0664 119.517 71.2329C114.669 66.8977 109.545 64.4881 104.268 64.0669C102.594 63.935 101.125 65.1839 100.991 66.8598C100.857 68.536 102.108 70.0032 103.784 70.1371C108.018 70.4751 112.257 72.6598 116.384 76.6309C116.954 77.1799 117.712 77.4814 118.494 77.4814Z" fill="#EAEAEA"/>
</g>
<defs>
<clipPath id="clip0">
<rect width="150" height="150" fill="white"/>
</clipPath>
</defs>
</svg>
