<svg width="150" height="150" viewBox="0 0 150 150" fill="none" xmlns="http://www.w3.org/2000/svg">
<path d="M71.6954 70.52C70.9665 71.6653 71.3042 73.1849 72.4496 73.9152C73.5977 74.6398 75.1159 74.3036 75.8448 73.161C81.141 64.834 82.6071 56.9151 80.2025 49.6167C75.8687 36.4747 60.5501 30.4497 59.8986 30.1992C59.143 29.9066 58.2945 30.0093 57.6248 30.4694C56.9564 30.9281 56.5568 31.6865 56.5568 32.4956V109.973C52.9744 106.786 47.6952 104.757 41.8038 104.757C31.037 104.757 22.2766 111.502 22.2766 119.791C22.2766 128.08 31.037 134.827 41.8038 134.827C52.5706 134.827 61.331 128.08 61.331 119.791C61.331 119.662 61.3099 119.535 61.3056 119.407C61.4041 119.141 61.4759 118.862 61.4759 118.561V36.3973C65.8012 38.7415 73.0687 43.6522 75.5395 51.1785C77.4488 57.0023 76.1572 63.51 71.6954 70.52ZM41.8038 129.908C33.747 129.908 27.1943 125.37 27.1943 119.791C27.1943 114.213 33.747 109.674 41.8038 109.674C49.8592 109.674 56.4119 114.212 56.4119 119.791C56.4119 125.369 49.8592 129.908 41.8038 129.908Z" fill="#EAEAEA"/>
<path d="M147.542 116.102H71.9261C70.5683 116.102 69.4666 117.202 69.4666 118.561C69.4666 119.92 70.5683 121.021 71.9261 121.021H147.542C148.899 121.021 150 119.92 150 118.561C150 117.202 148.899 116.102 147.542 116.102Z" fill="#EAEAEA"/>
<path d="M12.2949 116.102H2.45954C1.10032 116.102 0 117.202 0 118.561C0 119.92 1.10032 121.021 2.45954 121.021H12.2949C13.6527 121.021 14.7544 119.92 14.7544 118.561C14.7544 117.202 13.6527 116.102 12.2949 116.102Z" fill="#EAEAEA"/>
<path d="M101.584 86.5942C103.73 93.1033 111.382 97.9408 120.492 97.9408C129.603 97.9408 137.255 93.1033 139.399 86.5942H147.043C148.401 86.5942 149.503 85.4939 149.503 84.1347C149.503 82.7755 148.401 81.6766 147.043 81.6766H139.938C139.12 73.9602 130.72 67.8705 120.492 67.8705C110.264 67.8705 101.863 73.9602 101.045 81.6766H94.8204C93.4626 81.6766 92.3623 82.7755 92.3623 84.1347C92.3623 85.4939 93.4626 86.5942 94.8204 86.5942H101.584ZM120.492 93.0231C114.317 93.0231 109.037 90.3525 106.903 86.5942H134.082C131.947 90.3525 126.666 93.0231 120.492 93.0231ZM120.492 72.7882C127.945 72.7882 134.101 76.6759 134.982 81.6766H106.002C106.882 76.6773 113.039 72.7882 120.492 72.7882Z" fill="#EAEAEA"/>
<path d="M2.45954 86.5942H43.5401C44.8979 86.5942 45.9996 85.4938 45.9996 84.1346C45.9996 82.7754 44.8979 81.6765 43.5401 81.6765H2.45954C1.10032 81.6765 0 82.7754 0 84.1346C0 85.4938 1.10032 86.5942 2.45954 86.5942Z" fill="#EAEAEA"/>
<path d="M147.542 49.7081H90.7357C89.3779 49.7081 88.2761 50.8085 88.2761 52.1677C88.2761 53.5269 89.3779 54.6272 90.7357 54.6272H147.542C148.899 54.6272 150 53.5269 150 52.1677C150 50.8085 148.899 49.7081 147.542 49.7081Z" fill="#EAEAEA"/>
<path d="M2.45954 54.6272H42.8464C44.2042 54.6272 45.3059 53.5269 45.3059 52.1677C45.3059 50.8085 44.2042 49.7081 42.8464 49.7081H2.45954C1.10032 49.7081 0 50.8085 0 52.1677C0 53.5269 1.10032 54.6272 2.45954 54.6272Z" fill="#EAEAEA"/>
<path d="M2.45954 20.2006H147.542C148.899 20.2006 150 19.1003 150 17.7411C150 16.3819 148.899 15.283 147.542 15.283H2.45954C1.10032 15.283 0 16.3819 0 17.7411C0 19.1003 1.10032 20.2006 2.45954 20.2006Z" fill="#EAEAEA"/>
</svg>
