<svg width="150" height="149" viewBox="0 0 150 149" fill="none" xmlns="http://www.w3.org/2000/svg">
<path d="M150 32.2951C150 23.8964 146.689 16 140.675 10.0616C134.662 4.12235 126.668 0.851807 118.164 0.851807C111.177 0.851807 104.536 3.06101 99.053 7.14232L95.7038 3.83445L89.3473 10.1125L92.6991 13.423C87.9267 19.6958 85.8422 27.3434 86.446 34.818L76.3301 45.9088L22.6102 104.806L30.5001 112.598L0 142.722L6.35654 149L36.8566 118.876L44.7469 126.669L104.38 73.6122L115.609 63.6209C116.459 63.6877 117.311 63.7233 118.164 63.7233C124.899 63.7233 131.633 61.6293 137.272 57.445L140.624 60.7555L146.98 54.4774L143.631 51.1695C147.763 45.7549 150 39.1953 150 32.2951ZM45.0697 114.432L35.0004 104.487L76.6708 58.8012L91.3266 73.276L45.0697 114.432ZM98.015 67.3252L82.6957 52.195L89.1044 45.1692C89.78 46.6591 90.581 48.0899 91.488 49.4603C91.5425 49.5428 91.597 49.6252 91.652 49.7071C91.8258 49.9644 92.0033 50.219 92.185 50.4716C92.3186 50.6576 92.4542 50.8431 92.5922 51.0269C92.6971 51.166 92.802 51.3046 92.9092 51.4424C93.1236 51.7178 93.3439 51.9907 93.5689 52.2607C93.6475 52.3544 93.7266 52.4476 93.8062 52.5408C94.0605 52.8388 94.3201 53.1339 94.5876 53.4244C94.6365 53.4774 94.6866 53.5295 94.7355 53.5821C95.0314 53.8993 95.3329 54.2135 95.6443 54.5211C95.6467 54.5234 95.649 54.526 95.6517 54.5286C95.654 54.5312 95.6566 54.5332 95.6596 54.5361C95.9713 54.844 96.2892 55.1417 96.6103 55.4337C96.6633 55.4823 96.716 55.5315 96.7693 55.5792C97.0635 55.8434 97.3626 56.1001 97.6644 56.3515C97.7584 56.4299 97.8527 56.5081 97.9477 56.5856C98.2213 56.8078 98.4973 57.0257 98.7765 57.2375C98.9156 57.3434 99.056 57.447 99.1969 57.5503C99.3826 57.6866 99.5698 57.8203 99.7579 57.9519C100.015 58.1322 100.273 58.3078 100.534 58.48C100.617 58.5341 100.699 58.5873 100.782 58.6406C102.171 59.537 103.62 60.3287 105.129 60.9962L98.015 67.3252ZM103.828 49.8634C103.764 49.8122 103.7 49.7604 103.637 49.7083C103.424 49.5347 103.213 49.3559 103.005 49.1736C102.933 49.1099 102.86 49.0474 102.788 48.9829C102.528 48.7494 102.272 48.5104 102.021 48.2627C102.017 48.2586 102.013 48.2546 102.008 48.2508C102.004 48.2465 102 48.2419 101.996 48.2378C101.745 47.9901 101.504 47.7369 101.268 47.4811C101.202 47.4103 101.138 47.3373 101.074 47.2653C100.889 47.0601 100.708 46.8527 100.533 46.6426C100.48 46.5798 100.428 46.5173 100.376 46.4539C94.0863 38.7578 93.6762 27.8987 99.1459 19.7899L130.825 51.0775C122.615 56.48 111.621 56.0749 103.828 49.8634ZM137.186 44.8046L105.498 13.5072C109.217 11.05 113.588 9.73028 118.164 9.73028C124.266 9.73028 130.003 12.0775 134.319 16.3394C138.634 20.6012 141.011 26.2676 141.011 32.2951C141.011 36.8145 139.674 41.131 137.186 44.8046Z" fill="#EAEAEA"/>
</svg>
