<svg width="150" height="150" viewBox="0 0 150 150" fill="none" xmlns="http://www.w3.org/2000/svg">
<path d="M10.195 83.591C16.0688 89.0335 24.0003 92.7143 32.528 93.9557C44.9189 95.7592 47.7891 106.488 49.3315 112.252C49.5193 112.954 49.6814 113.56 49.8481 114.092C53.0402 124.283 59.5345 133.43 68.1343 139.848C77.0338 146.49 87.6226 150 98.7565 150C127.012 150 150 127.012 150 98.7565L150 41.4343L150 32.523L150 0L2.49518e-05 -6.89175e-06L1.95418e-05 32.5227L1.80595e-05 41.434L1.48327e-05 60.832C1.3384e-05 69.5411 3.5256 77.4111 10.195 83.591ZM141.089 98.7565C141.089 122.099 122.099 141.089 98.7565 141.089C89.5582 141.089 80.8125 138.19 73.4646 132.706C66.3554 127.401 60.9888 119.844 58.3523 111.428C58.2419 111.075 58.1021 110.553 57.9404 109.949C56.3189 103.888 52.0108 87.7869 33.8118 85.1376C27.0516 84.1535 20.8154 81.283 16.2516 77.0549C12.9029 73.9523 8.91124 68.6191 8.91124 60.8329L8.91124 41.4352L141.089 41.4352L141.089 98.7565ZM8.91067 8.91122L8.91125 8.91122L141.089 8.91122L141.089 32.5228L135.891 32.5228L135.891 12.9182L126.98 12.9182L126.98 32.5227L121.782 32.5227L121.782 12.9182L112.871 12.9182L112.871 32.5227L107.674 32.5227L107.674 12.9182L98.7624 12.9182L98.7624 32.5227L93.5649 32.5227L93.5649 12.9182L84.6536 12.9182L84.6536 32.5227L79.4561 32.5227L79.4561 12.9182L70.5448 12.9182L70.5448 32.5227L65.3473 32.5227L65.3473 12.9182L56.4361 12.9182L56.4361 32.5227L51.2385 32.5227L51.2385 12.9182L42.3273 12.9182L42.3273 32.5227L37.1297 32.5227L37.1297 12.9182L28.2185 12.9182L28.2185 32.5227L23.0209 32.5227L23.0209 12.9182L14.1097 12.9182L14.1097 32.5227L8.91213 32.5227L8.91213 8.91122L8.91067 8.91122Z" fill="#EAEAEA"/>
</svg>
