<svg width="150" height="150" viewBox="0 0 150 150" fill="none" xmlns="http://www.w3.org/2000/svg">
<path d="M8.13561 125.803L23.521 125.803C27.6478 125.803 31.0661 122.713 31.5857 118.724L39.4478 119.903L39.4478 123.585C39.4478 128.071 43.0973 131.72 47.5834 131.72L62.9688 131.72C67.0956 131.72 70.5139 128.629 71.0335 124.641L78.8956 125.821L78.8956 129.501C78.8956 133.987 82.5462 137.638 87.0312 137.638L102.417 137.638C106.544 137.638 109.962 134.547 110.481 130.559L118.343 131.738L118.343 135.419C118.343 139.905 121.993 143.555 126.479 143.555L141.864 143.555C146.349 143.555 150 139.905 150 135.419L150 118.259C150 117.033 149.007 116.04 147.781 116.04C146.555 116.04 145.562 117.033 145.562 118.259L145.562 135.419C145.562 137.458 143.903 139.117 141.864 139.117L126.479 139.117C124.44 139.117 122.781 137.457 122.781 135.419L122.781 56.1287C122.781 54.0893 124.441 52.4311 126.479 52.4311L141.864 52.4311C143.904 52.4311 145.562 54.0893 145.562 56.1287L145.562 107.904C145.562 109.13 146.555 110.123 147.781 110.123C149.007 110.123 150 109.13 150 107.904L150 56.1287C150 51.6426 146.349 47.9931 141.864 47.9931L126.479 47.9931C121.993 47.9931 118.343 51.6426 118.343 56.1287L118.343 59.8091L110.481 60.989C109.962 57.0007 106.545 53.9097 102.417 53.9097L87.0312 53.9097C82.5451 53.9097 78.8956 57.5603 78.8956 62.0464L78.8956 65.7268L71.0335 66.9056C70.5139 62.9173 67.0956 59.8274 62.9688 59.8274L47.5834 59.8274C43.0973 59.8274 39.4478 63.4769 39.4478 67.963L39.4478 71.6434L31.5857 72.8233C31.0661 68.835 27.6478 65.744 23.521 65.744L8.13561 65.744C3.64953 65.744 6.48337e-06 69.3935 6.09119e-06 73.8796L2.26317e-06 117.667C1.87099e-06 122.153 3.65067 125.803 8.13561 125.803ZM39.4478 103.582L31.6567 102.413L31.6567 89.1346L39.4478 87.9661L39.4478 103.582ZM31.6566 114.247L31.6566 106.9L39.4478 108.069L39.4478 115.416L31.6566 114.247ZM71.1044 120.164L71.1044 112.818L78.8956 113.987L78.8956 121.333L71.1044 120.164ZM118.343 115.416L110.552 114.248L110.552 77.3003L118.343 76.1318L118.343 115.416ZM110.552 126.082L110.552 118.735L118.343 119.903L118.343 127.25L110.552 126.082ZM118.343 71.6434L110.552 72.8119L110.552 65.4659L118.343 64.2975L118.343 71.6434ZM83.3336 62.0453C83.3336 60.0059 84.993 58.3477 87.0312 58.3477L102.417 58.3477C104.456 58.3477 106.114 60.0071 106.114 62.0453L106.114 129.501C106.114 131.541 104.455 133.2 102.417 133.2L87.0312 133.2C84.9918 133.2 83.3336 131.541 83.3336 129.501L83.3336 106.122C83.3336 104.898 82.3402 103.903 81.1146 103.903C79.8889 103.903 78.8956 104.898 78.8956 106.122L78.8956 109.499L71.1044 108.331L71.1044 83.2168L78.8956 82.0484L78.8956 96.0571C78.8956 97.2828 79.8889 98.2761 81.1146 98.2761C82.3402 98.2761 83.3336 97.2828 83.3336 96.0571L83.3336 62.0453ZM78.8956 77.5612L71.1044 78.7296L71.1044 71.3825L78.8956 70.2141L78.8956 77.5612ZM43.8858 67.963C43.8858 65.9237 45.5452 64.2643 47.5834 64.2643L62.9688 64.2643C65.0082 64.2643 66.6664 65.9237 66.6664 67.963L66.6664 123.585C66.6664 125.624 65.007 127.282 62.9688 127.282L47.5834 127.282C45.5441 127.282 43.8858 125.623 43.8858 123.585L43.8858 67.963ZM39.4478 83.4778L31.6567 84.6462L31.6567 77.3002L39.4478 76.1307L39.4478 83.4778ZM4.43802 73.8807C4.43803 71.8414 6.09742 70.182 8.13561 70.182L23.521 70.182C25.5604 70.182 27.2186 71.8414 27.2186 73.8807L27.2186 117.667C27.2186 119.706 25.5592 121.366 23.521 121.366L8.13561 121.366C6.09627 121.366 4.43802 119.706 4.43802 117.667L4.43802 73.8807Z" fill="#EAEAEA"/>
<path d="M134.172 57.4597C133.459 57.4597 132.771 57.5649 132.12 57.7572C132.045 57.7767 131.973 57.7995 131.901 57.8259C129.014 58.7814 126.923 61.5051 126.923 64.7083C126.923 68.7058 130.174 71.957 134.172 71.957C138.169 71.957 141.42 68.7058 141.42 64.7083C141.42 60.7121 138.168 57.4597 134.172 57.4597ZM134.172 67.519C132.622 67.519 131.361 66.2579 131.361 64.7083C131.361 63.1588 132.622 61.8977 134.172 61.8977C135.721 61.8977 136.982 63.1588 136.982 64.7083C136.982 66.2579 135.721 67.519 134.172 67.519Z" fill="#EAEAEA"/>
<path d="M134.172 119.59C130.174 119.59 126.923 122.842 126.923 126.838C126.923 130.055 129.03 132.788 131.936 133.733C131.988 133.752 132.041 133.768 132.095 133.783C132.753 133.979 133.45 134.087 134.172 134.087C138.168 134.087 141.42 130.836 141.42 126.838C141.42 122.842 138.168 119.59 134.172 119.59ZM134.172 129.649C132.622 129.649 131.361 128.389 131.361 126.838C131.361 125.289 132.622 124.028 134.172 124.028C135.721 124.028 136.982 125.289 136.982 126.838C136.982 128.389 135.721 129.649 134.172 129.649Z" fill="#EAEAEA"/>
<path d="M94.724 77.8748C98.7214 77.8748 101.973 74.6223 101.973 70.6261C101.973 66.6286 98.7214 63.3774 94.724 63.3774C94.0224 63.3774 93.3438 63.4792 92.7018 63.6658C92.6652 63.6749 92.6297 63.6864 92.5931 63.6978C92.5816 63.7012 92.5702 63.7035 92.5599 63.707C92.5244 63.7184 92.4889 63.7299 92.4546 63.7424C89.5661 64.698 87.4753 67.4217 87.4753 70.6261C87.4753 74.6223 90.7265 77.8748 94.724 77.8748ZM97.5346 70.6261C97.5346 72.1756 96.2735 73.4367 94.724 73.4367C93.1744 73.4367 91.9133 72.1756 91.9133 70.6261C91.9133 69.0754 93.1744 67.8154 94.724 67.8154C96.2735 67.8154 97.5346 69.0754 97.5346 70.6261Z" fill="#EAEAEA"/>
<path d="M92.4535 127.804C92.4889 127.817 92.5256 127.829 92.561 127.841C92.5702 127.843 92.5793 127.847 92.5885 127.849C92.6263 127.86 92.664 127.872 92.7029 127.882C93.345 128.069 94.0224 128.17 94.724 128.17C98.7214 128.17 101.973 124.919 101.973 120.922C101.973 116.924 98.7214 113.673 94.724 113.673C90.7265 113.673 87.4753 116.924 87.4753 120.922C87.4753 124.126 89.5661 126.849 92.4535 127.804ZM94.724 118.111C96.2735 118.111 97.5346 119.372 97.5346 120.922C97.5346 122.471 96.2735 123.732 94.724 123.732C93.1744 123.732 91.9133 122.471 91.9133 120.922C91.9133 119.372 93.1744 118.111 94.724 118.111Z" fill="#EAEAEA"/>
<path d="M55.2762 83.7913C59.2736 83.7913 62.5249 80.5401 62.5249 76.5426C62.5249 72.5452 59.2736 69.2939 55.2762 69.2939C54.5564 69.2939 53.8617 69.4015 53.206 69.5972C53.1476 69.6132 53.0904 69.6304 53.0332 69.651C50.131 70.5974 48.0275 73.3291 48.0275 76.5426C48.0275 80.5401 51.2788 83.7913 55.2762 83.7913ZM58.0869 76.5426C58.0869 78.0922 56.8257 79.3533 55.2762 79.3533C53.7267 79.3533 52.4656 78.0922 52.4656 76.5426C52.4656 74.9931 53.7267 73.732 55.2762 73.732C56.8257 73.732 58.0869 74.9931 58.0869 76.5426Z" fill="#EAEAEA"/>
<path d="M53.0687 121.908C53.1053 121.921 53.143 121.932 53.1808 121.942C53.8446 122.144 54.5472 122.253 55.2762 122.253C59.2736 122.253 62.5249 119.001 62.5249 115.004C62.5249 111.007 59.2736 107.755 55.2762 107.755C51.2788 107.755 48.0275 111.007 48.0275 115.004C48.0275 118.231 50.1481 120.972 53.0687 121.908ZM55.2762 112.193C56.8257 112.193 58.0869 113.454 58.0869 115.005C58.0869 116.555 56.8257 117.816 55.2762 117.816C53.7267 117.816 52.4656 116.555 52.4656 115.005C52.4656 113.454 53.7267 112.193 55.2762 112.193Z" fill="#EAEAEA"/>
<path d="M15.8282 89.7079C19.8256 89.7079 23.0769 86.4567 23.0769 82.4604C23.0769 78.463 19.8256 75.2117 15.8282 75.2117C11.8319 75.2117 8.57953 78.463 8.57953 82.4604C8.57953 86.4567 11.8319 89.7079 15.8282 89.7079ZM15.8282 79.6497C17.3777 79.6497 18.6389 80.9109 18.6389 82.4604C18.6389 84.0099 17.3777 85.2711 15.8282 85.2711C14.2787 85.2711 13.0175 84.0099 13.0175 82.4604C13.0175 80.9109 14.2787 79.6497 15.8282 79.6497Z" fill="#EAEAEA"/>
<path d="M15.8282 116.336C19.8256 116.336 23.0769 113.084 23.0769 109.087C23.0769 105.09 19.8256 101.839 15.8282 101.839C11.8319 101.839 8.57953 105.09 8.57953 109.087C8.57953 113.084 11.8319 116.336 15.8282 116.336ZM15.8282 106.277C17.3777 106.277 18.6389 107.538 18.6389 109.087C18.6389 110.637 17.3777 111.898 15.8282 111.898C14.2787 111.898 13.0175 110.637 13.0175 109.087C13.0175 107.538 14.2787 106.277 15.8282 106.277Z" fill="#EAEAEA"/>
<path d="M30.9173 40.5956C37.706 40.5956 43.5768 36.597 46.3039 30.8327L82.101 30.8327C83.3267 30.8327 84.32 29.8393 84.32 28.6136C84.32 27.388 83.3267 26.3946 82.101 26.3946L47.6921 26.3946C47.8454 25.4803 47.929 24.5418 47.929 23.584C47.929 22.6261 47.8454 21.6888 47.6921 20.7733L128.847 20.7733C130.396 20.7733 131.657 22.0344 131.657 23.584C131.657 25.1335 130.396 26.3946 128.847 26.3946L92.4556 26.3946C91.23 26.3946 90.2366 27.388 90.2366 28.6136C90.2366 29.8393 91.23 30.8327 92.4556 30.8327L128.847 30.8327C132.843 30.8327 136.094 27.5814 136.094 23.584C136.094 19.5877 132.843 16.3353 128.847 16.3353L46.3039 16.3353C43.5768 10.5709 37.706 6.57233 30.9173 6.57233C21.5366 6.57233 13.9057 14.2044 13.9057 23.584C13.9057 32.9647 21.5366 40.5956 30.9173 40.5956ZM30.9173 11.0103C37.8502 11.0103 43.4909 16.6511 43.4909 23.584C43.4909 30.5179 37.8502 36.1587 30.9173 36.1587C23.9833 36.1587 18.3437 30.5179 18.3437 23.584C18.3437 16.6511 23.9833 11.0103 30.9173 11.0103Z" fill="#EAEAEA"/>
</svg>
