<svg width="600" height="593" viewBox="0 0 600 593" fill="none" xmlns="http://www.w3.org/2000/svg">
<path d="M599.588 125.687C599.588 92.1149 586.351 60.5509 562.314 36.8138C538.28 13.0732 506.322 0 472.33 0C444.403 0 417.855 8.83073 395.94 25.1447L382.552 11.9224L357.143 37.0174L370.542 50.2501C351.465 75.3243 343.133 105.894 345.546 135.771L305.11 180.104L90.3785 415.529L121.917 446.678L0 567.09L25.4087 592.185L147.325 471.774L178.864 502.924L417.232 290.842L462.119 250.904C465.518 251.171 468.923 251.313 472.33 251.313C499.254 251.313 526.172 242.943 548.709 226.217L562.107 239.45L587.516 214.355L574.128 201.132C590.646 179.489 599.588 153.268 599.588 125.687ZM180.155 454.007L139.905 414.254L306.472 231.638L365.055 289.498L180.155 454.007ZM391.791 265.711L330.555 205.231L356.173 177.148C358.873 183.103 362.075 188.823 365.7 194.3C365.918 194.63 366.136 194.96 366.356 195.287C367.051 196.315 367.76 197.333 368.486 198.343C369.02 199.086 369.563 199.828 370.114 200.562C370.533 201.119 370.953 201.673 371.381 202.223C372.238 203.324 373.119 204.415 374.018 205.494C374.332 205.869 374.648 206.241 374.967 206.614C375.984 207.805 377.021 208.985 378.09 210.146C378.286 210.358 378.486 210.566 378.682 210.776C379.864 212.044 381.069 213.3 382.314 214.529C382.324 214.539 382.333 214.549 382.344 214.56C382.353 214.57 382.364 214.578 382.375 214.59C383.621 215.82 384.892 217.01 386.175 218.177C386.387 218.372 386.598 218.568 386.811 218.759C387.987 219.815 389.183 220.841 390.389 221.846C390.765 222.16 391.142 222.472 391.521 222.782C392.615 223.67 393.718 224.541 394.834 225.388C395.391 225.811 395.951 226.225 396.515 226.638C397.257 227.183 398.005 227.717 398.757 228.243C399.783 228.964 400.817 229.666 401.861 230.354C402.19 230.571 402.52 230.783 402.85 230.996C408.401 234.579 414.193 237.744 420.225 240.412L391.791 265.711ZM415.027 195.912C414.771 195.707 414.515 195.5 414.261 195.292C413.41 194.598 412.57 193.883 411.739 193.154C411.448 192.9 411.157 192.65 410.87 192.392C409.831 191.459 408.807 190.503 407.804 189.513C407.787 189.497 407.77 189.481 407.753 189.466C407.736 189.448 407.72 189.43 407.702 189.414C406.702 188.424 405.736 187.412 404.792 186.389C404.53 186.106 404.275 185.814 404.017 185.526C403.279 184.706 402.555 183.877 401.854 183.037C401.644 182.786 401.434 182.536 401.228 182.283C376.087 151.52 374.447 108.113 396.311 75.7002L522.941 200.765C490.123 222.36 446.176 220.74 415.027 195.912ZM548.368 175.69L421.701 50.5867C436.569 40.7648 454.039 35.4895 472.33 35.4895C496.723 35.4895 519.656 44.8719 536.906 61.9076C554.154 78.9434 563.654 101.593 563.654 125.687C563.654 143.752 558.312 161.006 548.368 175.69Z" fill="#EAEAEA" fill-opacity="0.5"/>
</svg>
