<svg width="14" height="174" viewBox="0 0 14 174" fill="none" xmlns="http://www.w3.org/2000/svg">
<path d="M9.77569 40.7758C8.17787 39.3058 7.33178 37.6379 7.33178 35.9518H5.50569V46.5218C5.11333 46.3624 4.69356 46.2812 4.27004 46.2829C3.20482 46.2829 2.12363 46.7577 1.2958 47.5855C-0.246481 49.1278 -0.439742 51.4447 0.86591 52.7503C1.15543 53.033 1.49807 53.2555 1.87404 53.405C2.25002 53.5546 2.65189 53.6281 3.05645 53.6215C4.12167 53.6215 5.20287 53.1467 6.03069 52.3197C6.75124 51.5991 7.20547 50.6861 7.30971 49.7487C7.32436 49.6166 7.33147 49.4837 7.33102 49.3508V40.829C7.69949 41.291 8.10347 41.7234 8.53928 42.1225C10.4734 43.9006 10.061 46.1734 9.12819 47.5787L10.6499 48.5922C12.0956 46.4283 12.3817 43.1725 9.77721 40.7788L9.77569 40.7758Z" fill="#FBC471"/>
<path d="M4.56522 112.514C1.59783 112.514 0 114.645 0 116.653C0 117.652 0.311956 118.51 0.903913 119.136C1.51261 119.782 2.35793 120.125 3.34783 120.125C3.65916 120.125 3.96531 120.046 4.23718 119.894C4.50906 119.742 4.73764 119.524 4.90121 119.259C5.06477 118.994 5.1579 118.691 5.17173 118.38C5.18556 118.069 5.11964 117.76 4.98023 117.482C4.84083 117.203 4.63256 116.965 4.37523 116.79C4.11789 116.615 3.82002 116.508 3.50992 116.48C3.19982 116.453 2.88779 116.505 2.60347 116.632C2.31915 116.758 2.07197 116.956 1.88543 117.205C1.84515 117.025 1.82524 116.841 1.82609 116.656C1.82609 115.506 2.76728 114.343 4.56522 114.343C6.85772 114.343 8.52174 116.519 8.52174 119.517C8.52174 122.381 7.26935 124.172 6.21859 125.17C4.93043 126.394 3.17511 127.125 1.52174 127.125V128.951C3.66206 128.951 5.83283 128.056 7.47706 126.494C9.32826 124.735 10.3478 122.257 10.3478 119.517C10.3478 117.571 9.76652 115.797 8.71196 114.522C7.64217 113.228 6.16989 112.517 4.56522 112.517V112.514Z" fill="#FBC471"/>
<path d="M13.9999 116.167C13.9999 116.347 13.9464 116.524 13.846 116.674C13.7457 116.824 13.6031 116.941 13.4363 117.01C13.2694 117.079 13.0859 117.097 12.9087 117.062C12.7316 117.027 12.5689 116.94 12.4413 116.812C12.3136 116.684 12.2266 116.522 12.1914 116.345C12.1561 116.168 12.1742 115.984 12.2433 115.817C12.3124 115.65 12.4295 115.508 12.5796 115.407C12.7298 115.307 12.9063 115.253 13.0869 115.253C13.329 115.253 13.5613 115.35 13.7325 115.521C13.9037 115.692 13.9999 115.924 13.9999 116.167Z" fill="#FBC471"/>
<path d="M13.9999 119.819C13.9999 119.999 13.9464 120.176 13.846 120.326C13.7457 120.476 13.6031 120.593 13.4363 120.662C13.2694 120.731 13.0859 120.749 12.9087 120.714C12.7316 120.679 12.5689 120.592 12.4413 120.464C12.3136 120.337 12.2266 120.174 12.1914 119.997C12.1561 119.82 12.1742 119.636 12.2433 119.469C12.3124 119.302 12.4295 119.16 12.5796 119.06C12.7298 118.959 12.9063 118.906 13.0869 118.906C13.329 118.906 13.5613 119.002 13.7325 119.173C13.9037 119.344 13.9999 119.577 13.9999 119.819Z" fill="#FBC471"/>
<path d="M7.3319 0H5.50581V10.57C5.11346 10.4105 4.69369 10.3294 4.27016 10.3311C3.20494 10.3311 2.12375 10.8059 1.29592 11.6337C-0.246359 13.176 -0.43962 15.4928 0.866032 16.7985C1.15555 17.0811 1.49819 17.3036 1.87416 17.4532C2.25014 17.6027 2.65201 17.6763 3.05658 17.6697C4.12179 17.6697 5.20299 17.1949 6.03081 16.3678C6.75136 15.6473 7.2056 14.7342 7.30984 13.7968C7.32448 13.6647 7.33159 13.5319 7.33114 13.3989L7.3319 0Z" fill="#FBC471"/>
<path d="M6.03598 88.3301C5.20891 87.503 4.12467 87.0283 3.06174 87.0283C2.63821 87.0265 2.21845 87.1077 1.82609 87.2672V81.5736C2.19454 82.0355 2.59852 82.468 3.03435 82.8671C3.94739 83.7086 4.41152 84.7099 4.40391 85.8428V85.8474H6.23C6.23723 85.0174 6.05836 84.1963 5.70652 83.4446C6.60739 81.3636 6.48641 78.7051 4.27076 76.6683C2.67141 75.1983 1.82609 73.5304 1.82609 71.8436H2.66009e-07V90.0946C-5.01349e-05 90.2275 0.00706162 90.3603 0.0213046 90.4925C0.125544 91.4299 0.579783 92.3422 1.30109 93.0635C2.13043 93.8921 3.21315 94.3653 4.27533 94.3653C4.68002 94.3722 5.08206 94.2989 5.45829 94.1496C5.83451 94.0003 6.17747 93.7781 6.46739 93.4956C7.77228 92.19 7.57902 89.8731 6.03674 88.3301H6.03598ZM3.03435 78.0127C4.24565 79.1266 4.53859 80.4346 4.35674 81.6025L4.27 81.5203C2.67902 80.0579 1.83522 78.4008 1.82609 76.7215C2.19475 77.1833 2.59872 77.6158 3.03435 78.015V78.0127Z" fill="#FBC471"/>
<path d="M9.67294 160.381C8.90808 159.638 7.87963 159.227 6.81283 159.24C6.76794 159.24 6.7238 159.24 6.67967 159.24C6.3913 158.087 6.11967 157.142 5.93478 156.528C5.8587 156.273 5.78261 156.025 5.7187 155.787C6.56402 154.86 7.32261 153.97 7.74413 153.072C8.9387 150.526 8.39544 149.011 7.96554 148.335C7.72831 147.954 7.39714 147.641 7.00391 147.426C6.61067 147.21 6.16859 147.099 5.72022 147.104C4.87489 147.104 4.17641 147.441 3.70239 148.078C2.77185 149.327 2.76424 151.641 3.69478 155.29C1.91739 157.222 0 159.413 0 162.14C0 165.02 1.57728 166.433 2.9012 167.112C3.77339 167.548 4.72532 167.802 5.69891 167.858H5.72174C5.90891 167.858 6.0938 167.851 6.27641 167.836L6.2825 167.926C6.36391 169.097 6.43467 170.108 6.2825 170.991C6.1387 171.832 5.56957 172.087 5.12598 172.049C4.9388 172.033 4.50435 171.943 4.50435 171.45H2.67826C2.67826 172.739 3.64228 173.756 4.97076 173.869C5.05141 173.876 5.13283 173.879 5.21348 173.879C5.82634 173.88 6.42271 173.681 6.9125 173.312C7.53185 172.847 7.93663 172.151 8.08272 171.3C8.27065 170.2 8.1938 169.088 8.10402 167.8L8.085 167.521C8.085 167.482 8.07967 167.445 8.07663 167.404C8.48645 167.233 8.87056 167.007 9.21794 166.73C10.274 165.886 10.8317 164.676 10.8317 163.23C10.8377 162.701 10.738 162.177 10.5385 161.687C10.339 161.198 10.0436 160.753 9.66989 160.379L9.67294 160.381ZM5.16859 149.167C5.26065 149.043 5.39152 148.928 5.72174 148.928C5.86261 148.924 6.00194 148.958 6.12566 149.025C6.24937 149.093 6.35308 149.192 6.4263 149.312C6.57011 149.541 6.97033 150.422 6.09228 152.294C5.89902 152.705 5.57717 153.153 5.18457 153.627C4.53478 150.53 4.92511 149.494 5.16859 149.167ZM5.73924 166.032C5.02316 165.982 4.32456 165.788 3.68489 165.462C2.43478 164.801 1.82609 163.714 1.82609 162.14C1.82609 160.439 2.99022 158.834 4.27989 157.366C4.45717 157.971 4.68848 158.803 4.93272 159.783C4.14522 160.337 3.77391 161.237 3.77391 162.096C3.77391 162.788 4.05467 163.378 4.56522 163.76C4.94394 164.029 5.39035 164.187 5.85413 164.216C5.95076 164.808 6.0375 165.411 6.10978 166.016C5.985 166.026 5.86098 166.032 5.73924 166.032V166.032ZM7.87881 165.445C7.68402 163.923 7.40554 162.427 7.11185 161.084C8.22728 161.215 9.0087 162.078 9.0087 163.232C9.0087 164.298 8.54 165.006 7.87881 165.445Z" fill="#FBC471"/>
</svg>
